<svg width="300" height="318" viewBox="0 0 300 318" fill="none" xmlns="http://www.w3.org/2000/svg">
<path d="M150.236 248.675C226.225 248.675 287.825 193.007 287.825 124.337C287.825 55.6678 226.225 0 150.236 0C74.2483 0 12.6478 55.6678 12.6478 124.337C12.6478 193.007 74.2483 248.675 150.236 248.675Z" fill="#E6ECFF"/>
<path d="M150.236 317.37C196.644 317.37 234.264 314.318 234.264 310.553C234.264 306.789 196.644 303.737 150.236 303.737C103.829 303.737 66.209 306.789 66.209 310.553C66.209 314.318 103.829 317.37 150.236 317.37Z" fill="#C7D1EA"/>
<path d="M102.675 232.971C105.277 244.621 109.12 257.633 112.094 269.407C115.192 280.933 118.414 292.583 121.761 304.109C123.372 310.305 133.163 308.447 132.543 302.125C129.569 279.074 126.842 253.915 124.488 230.739C123.248 216.611 100.94 218.842 102.675 232.971Z" fill="#ED7E97"/>
<path d="M171.458 302.622C171.334 308.694 180.63 310.058 182.241 304.109C185.587 292.583 188.809 281.057 191.908 269.407C194.882 258.253 198.228 245.736 201.079 234.582C204.674 219.586 181.25 215.372 179.515 230.739C177.16 254.288 174.309 279.322 171.458 302.622Z" fill="#ED7E97"/>
<path d="M177.655 248.586L176.54 258.873C189.429 263.211 194.758 258.378 194.758 258.378L196.493 252.057C197.98 246.233 199.592 240.531 201.079 234.707C202.566 228.882 199.096 222.809 193.148 221.322C187.323 219.835 181.25 223.305 179.763 229.253C179.638 229.749 179.515 230.244 179.515 230.864V230.989L177.655 248.586Z" fill="#E26988"/>
<path d="M102.675 232.97C102.675 233.466 102.799 234.086 102.923 234.582C104.41 240.406 105.897 246.231 107.508 251.932C107.508 251.932 115.688 260.608 127.462 257.138L126.223 248.462L124.364 230.739C123.744 224.667 118.292 220.329 112.343 220.949C106.393 221.569 102.055 227.021 102.675 232.97Z" fill="#E26988"/>
<path d="M98.9569 306.464C101.559 312.661 131.428 315.387 132.543 303.489C132.543 303.365 132.543 303.117 132.543 302.994C132.543 302.87 132.543 302.746 132.543 302.498V302.25C132.543 301.878 132.419 301.507 132.419 301.135C132.419 301.011 132.419 300.887 132.295 300.763L125.975 298.904L119.902 297.045H119.778C117.795 297.169 100.072 298.284 98.8327 305.348C98.7091 305.596 98.8327 305.968 98.9569 306.464Z" fill="#ED7E97"/>
<path d="M98.9569 306.464C98.9569 306.464 106.641 301.507 120.645 300.019C121.017 300.019 121.389 299.895 121.761 299.895C123.992 299.647 125.355 297.293 124.488 295.309L111.103 265.193L112.218 269.531C114.697 278.702 117.175 287.873 119.778 297.044C117.795 297.168 100.073 298.283 98.8333 305.348C98.7091 305.596 98.8327 305.968 98.9569 306.464Z" fill="#F490AA"/>
<path d="M171.458 302.622C171.458 303.242 171.583 303.861 171.706 304.481C174.556 316.007 206.408 312.041 205.293 305.224C204.054 298.284 186.331 297.045 184.348 296.921C184.223 296.921 184.223 296.921 184.223 296.921L179.762 298.284L171.83 300.639C171.83 300.763 171.83 300.886 171.706 301.134C171.582 301.506 171.582 301.878 171.582 302.125V302.25C171.458 302.374 171.458 302.498 171.458 302.622Z" fill="#ED7E97"/>
<path d="M179.514 298.284C179.019 299.523 179.886 300.763 181.25 300.763C181.869 300.763 182.489 300.763 183.109 300.763C196.989 301.011 205.169 305.101 205.169 305.101C203.93 298.16 186.207 296.921 184.224 296.797C186.827 287.626 189.305 278.454 191.784 269.284L192.9 264.946L179.514 298.284Z" fill="#F490AA"/>
<path d="M171.582 304.481C174.432 316.007 206.283 312.041 205.168 305.224C205.168 305.224 187.198 310.925 171.582 304.481Z" fill="#E26988"/>
<path d="M98.9569 306.464C101.559 312.661 131.428 315.387 132.543 303.366C132.419 303.366 132.296 303.366 132.296 303.366C132.296 303.366 119.901 311.545 98.9569 306.464Z" fill="#E26988"/>
<path d="M133.77 301.774C133.768 301.752 133.772 301.729 133.768 301.707C133.766 301.699 133.766 301.691 133.764 301.683C133.742 301.438 133.711 301.19 133.669 300.94C132.086 288.577 130.412 276.755 129.32 266.556L127.337 248.833L125.478 230.987C124.734 224.294 118.785 219.461 112.217 220.204C108.995 220.452 106.021 222.063 104.038 224.542C102.055 227.021 101.063 230.119 101.435 233.341C101.559 233.837 101.683 234.457 101.807 235.077C103.295 241.026 104.906 246.727 106.393 252.551L110.978 269.902C112.887 277.177 115.593 286.288 118.334 295.909C113.266 296.301 98.9049 297.956 97.7171 304.976C97.5929 306.091 97.8407 307.702 100.32 309.313C103.542 311.42 109.863 312.784 116.183 312.784C121.389 312.784 126.47 311.916 130.065 309.313C132.735 307.498 134.021 304.851 133.77 301.774ZM128.701 307.579C122.257 312.04 106.888 310.677 101.559 307.331C100.692 306.835 99.8239 306.092 99.9482 305.224C100.939 299.895 114.696 298.16 120.026 297.912C120.452 297.912 120.876 297.544 120.986 297.048C121.019 296.979 121.037 296.9 121.017 296.796C121.017 296.653 120.972 296.511 120.898 296.38C118.08 286.484 115.041 276.738 113.085 269.283L108.5 251.932C106.888 246.231 105.401 240.406 103.914 234.582C103.79 234.086 103.666 233.59 103.666 233.095C103.294 230.492 104.162 228.013 105.773 225.907C107.508 223.799 109.863 222.56 112.465 222.312C117.918 221.692 122.752 225.658 123.371 231.111L125.23 248.834L127.214 266.557C128.312 276.928 131.284 300.663 131.304 300.762C131.924 303.737 131.056 305.844 128.701 307.579Z" fill="#BF4B6F"/>
<path d="M206.408 305.101C205.115 298.096 190.898 296.433 185.822 296.037C188.542 286.534 191.123 277.019 193.023 269.778L197.608 252.427C199.219 246.727 200.707 240.901 202.194 235.077C203.062 231.978 202.566 228.632 200.955 225.905C199.22 223.055 196.617 221.072 193.519 220.328C187.074 218.717 180.382 222.559 178.771 229.004C178.523 229.624 178.523 230.12 178.399 230.739L176.54 248.586L174.556 266.309C173.441 276.843 172.057 288.608 170.446 301.125C169.898 304.517 171.169 307.355 174.06 309.438C177.407 311.793 182.612 312.784 187.817 312.784C194.138 312.784 200.459 311.421 203.805 309.438C206.284 307.827 206.656 306.216 206.408 305.101ZM202.566 307.455C197.361 310.925 181.869 312.289 175.424 307.703C173.07 305.968 172.52 303.737 172.832 300.502C174.398 288.158 175.695 276.755 176.787 266.556L178.771 248.709L180.63 230.863C180.63 230.491 180.753 229.995 180.878 229.5C182.241 224.294 187.57 221.072 192.899 222.435C195.502 223.179 197.608 224.79 198.972 227.021C200.335 229.251 200.707 231.854 200.087 234.457C198.6 240.281 196.988 245.983 195.502 251.807L190.916 269.158C188.933 276.718 186.026 286.511 183.176 296.55C183.135 296.665 183.109 296.789 183.109 296.921C182.984 297.54 183.48 298.036 184.1 298.036C189.305 298.16 203.186 300.019 204.177 305.348C204.301 306.216 203.31 306.96 202.566 307.455Z" fill="#BF4B6F"/>
<path d="M90.76 180.725C90.109 194.961 59.1877 188.711 36.7355 166.564C23.0325 151.64 15.9207 130.757 15.7594 104.42C15.7965 97.7958 14.6013 86.4833 24.248 86.8364C28.6014 87.0579 31.8595 90.703 31.6373 95.0563C30.0667 120.709 35.7429 142.824 48.3262 155.958C67.5629 177.988 90.8302 167.085 90.76 180.725Z" fill="#ED7E97"/>
<path d="M29.9897 94.9192C29.2578 95.9861 28.0491 96.5108 26.8734 96.525C26.0895 96.5344 25.2636 96.2704 24.5127 95.7694C24.0785 95.4999 13.2799 87.3611 15.4177 72.9505C15.4555 72.8323 15.5312 72.5966 15.4508 72.4406C15.7385 70.3203 17.7595 68.8854 19.9973 69.2109C20.8616 69.3574 21.5322 69.7018 22.1271 70.2825C23.0387 71.0948 23.5248 72.421 23.2271 73.7574C21.622 83.6539 28.8229 89.2106 29.1396 89.4422C30.9196 90.7927 31.3396 93.1393 29.9897 94.9192Z" fill="#ED7E97"/>
<path d="M22.0893 70.4014C22.0893 70.4014 16.4232 71.8417 16.1551 82.0353L15.3806 73.0693C15.4184 72.9511 15.4941 72.7154 15.4137 72.5595C15.7014 70.4392 17.7224 69.0043 19.9602 69.3297C20.8238 69.4756 21.4944 69.8206 22.0893 70.4014Z" fill="#F490AA"/>
<path d="M26.5331 97.5872C26.0611 97.4359 25.7822 97.0868 25.8153 96.577C25.768 95.9112 26.3109 95.4344 26.9389 95.5053C27.8411 95.5337 28.6196 95.1319 29.12 94.3817C29.5826 93.749 29.8094 93.0406 29.644 92.337C29.4786 91.6334 29.1578 91.0102 28.5251 90.5476C28.2091 90.316 20.3754 84.2968 22.1689 73.81C22.3864 72.3177 21.4275 70.8403 19.8177 70.5857C19.0715 70.477 18.3679 70.6425 17.7075 71.0814C17.0464 71.5203 16.7021 72.1908 16.5933 72.937C16.4468 73.8013 16.3813 74.8209 16.2348 75.6846C16.1639 76.3125 15.621 76.7893 15.1112 76.7562C14.4832 76.6853 14.0064 76.1424 14.0395 75.6326C14.1057 74.6129 14.1341 73.7108 14.3177 72.729C14.4973 71.3548 15.2286 70.2879 16.3948 69.4898C17.4428 68.6538 18.8122 68.4418 20.1864 68.6207C22.8968 69.0974 24.8092 71.6614 24.3324 74.3712C22.8361 83.5216 29.6021 88.8095 29.8007 89.0026C30.8676 89.7346 31.5097 90.9811 31.7602 92.2324C31.973 93.6018 31.5577 94.9003 30.8257 95.9672C29.9006 97.2327 28.4981 97.9552 26.9308 97.9741C26.8073 97.5446 26.6513 97.625 26.5331 97.5872Z" fill="#BF4B6F"/>
<path d="M26.9348 98.3666C25.2494 98.3476 23.7476 97.3469 23.2189 95.7466C22.6523 94.2637 23.1811 92.6114 24.2669 91.6579C24.961 90.7092 27.8457 86.1667 28.7614 80.8639C29.1672 78.7815 31.0701 77.3087 33.3079 77.6342C35.3904 78.04 36.8631 79.9429 36.5376 82.1807C35.8435 86.3828 34.2809 90.0467 33.0162 92.3743C30.3725 97.384 29.0457 97.8702 28.3042 98.1538C27.7188 98.3571 27.3265 98.3618 26.9348 98.3666Z" fill="#ED7E97"/>
<path d="M28.0963 93.9232C27.648 95.7316 26.0949 96.9261 24.4088 96.9072C24.1346 96.9497 23.7808 96.8363 23.3891 96.841C13.9551 94.6032 10.121 88.692 8.69491 84.2023C8.65237 83.9281 8.57201 83.7728 8.52947 83.4986C7.2215 79.046 7.76441 75.3166 7.87717 74.9621C8.16483 72.8418 10.1859 71.4068 12.3055 71.6945C12.6971 71.6898 13.132 71.9585 13.4858 72.072C14.9451 72.7992 15.8654 74.3949 15.5731 76.1228C15.4691 77.2607 14.3698 86.7979 25.2576 89.3707C27.2604 89.6218 28.6575 91.7611 28.0963 93.9232Z" fill="#ED7E97"/>
<path d="M10.3992 85.7891L8.44909 83.3433C7.14112 78.8907 7.68402 75.1613 7.79679 74.8067C8.08445 72.6864 10.1055 71.2515 12.2251 71.5392C12.6168 71.5345 13.0516 71.8032 13.4055 71.9167C13.2502 71.9977 9.02508 75.8507 10.3992 85.7891Z" fill="#F490AA"/>
<path d="M23.063 99.0795C22.5343 100.732 21.019 101.809 19.4132 101.946C19.0216 101.951 18.6293 101.955 18.2754 101.842C16.2686 101.2 14.4177 100.478 12.8788 99.5948C2.85463 93.9152 1.23469 83.1172 1.26778 82.6074C0.927452 80.4169 2.47176 78.4384 4.62448 78.2162C6.815 77.8759 8.67533 79.3824 9.01566 81.5729C9.13856 82.0024 10.664 91.4694 20.5369 94.3676C22.4634 94.8538 23.7052 97.0727 23.063 99.0795Z" fill="#ED7E97"/>
<path d="M12.7984 99.4388C2.77425 93.7593 1.15431 82.9612 1.1874 82.4514C0.847069 80.2609 2.39138 78.2824 4.54409 78.0602C4.54409 78.0602 2.00446 88.4383 12.7984 99.4388Z" fill="#F490AA"/>
<path d="M16.2962 84.0328C16.0599 83.9572 15.7438 83.7263 15.7013 83.4521C13.9355 80.0245 14.4028 76.5307 14.5108 75.7845C14.7283 74.2922 13.6512 72.777 12.1596 72.5602C11.4134 72.4515 10.7098 72.6169 10.0494 73.0558C9.38834 73.4947 9.04396 74.1653 8.93524 74.9115C8.89743 75.0296 8.64286 76.6394 8.82653 78.9103C8.8738 79.5761 8.44907 80.0907 7.78326 80.1379C7.11746 80.1852 6.60292 79.7605 6.55565 79.0947C6.29095 76.6678 6.58401 74.9398 6.69678 74.5853C6.87639 73.2111 7.6077 72.1443 8.65637 71.3083C9.70436 70.4723 11.0738 70.2603 12.3298 70.4014C15.0402 70.8782 16.9526 73.4421 16.5136 76.0337C16.4806 76.5435 16.0464 79.5275 17.6096 82.3696C17.8128 82.9551 17.6238 83.5453 17.1565 83.7863C16.806 84.0652 16.5325 84.1078 16.2962 84.0328Z" fill="#BF4B6F"/>
<path d="M90.76 180.725C90.6938 184.998 87.2851 188.332 83.0924 188.422C82.9743 188.384 82.9743 188.384 82.8183 188.464C81.7987 188.398 56.1558 187.612 36.8152 166.72C23.1122 151.796 16.0004 130.913 15.8391 104.576C18.0073 125.048 27.8255 159.029 50.9996 172.819C73.9373 186.534 86.0521 173.884 86.2837 173.568C88.9233 174.672 90.8782 177.51 90.76 180.725Z" fill="#E26988"/>
<path d="M79.2537 172.36C46.2688 173.778 33.4957 148.221 30.3125 131.328C27.5494 116.781 30.6178 101.497 31.5098 97.4887C30.4489 123.174 36.1346 142.82 48.2082 155.921C59.1297 167.743 72.6949 171.302 79.2537 172.36Z" fill="#F490AA"/>
<path d="M89.664 174.389C87.9975 172.685 85.7118 171.694 83.3983 171.604C83.1242 171.646 63.8322 170.939 49.2183 155.203C36.9469 141.908 31.2396 121.396 32.7191 94.8057C33.0378 94.2406 33.4207 93.6295 33.73 92.992C35.0325 90.5463 36.6335 86.7641 37.3649 82.4438C37.8416 79.734 35.9286 77.1701 33.2188 76.6934C30.509 76.2166 27.945 78.129 27.4683 80.8395C27.2556 82.7234 26.6134 84.7303 25.7356 86.6615C25.5465 87.2524 26.2279 88.3071 26.2279 88.3071C26.8187 88.4962 27.4784 88.1302 27.785 87.5778C28.7385 85.4103 29.3003 83.2481 29.7061 81.1656C29.9607 79.5558 31.4381 78.5969 32.9305 78.8143C34.5403 79.0689 35.4991 80.5464 35.2817 82.0387C34.6253 86.1226 33.1006 89.6691 31.873 91.8785C31.4908 92.6672 31.0276 93.2999 30.6832 93.9705C30.5846 94.148 30.54 94.3405 30.536 94.5309C30.536 94.5309 30.5353 94.5323 30.5353 94.5336C29.1018 121.791 34.884 143.07 47.6706 156.789C62.8422 173.225 83.0736 173.842 83.3099 173.917C85.1135 173.974 86.728 174.62 87.9982 175.938C89.2683 177.255 89.9152 178.893 89.8585 180.697C89.7458 184.304 86.8421 187.279 83.1971 187.284C83.0411 187.364 83.0411 187.364 82.923 187.327C81.7852 187.223 56.7703 186.506 37.6282 165.808C23.7274 150.691 16.6609 127.928 16.9188 100.685L16.9134 100.687C16.8945 100.302 16.6338 99.885 16.2125 99.75C4.20104 94.9962 2.3684 82.8288 2.28331 82.2811C2.11788 81.5775 2.34476 80.8692 2.80731 80.2364C3.26986 79.6037 4.01129 79.3208 4.71491 79.1554C6.20182 78.9805 7.66578 80.0994 7.84067 81.587C7.96356 82.0171 8.43084 85.0294 10.6268 88.3341C10.8678 88.8014 11.5762 89.0276 12.0813 88.669C12.5485 88.428 12.7748 87.7196 12.4162 87.2145C10.4991 84.2589 9.95624 81.483 9.99405 81.3648C9.56932 78.6266 7.0756 76.6576 4.33744 77.083C2.9687 77.2957 1.84035 77.9757 0.9902 79.0048C0.258224 80.0717 -0.157055 81.3702 0.0556504 82.7396C0.139382 83.2784 2.08547 96.111 14.7411 101.676C14.7404 101.679 14.7391 101.681 14.7391 101.685C14.4102 129.556 21.5848 151.697 36.0002 167.239C45.7698 177.782 57.0073 183.329 66.0963 186.237C75.3034 189.182 82.2443 189.451 82.9898 189.56C83.1073 189.597 83.2633 189.517 83.3815 189.555C88.2399 189.418 92.074 185.57 92.1726 180.787C92.1807 178.317 91.3306 176.094 89.664 174.389Z" fill="#BF4B6F"/>
<path d="M26.579 187.61C26.579 206.201 41.6994 221.32 60.2891 221.32C60.6612 221.32 61.1568 221.32 61.5282 221.32C65.494 235.449 78.5075 245.859 93.9992 245.859C100.196 245.859 106.021 244.248 110.979 241.273C117.175 249.701 127.09 255.154 138.244 255.154C147.167 255.154 155.223 251.684 161.172 246.107C167.244 251.684 175.3 255.154 184.099 255.154C194.634 255.154 204.052 250.32 210.249 242.76C214.587 244.744 219.296 245.858 224.378 245.858C237.762 245.858 249.288 238.05 254.742 226.897C255.114 226.029 255.609 225.162 255.857 224.17C256.725 224.294 257.716 224.542 258.584 224.666C259.823 224.79 261.186 224.913 262.55 224.913C275.935 224.913 287.461 217.105 292.914 205.827C295.021 201.366 296.26 196.408 296.26 191.079C296.26 185.006 294.649 179.429 291.923 174.472C296.384 168.771 298.987 161.582 298.987 153.775C298.987 138.283 288.453 125.146 274.201 121.18C275.068 118.205 275.44 115.107 275.44 111.885C275.44 93.2946 260.319 78.175 241.73 78.175C237.02 78.175 232.435 79.1662 228.345 80.9016C225.742 64.79 211.862 52.3964 195.006 52.3964C183.976 52.3964 173.442 57.7255 167.245 65.9056C161.42 55.8665 150.513 49.1741 138.12 49.1741C120.522 49.1741 106.021 62.6833 104.534 79.9097C101.187 78.7942 97.5936 78.1743 93.8757 78.1743C75.2852 78.1743 60.1656 93.2946 60.1656 111.884C60.1656 112.132 60.1656 112.38 60.1656 112.752C57.5631 113.372 55.0843 114.239 52.8532 115.355C41.5751 120.808 33.8914 132.334 33.8914 145.719C33.8914 151.668 35.3783 157.245 38.105 162.078C31.0404 168.401 26.579 177.448 26.579 187.61Z" fill="#FC9DB8"/>
<path d="M42.1949 171.995C42.1949 190.585 57.3153 205.705 75.905 205.705C76.2771 205.705 76.7727 205.705 77.1441 205.705C81.1099 219.833 94.1234 230.244 109.615 230.244C115.812 230.244 121.637 228.633 126.594 225.658C132.791 234.086 142.706 239.539 153.86 239.539C162.783 239.539 170.839 236.068 176.787 230.492C182.86 236.068 190.916 239.539 199.715 239.539C210.25 239.539 219.669 234.705 225.865 227.145C230.203 229.128 234.912 230.243 239.993 230.243C245.323 230.243 250.28 229.004 254.742 226.896C256.105 226.277 257.468 225.41 258.707 224.665C264.532 220.823 268.994 215.246 271.472 208.678C273.827 209.174 276.43 209.422 278.908 209.298C283.865 209.174 288.699 207.935 292.913 205.951C295.02 201.49 296.26 196.532 296.26 191.203C296.26 185.131 294.649 179.553 291.922 174.596C296.383 168.895 298.986 161.707 298.986 153.899C298.986 138.407 288.452 125.27 274.2 121.304C275.068 118.33 275.439 115.232 275.439 112.009C275.439 93.4188 260.319 78.2991 241.729 78.2991C237.02 78.2991 232.434 79.2904 228.344 81.0258C225.741 64.9142 211.861 52.5206 195.005 52.5206C183.975 52.5206 174.184 57.8497 167.988 66.0297C167.74 66.0297 167.492 66.0297 167.244 66.0297C161.419 55.9907 150.513 49.2982 138.12 49.2982C120.521 49.2982 106.021 62.8074 104.533 80.0339C101.187 78.9183 97.5929 78.2985 93.8749 78.2985C75.2845 78.2985 60.1648 93.4188 60.1648 112.009C60.1648 112.256 60.1648 112.504 60.1648 112.876C57.5624 113.496 55.0835 114.363 52.8525 115.479C50.7457 119.94 49.5066 124.898 49.5066 130.227C49.5066 136.176 50.9935 141.753 53.7202 146.586C46.6564 152.784 42.1949 161.832 42.1949 171.995Z" fill="#FFA6BD"/>
<path d="M60.2891 112.011C71.5672 75.5738 107.136 85.7364 107.136 85.7364C107.136 85.7364 110.979 66.4025 132.295 60.5778C153.488 54.8766 166.873 73.3428 166.873 73.3428C166.873 73.3428 178.027 61.3212 196.617 63.3038C215.208 65.287 222.643 89.3301 222.643 89.3301C222.643 89.3301 238.383 83.8768 256.23 93.1723C273.953 102.467 269.739 127.75 269.739 127.75C305.308 146.341 292.419 174.102 292.295 174.474C296.757 168.773 299.36 161.584 299.36 153.776C299.36 138.285 288.825 125.148 274.573 121.182C275.441 118.207 275.812 115.109 275.812 111.887C275.812 93.2966 260.692 78.1769 242.102 78.1769C237.393 78.1769 232.807 79.1682 228.717 80.9036C226.115 64.792 212.234 52.3984 195.379 52.3984C184.348 52.3984 174.558 57.7275 168.361 65.9075C168.113 65.9075 167.865 65.9075 167.618 65.9075C161.793 55.8685 150.886 49.1761 138.493 49.1761C120.895 49.1761 106.394 62.6852 104.907 79.9117C101.561 78.7961 97.9663 78.1762 94.2484 78.1762C75.4094 78.3005 60.2891 93.4201 60.2891 112.011Z" fill="#FFB8CC"/>
<path d="M184.099 256.167C175.716 256.167 167.613 253.086 161.178 247.472C154.861 253.086 146.753 256.167 138.244 256.167C127.542 256.167 117.318 251.112 110.711 242.599C105.73 245.397 99.9732 246.871 93.9992 246.871C78.7431 246.871 65.1894 236.819 60.7699 222.332H60.2897C41.1436 222.332 25.5668 206.756 25.5668 187.61C25.5668 177.77 29.5623 168.66 36.8354 161.867C34.2452 156.995 32.8798 151.429 32.8798 145.718C32.8798 132.253 40.3643 120.268 52.4136 114.442C54.4393 113.429 56.7062 112.594 59.1533 111.96V111.884C59.1533 92.7382 74.7301 77.1614 93.8763 77.1614C97.1857 77.1614 100.47 77.6361 103.656 78.5727C105.776 61.4199 120.675 48.1612 138.121 48.1612C149.964 48.1612 161.03 54.2473 167.355 64.1398C173.937 56.2386 184.392 51.3835 195.006 51.3835C211.735 51.3835 225.887 63.1316 229.121 79.4971C233.129 77.967 237.463 77.1621 241.729 77.1621C260.876 77.1621 276.452 92.7389 276.452 111.885C276.452 114.997 276.121 117.823 275.44 120.488C289.951 124.984 300 138.528 300 153.774C300 161.41 297.625 168.586 293.125 174.568C295.878 179.783 297.273 185.334 297.273 191.078C297.273 196.313 296.115 201.421 293.829 206.259C287.962 218.393 275.977 225.926 262.55 225.926C261.118 225.926 259.699 225.795 258.483 225.672C257.989 225.603 257.503 225.507 257.017 225.41C256.863 225.379 256.707 225.347 256.553 225.317C256.385 225.759 256.19 226.173 256 226.579C255.886 226.819 255.774 227.057 255.672 227.295C249.852 239.204 237.576 246.87 224.377 246.87C219.607 246.87 214.954 245.903 210.535 243.995C203.9 251.741 194.309 256.167 184.099 256.167ZM161.172 245.094C161.417 245.094 161.663 245.183 161.857 245.361C168.023 251.023 175.922 254.142 184.099 254.142C193.957 254.142 203.203 249.759 209.465 242.118C209.757 241.764 210.25 241.648 210.67 241.839C215.032 243.834 219.644 244.846 224.377 244.846C236.807 244.846 248.369 237.626 253.831 226.452C253.921 226.239 254.042 225.98 254.166 225.718C254.451 225.111 254.721 224.537 254.874 223.925C255 223.422 255.489 223.096 256 223.168C256.45 223.233 256.932 223.328 257.414 223.424C257.861 223.514 258.308 223.604 258.726 223.663C259.853 223.776 261.211 223.902 262.549 223.902C275.194 223.902 286.479 216.808 292.001 205.388C294.154 200.83 295.247 196.013 295.247 191.08C295.247 185.466 293.829 180.043 291.035 174.961C290.839 174.606 290.875 174.169 291.124 173.849C295.605 168.123 297.974 161.181 297.974 153.777C297.974 139.099 288.086 126.097 273.929 122.158C273.668 122.085 273.447 121.911 273.316 121.674C273.184 121.437 273.152 121.158 273.228 120.898C274.034 118.134 274.427 115.186 274.427 111.887C274.427 93.8578 259.759 79.1899 241.729 79.1899C237.312 79.1899 232.82 80.1048 228.74 81.8362C228.454 81.9577 228.128 81.9415 227.854 81.7903C227.582 81.6397 227.394 81.3723 227.345 81.065C224.756 65.0412 211.156 53.4113 195.005 53.4113C184.504 53.4113 174.176 58.4338 168.051 66.5194C167.846 66.7895 167.522 66.9441 167.182 66.9184C166.844 66.8975 166.538 66.7091 166.368 66.4161C160.56 56.4068 149.737 50.189 138.12 50.189C121.295 50.189 106.986 63.2829 105.542 79.9988C105.515 80.3081 105.348 80.5876 105.089 80.7585C104.83 80.9293 104.507 80.9705 104.212 80.8726C100.861 79.7557 97.3829 79.1892 93.8743 79.1892C75.8449 79.1892 61.177 93.8571 61.177 111.886V112.754C61.177 113.223 60.8549 113.631 60.3991 113.739C57.8041 114.358 55.4178 115.206 53.3056 116.263C41.9505 121.753 34.9035 133.039 34.9035 145.721C34.9035 151.363 36.3155 156.848 38.9861 161.582C39.2198 161.996 39.1333 162.518 38.7795 162.835C31.5644 169.292 27.5912 178.091 27.5912 187.612C27.5912 205.641 42.2591 220.309 60.2884 220.309H61.5275C61.9813 220.309 62.3803 220.611 62.5026 221.048C66.4359 235.061 79.3873 244.848 93.9985 244.848C99.9232 244.848 105.614 243.312 110.456 240.406C110.906 240.138 111.484 240.253 111.793 240.674C117.994 249.108 127.882 254.142 138.243 254.142C146.547 254.142 154.443 251.027 160.478 245.369C160.674 245.186 160.922 245.094 161.172 245.094Z" fill="#BF4B6F"/>
<path d="M151.877 238.672C151.505 238.672 151.257 238.547 151.009 238.3C145.06 230.987 149.026 220.701 150.513 217.727C141.094 210.291 135.765 201.987 134.65 193.311C133.534 183.892 137.748 176.704 139.235 174.473C126.222 159.973 139.607 142.622 139.731 142.498C140.103 142.002 140.846 142.002 141.218 142.373C141.713 142.746 141.713 143.489 141.342 143.86C140.846 144.48 128.577 160.468 141.218 173.728C141.59 174.1 141.59 174.72 141.342 175.215C141.342 175.339 135.393 182.899 136.633 193.309C137.624 201.737 142.953 209.544 152.372 216.857C152.744 217.229 152.868 217.725 152.62 218.22C152.62 218.344 146.548 229.87 152.496 237.182C152.868 237.678 152.868 238.298 152.372 238.669C152.372 238.547 152.124 238.672 151.877 238.672Z" fill="#ED7E97"/>
<path d="M125.975 97.386C118.787 99.8649 111.97 99.245 110.854 96.0227C109.739 92.6761 114.572 87.9669 121.76 85.488C128.948 83.0092 135.765 83.6291 136.881 86.8514C138.12 90.0744 133.163 94.7836 125.975 97.386Z" fill="#ED7E97"/>
<path d="M117.671 99.9891C117.175 99.9891 116.555 99.9891 116.06 99.8649C112.713 99.6171 110.483 98.2537 109.863 96.2705C109.119 94.2873 110.111 91.8091 112.465 89.578C114.696 87.4712 117.794 85.6123 121.512 84.3725C129.444 81.6458 136.633 82.5135 138.12 86.4793C139.483 90.4451 134.402 95.6506 126.469 98.5008C123.371 99.4928 120.273 99.9891 117.671 99.9891ZM130.188 84.8688C127.957 84.8688 125.231 85.3645 122.257 86.3557C118.91 87.4712 115.936 89.206 114.077 91.065C112.342 92.6761 111.598 94.2873 111.97 95.5264C112.342 96.6419 113.954 97.5096 116.308 97.6332C119.035 97.881 122.381 97.3853 125.727 96.1462C132.792 93.6674 136.881 89.3295 136.014 86.9749C135.394 85.7365 133.286 84.8688 130.188 84.8688Z" fill="#BF4B6F"/>
<path d="M171.582 101.352C164.517 98.3779 159.932 93.2966 161.295 90.0743C162.658 86.852 169.474 86.6042 176.539 89.5787C183.604 92.5532 188.189 97.6345 186.826 100.857C185.463 104.078 178.646 104.326 171.582 101.352Z" fill="#ED7E97"/>
<path d="M180.753 104.575C177.903 104.575 174.556 103.831 171.086 102.468C167.492 100.981 164.518 98.8735 162.411 96.6431C160.18 94.1643 159.436 91.6861 160.18 89.7028C161.791 85.8606 169.103 85.365 176.787 88.5873C180.381 90.0742 183.355 92.1817 185.463 94.4121C187.694 96.8909 188.437 99.3691 187.694 101.352C186.95 103.459 184.348 104.575 180.753 104.575ZM167.245 88.5866C164.642 88.5866 162.783 89.3301 162.288 90.4456C161.792 91.5612 162.412 93.2959 164.023 95.0313C165.882 97.0145 168.732 98.8735 171.955 100.237C178.895 103.211 184.72 102.591 185.712 100.361C186.207 99.2455 185.587 97.5108 183.976 95.7754C182.117 93.7922 179.267 91.9332 176.045 90.5699C172.822 89.2065 169.723 88.5866 167.245 88.5866Z" fill="#BF4B6F"/>
<path d="M207.4 82.5142C207.027 82.5142 206.656 82.3899 206.532 82.0185C206.284 81.5229 198.848 71.1125 186.207 76.4416C185.711 76.6894 184.968 76.4416 184.72 75.8217C184.472 75.3261 184.72 74.5827 185.34 74.3348C199.592 68.2623 208.144 80.5316 208.267 80.6552C208.639 81.1509 208.515 81.8943 208.019 82.1421C207.895 82.39 207.647 82.5142 207.4 82.5142Z" fill="#ED7E97"/>
<path d="M196.493 222.684C195.997 222.684 195.749 222.684 195.749 222.684C195.129 222.56 194.758 222.064 194.758 221.445C194.882 220.825 195.378 220.454 195.997 220.454C196.369 220.454 204.424 221.197 207.027 212.894C207.152 212.274 207.771 212.026 208.391 212.15C209.011 212.275 209.258 212.894 209.134 213.514C206.408 221.94 198.972 222.684 196.493 222.684Z" fill="#ED7E97"/>
<path d="M119.406 233.714C112.589 233.714 108.995 228.013 108.871 227.889C108.499 227.393 108.747 226.65 109.243 226.402C109.739 226.03 110.482 226.278 110.73 226.774C110.978 227.022 115.316 233.839 123.495 230.74C124.115 230.492 124.734 230.864 124.858 231.36C125.106 231.98 124.734 232.599 124.238 232.723C122.504 233.466 120.893 233.714 119.406 233.714Z" fill="#ED7E97"/>
<path d="M234.417 186.371C233.922 186.371 233.55 186.123 233.426 185.628C233.178 185.008 233.55 184.389 234.046 184.264C234.418 184.14 241.977 181.166 240.491 172.491C240.366 171.871 240.738 171.375 241.358 171.252C241.978 171.127 242.474 171.499 242.597 172.119C244.333 182.53 234.789 186.248 234.666 186.248C234.665 186.371 234.541 186.371 234.417 186.371Z" fill="#ED7E97"/>
<path d="M85.8199 194.179C75.1616 193.559 73.674 183.521 73.674 183.397C73.5498 182.777 74.0461 182.281 74.6653 182.157C75.2852 182.033 75.7808 182.529 75.9044 183.149C75.9044 183.521 77.2677 191.576 85.9434 192.072C86.5633 192.072 87.0589 192.568 86.9347 193.188C86.9354 193.683 86.4391 194.179 85.8199 194.179Z" fill="#ED7E97"/>
<path d="M254.247 133.947C253.627 133.947 253.131 133.451 253.131 132.831C253.503 118.207 240.985 116.472 240.49 116.349C239.994 116.349 239.622 115.976 239.499 115.481C238.631 110.399 236.524 106.805 233.302 104.698C228.593 101.476 222.767 102.715 222.767 102.715C222.147 102.839 221.652 102.467 221.528 101.847C221.404 101.227 221.776 100.732 222.396 100.608C222.644 100.608 229.088 99.245 234.665 102.963C238.259 105.318 240.614 109.16 241.605 114.489C244.703 115.232 255.734 118.702 255.362 133.079C255.362 133.575 254.867 133.947 254.247 133.947Z" fill="#ED7E97"/>
<path d="M55.0836 139.896C54.5879 139.896 54.2159 139.648 54.0923 139.152C53.9681 138.905 52.1091 132.584 55.3314 126.759C57.4382 123.041 61.0326 120.314 66.2374 118.827C66.6095 115.729 69.2119 104.327 83.4646 103.459C84.0844 103.459 84.5801 103.831 84.5801 104.45C84.5801 105.07 84.208 105.566 83.5888 105.566C68.9648 106.434 68.3449 119.075 68.3449 119.571C68.3449 120.066 67.9728 120.438 67.4772 120.562C62.5202 121.925 59.1736 124.28 57.3146 127.627C54.5879 132.708 56.1991 138.285 56.1991 138.285C56.3233 138.905 56.0749 139.524 55.4556 139.648C55.3321 139.896 55.2078 139.896 55.0836 139.896Z" fill="#ED7E97"/>
<path d="M192.403 237.308C189.057 237.308 185.587 235.821 181.993 232.847C181.497 232.475 181.497 231.731 181.869 231.36C182.241 230.864 182.984 230.864 183.356 231.236C186.95 234.21 190.544 235.574 193.766 235.078C198.475 234.334 201.202 230.121 201.202 230.121C201.45 229.749 201.946 229.501 202.441 229.625C215.33 232.972 219.916 220.702 220.04 220.206C220.287 219.586 220.907 219.338 221.403 219.586C222.023 219.834 222.271 220.454 222.023 220.95C222.023 221.074 216.817 235.202 202.565 231.98C201.45 233.343 198.6 236.566 194.014 237.309C193.519 237.184 193.023 237.308 192.403 237.308Z" fill="#ED7E97"/>
<path d="M92.8837 233.714C86.9347 233.714 79.1267 231.731 75.7808 222.436C75.533 221.816 75.9051 221.197 76.4007 221.072C77.0206 220.825 77.6398 221.197 77.764 221.692C82.8453 235.945 99.4526 230.739 100.072 230.616C100.692 230.492 101.312 230.74 101.436 231.359C101.56 231.979 101.312 232.598 100.692 232.723C100.692 232.599 97.2215 233.714 92.8837 233.714Z" fill="#ED7E97"/>
<path d="M62.2723 154.148C61.7767 154.148 61.4046 153.776 61.2811 153.404C61.2811 153.157 55.8277 133.947 72.3114 128.618C72.9312 128.37 73.5505 128.742 73.6747 129.361C73.7989 129.981 73.5505 130.6 72.9312 130.725C58.5551 135.31 63.1407 152.041 63.3885 152.785C63.5128 153.405 63.2643 154.024 62.6451 154.149C62.5202 154.024 62.3959 154.148 62.2723 154.148Z" fill="#ED7E97"/>
<path d="M245.323 229.996C287.337 245.983 310.637 225.287 285.106 181.661C275.191 166.417 271.225 152.66 260.071 162.451C256.601 168.772 259.451 170.383 263.789 176.952C270.481 185.875 282.255 208.927 279.9 216.115C276.306 223.303 260.319 218.222 251.891 215.868C243.464 212.645 237.515 225.535 245.323 229.996Z" fill="#ED7E97"/>
<path d="M237.144 207.44C237.392 207.935 237.639 208.307 238.012 208.679C238.384 208.927 238.755 209.174 239.127 209.422C239.871 209.794 240.614 210.042 241.234 210.414C241.977 210.909 242.721 211.405 243.217 211.9C244.208 212.892 244.828 213.884 245.324 214.751C246.067 216.362 246.067 217.601 246.067 217.849L248.794 217.973L253.875 218.097C253.875 217.849 253.875 215.743 253.008 213.016C251.769 209.422 248.918 204.837 242.102 201.986C240.118 201.118 237.764 202.11 237.02 204.093C236.648 205.333 236.648 206.448 237.144 207.44Z" fill="#ED7E97"/>
<path d="M232.186 212.15C232.186 213.265 232.806 214.381 233.797 215.124C234.045 215.372 234.417 215.496 234.665 215.62C235.037 215.744 235.409 215.992 235.781 216.116C236.648 216.611 237.516 216.983 238.135 217.479C241.11 219.586 242.225 222.065 242.349 222.56L247.182 221.073L249.909 220.206C249.909 220.081 249.537 219.214 248.918 217.974C248.422 217.107 247.679 215.868 246.687 214.752C246.439 214.38 246.067 214.132 245.819 213.761C244.456 212.398 242.844 211.034 240.738 209.795C239.994 209.423 239.127 208.927 238.259 208.556C238.011 208.432 237.887 208.432 237.639 208.308C235.656 207.565 233.301 208.556 232.558 210.539C232.186 211.158 232.063 211.654 232.186 212.15Z" fill="#ED7E97"/>
<path d="M230.699 221.817C230.947 222.064 231.195 222.189 231.443 222.436C231.938 222.809 232.558 222.932 233.302 223.056C239.374 223.428 243.588 228.51 243.712 228.633C245.075 230.369 247.554 230.617 249.165 229.253C250.901 227.89 251.149 225.411 249.785 223.8C249.661 223.676 248.794 222.684 247.306 221.321C246.067 220.205 244.456 218.966 242.349 217.851C239.995 216.612 237.144 215.496 233.798 215.372C233.798 215.372 233.798 215.372 233.674 215.372C233.178 215.372 232.682 215.372 232.187 215.496C230.7 215.992 229.584 217.355 229.46 218.966C229.459 219.958 229.831 221.073 230.699 221.817Z" fill="#ED7E97"/>
<path d="M254.618 232.97C256.477 233.466 258.46 233.838 260.691 234.21C271.721 236.193 280.52 235.325 286.469 231.855C291.303 229.005 294.401 224.543 295.393 218.842C297.004 209.423 293.657 196.906 285.106 181.662C279.157 171.004 272.837 162.7 272.589 162.328C269.986 158.858 265.029 158.238 261.683 160.841C261.063 161.337 260.567 161.832 260.072 162.452C260.072 162.452 266.021 159.973 272.837 171.251C279.529 182.53 295.021 209.919 288.824 223.304C282.628 236.565 255.238 232.97 254.618 232.97Z" fill="#F490AA"/>
<path d="M256.106 217.231C285.85 229.377 286.841 220.081 281.141 201.863C275.44 183.644 258.832 165.55 258.832 165.55L258.708 167.657C258.832 169.144 259.328 170.507 260.319 171.747C260.319 171.747 261.806 173.73 264.037 176.953C266.144 180.175 268.994 184.513 271.721 189.346C278.041 200.872 281.14 210.663 280.149 216.116C279.901 217.355 279.405 217.851 278.662 218.347C274.324 220.825 263.914 219.338 256.106 217.231Z" fill="#E26988"/>
<path d="M237.02 204.217C237.02 204.217 246.934 204.093 253.007 213.017C251.768 209.422 248.917 204.837 242.101 201.986C240.118 201.244 237.887 202.235 237.02 204.217Z" fill="#F490AA"/>
<path d="M232.186 212.15C232.434 212.15 235.904 209.919 245.448 214.752C245.943 215 246.439 214.752 246.687 214.752C247.059 214.628 246.811 214.256 245.819 213.761C245.695 213.637 244.828 213.017 243.464 211.902C242.844 211.406 242.225 210.911 241.481 210.415C241.233 210.291 240.985 210.043 240.738 209.919C239.746 209.176 238.507 208.308 237.391 207.565C237.639 208.06 237.887 208.432 238.259 208.804C238.011 208.68 237.887 208.68 237.639 208.556C235.656 207.812 233.301 208.804 232.558 210.787C232.186 211.158 232.063 211.654 232.186 212.15Z" fill="#F490AA"/>
<path d="M230.699 221.817C230.575 218.594 234.789 217.727 238.259 217.603C240.366 217.479 242.225 217.727 242.349 217.727L235.905 216.24L232.31 215.373C230.823 215.868 229.708 217.232 229.584 218.843C229.459 219.958 229.831 221.073 230.699 221.817Z" fill="#F490AA"/>
<path d="M247.43 216.859C247.058 216.859 246.81 216.735 246.562 216.363C244.951 214.256 241.977 211.158 237.143 209.299C235.656 208.679 234.045 209.423 233.549 210.91C233.053 212.025 233.425 213.389 234.417 214.132C234.912 214.504 235.036 215.248 234.664 215.619C234.292 216.115 233.549 216.239 233.177 215.867C231.443 214.504 230.823 212.149 231.566 210.042C232.062 208.803 232.93 207.811 234.169 207.316C235.408 206.82 236.771 206.696 238.011 207.191C243.464 209.298 246.687 212.52 248.421 214.999C248.793 215.495 248.669 216.115 248.173 216.486C247.926 216.859 247.678 216.859 247.43 216.859Z" fill="#BF4B6F"/>
<path d="M285.726 181.415C279.777 170.757 273.457 162.329 273.209 161.957C270.235 157.992 264.658 157.248 260.692 160.223C256.726 163.197 255.982 168.774 258.957 172.74C259.204 173.112 265.029 180.672 270.235 190.215C276.432 201.493 279.53 211.036 278.538 216.241C278.414 217.232 278.166 217.48 277.671 217.728C273.816 220.016 263.053 218.675 254.601 216.095C254.201 212.784 252.617 204.902 242.722 200.871C241.482 200.375 240.119 200.375 238.88 200.871C237.64 201.367 236.649 202.359 236.153 203.598C235.286 205.58 235.781 207.811 237.392 209.175C237.764 209.546 238.507 209.546 238.879 209.05C239.251 208.679 239.251 207.935 238.755 207.563C237.887 206.82 237.516 205.581 238.012 204.465C238.259 203.846 238.755 203.226 239.498 202.978C240.118 202.731 240.862 202.731 241.605 202.978C250.619 206.559 252.11 214.184 252.488 217.06C252.49 217.07 252.491 217.08 252.492 217.091V217.093V217.093C252.546 217.524 252.798 217.884 253.255 217.976C259.699 220.083 273.332 222.933 278.909 219.711C280.025 218.967 280.644 218.223 280.892 216.736C282.008 210.911 278.785 200.997 272.341 189.223C267.012 179.679 261.187 171.872 260.939 171.5C258.708 168.526 259.204 164.312 262.178 162.081C265.153 159.85 269.366 160.345 271.597 163.32C271.845 163.691 278.166 171.995 283.991 182.53C292.418 197.526 295.765 209.795 294.154 218.966C293.162 224.296 290.311 228.51 285.726 231.112C279.9 234.459 271.473 235.202 260.691 233.343C253.255 232.104 247.306 229.997 247.058 229.873C246.687 229.749 246.191 229.501 245.819 229.253C245.3 228.942 244.869 228.544 244.452 228.132C244.403 228.07 239.712 222.187 233.179 221.817C232.807 221.817 232.312 221.693 231.94 221.445C231.072 220.826 230.452 219.834 230.576 218.843C230.7 218.099 230.948 217.355 231.568 216.86C232.064 216.364 232.807 216.116 233.551 216.116C236.773 216.364 239.871 217.355 242.846 219.214C243.341 219.462 243.961 219.338 244.333 218.842C244.58 218.347 244.456 217.727 243.961 217.355C240.614 215.372 237.144 214.257 233.674 214.009C232.31 213.884 231.071 214.38 230.079 215.248C228.964 216.115 228.468 217.355 228.344 218.718C228.22 220.577 229.087 222.312 230.699 223.304C231.442 223.799 232.185 224.047 233.053 224.047C238.506 224.419 242.596 229.253 242.596 229.253C242.599 229.255 242.601 229.257 242.603 229.259C243.222 229.877 243.963 230.494 244.703 230.988C245.322 231.236 245.818 231.484 246.438 231.731C246.686 231.856 252.883 233.962 260.443 235.326C264.409 235.945 268.127 236.317 271.473 236.317C277.794 236.317 282.998 235.202 286.593 233.095C291.798 229.997 295.021 225.287 296.136 219.338C297.872 209.796 294.402 197.031 285.726 181.415Z" fill="#BF4B6F"/>
<path d="M126.594 183.892C129.196 185.627 133.41 186.99 138.368 187.858C154.107 190.708 177.035 189.097 176.788 180.174C176.788 176.456 175.176 172.738 172.45 169.392C171.211 167.781 169.847 166.417 168.236 164.93C162.287 159.725 154.108 156.131 146.548 155.759C138.244 155.387 131.179 159.725 126.842 165.178C121.885 171.747 120.769 179.926 126.594 183.892Z" fill="#22213F"/>
<path d="M126.966 165.178C145.184 170.507 168.36 164.93 168.36 164.93C162.411 159.725 154.231 156.131 146.671 155.759C138.244 155.263 131.179 159.601 126.966 165.178Z" fill="white"/>
<path d="M138.367 187.859C154.107 190.709 177.035 189.098 176.787 180.175C176.787 176.457 175.176 172.739 172.45 169.393C172.45 169.268 147.663 167.657 138.367 187.859Z" fill="#EA2A21"/>
<path d="M153.24 190.213C142.334 190.213 130.932 188.107 125.85 184.76C121.76 182.033 120.397 176.952 122.256 171.251C125.106 162.699 134.525 154.024 146.547 154.644C160.427 155.387 177.655 167.285 177.778 180.174C177.778 182.033 177.035 184.636 173.192 186.743C168.732 189.098 161.172 190.213 153.24 190.213ZM145.556 156.751C135.517 156.751 126.966 164.311 124.488 171.871C122.876 176.705 123.868 180.671 127.214 182.902C135.27 188.231 162.164 190.214 172.327 184.637C174.681 183.398 175.797 181.787 175.797 180.051C175.673 169.393 160.677 157.372 146.672 156.752C146.175 156.751 145.804 156.751 145.556 156.751Z" fill="#22213F"/>
<path d="M22.0885 166.703C21.8231 166.703 21.5557 166.611 21.3383 166.425C6.32263 153.539 2.49798 131.565 2.342 130.636C2.23734 130.008 2.66072 129.414 3.28803 129.309C3.9194 129.204 4.50957 129.627 4.61491 130.255C4.65205 130.474 8.46859 152.343 22.8394 164.676C23.3222 165.09 23.3776 165.818 22.9636 166.3C22.7354 166.567 22.4133 166.703 22.0885 166.703Z" fill="#ACBFE5"/>
<path d="M18.7332 178.419C18.5286 178.419 18.3213 178.365 18.1335 178.25C8.1249 172.141 1.68432 160.212 1.41557 159.707C1.11575 159.145 1.32846 158.447 1.88959 158.147C2.4514 157.847 3.14895 158.06 3.44944 158.621C3.51223 158.74 9.87178 170.506 19.3348 176.283C19.8784 176.614 20.0499 177.324 19.7184 177.868C19.5009 178.223 19.1221 178.419 18.7332 178.419Z" fill="#ACBFE5"/>
<path d="M50.7012 96.8079C50.635 96.8079 50.5682 96.8025 50.5006 96.7903C49.8733 96.6802 49.4547 96.0833 49.5647 95.456C52.5784 78.2768 42.8034 64.3976 42.7048 64.2599C42.3341 63.7426 42.4516 63.0228 42.9688 62.6521C43.4847 62.2814 44.2052 62.3975 44.5766 62.9148C45.0047 63.5097 55.0215 77.6927 51.8356 95.8544C51.7364 96.4135 51.2502 96.8079 50.7012 96.8079Z" fill="#ACBFE5"/>
<path d="M61.8739 82.0962C61.7091 82.0962 61.5423 82.0611 61.3836 81.9862C60.8076 81.7154 60.5605 81.0287 60.8313 80.4527C65.2778 71.0031 60.8448 59.3084 60.7995 59.1916C60.5699 58.598 60.865 57.9302 61.4586 57.7006C62.0541 57.4717 62.7199 57.7654 62.9495 58.3596C63.1487 58.8749 67.7803 71.1017 62.9178 81.4345C62.7206 81.8511 62.3067 82.0962 61.8739 82.0962Z" fill="#ACBFE5"/>
<path d="M172.521 154.166C172.237 154.166 171.957 154.047 171.759 153.822C171.443 153.463 171.422 152.931 171.708 152.548C177.554 144.715 187.679 140.443 188.107 140.265C188.626 140.051 189.216 140.296 189.431 140.812C189.646 141.328 189.401 141.921 188.885 142.136C188.801 142.171 181.819 145.12 176.317 150.408C182.928 148.002 196.386 144.868 211.099 151.554C211.608 151.786 211.833 152.386 211.601 152.895C211.37 153.404 210.772 153.629 210.26 153.398C190.536 144.434 173.19 153.939 173.017 154.036C172.861 154.124 172.69 154.166 172.521 154.166Z" fill="#22213F"/>
<path d="M123.579 154.166C123.411 154.166 123.24 154.124 123.084 154.036C122.911 153.939 105.566 144.434 85.8401 153.398C85.3323 153.63 84.7306 153.404 84.499 152.895C84.2674 152.386 84.4929 151.785 85.0021 151.554C99.7139 144.868 113.17 148.002 119.783 150.408C114.28 145.12 107.298 142.17 107.215 142.136C106.699 141.921 106.455 141.328 106.669 140.812C106.884 140.295 107.477 140.051 107.992 140.265C108.421 140.444 118.546 144.715 124.392 152.548C124.678 152.931 124.656 153.462 124.34 153.822C124.143 154.047 123.864 154.166 123.579 154.166Z" fill="#22213F"/>
<path d="M141.838 124.427C141.366 124.427 140.944 124.096 140.846 123.616C138.613 112.678 139.485 104.386 143.439 98.9721C146.135 95.2812 149.519 94.0138 151.162 93.5971C150.419 84.2516 152.099 77.5916 156.16 73.7946C160.477 69.7579 165.821 70.5723 166.044 70.6087C166.597 70.6985 166.971 71.2185 166.881 71.7708C166.792 72.3225 166.276 72.6986 165.721 72.6082C165.65 72.598 161.084 71.9417 157.52 75.2957C153.828 78.7698 152.394 85.1699 153.257 94.3169C153.309 94.8686 152.908 95.3595 152.357 95.419C152.19 95.4385 148.122 95.9578 145.042 100.211C141.467 105.149 140.723 112.887 142.83 123.21C142.942 123.759 142.589 124.294 142.041 124.406C141.973 124.419 141.904 124.427 141.838 124.427Z" fill="#ED7E97"/>
</svg>
