<svg width="300" height="298" viewBox="0 0 300 298" fill="none" xmlns="http://www.w3.org/2000/svg">
<path d="M150.293 232.089C228.82 232.089 292.48 180.134 292.48 116.044C292.48 51.9548 228.82 0 150.293 0C71.7651 0 8.10593 51.9548 8.10593 116.044C8.10593 180.134 71.7651 232.089 150.293 232.089Z" fill="#E6ECFF"/>
<path d="M150.293 297.844C194.922 297.844 231.101 294.909 231.101 291.289C231.101 287.668 194.922 284.734 150.293 284.734C105.664 284.734 69.4846 287.668 69.4846 291.289C69.4846 294.909 105.664 297.844 150.293 297.844Z" fill="#C7D1EA"/>
<path d="M110.246 217.989C112.749 229.193 116.443 241.707 119.304 253.03C122.283 264.115 125.382 275.318 128.601 286.402C130.15 292.361 139.566 290.573 138.97 284.495C136.109 262.327 133.487 238.132 131.223 215.844C130.03 202.138 108.696 204.402 110.246 217.989Z" fill="#ED7E97"/>
<path d="M176.394 284.853C176.275 290.692 185.213 292.004 186.763 286.283C189.981 275.199 193.08 264.115 196.06 252.911C198.92 242.185 202.138 230.146 204.879 219.42C208.336 204.999 185.81 200.946 184.141 215.725C181.876 238.37 179.135 262.446 176.394 284.853Z" fill="#ED7E97"/>
<path d="M182.353 232.887L181.28 242.78C193.676 246.951 198.8 242.303 198.8 242.303L200.469 236.225C201.899 230.623 203.448 225.14 204.879 219.539C206.309 213.937 202.972 208.097 197.251 206.667C191.649 205.237 185.809 208.574 184.379 214.295C184.26 214.772 184.141 215.248 184.141 215.844V215.963L182.353 232.887Z" fill="#E26988"/>
<path d="M110.246 217.989C110.246 218.466 110.365 219.062 110.484 219.539C111.914 225.141 113.345 230.742 114.894 236.225C114.894 236.225 122.76 244.568 134.083 241.23L132.891 232.887L131.103 215.844C130.507 210.004 125.263 205.832 119.542 206.428C113.821 207.024 109.649 212.149 110.246 217.989Z" fill="#E26988"/>
<path d="M106.67 288.547C109.173 294.506 137.897 297.128 138.969 285.687C138.969 285.568 138.969 285.329 138.969 285.21C138.969 285.091 138.969 284.971 138.969 284.733V284.494C138.969 284.137 138.85 283.779 138.85 283.422C138.85 283.303 138.85 283.183 138.731 283.065L132.653 281.158L126.813 279.37H126.694C124.788 279.489 107.744 280.562 106.552 287.356C106.432 287.832 106.551 288.19 106.67 288.547Z" fill="#ED7E97"/>
<path d="M106.67 288.547C106.67 288.547 114.059 283.78 127.527 282.349C127.885 282.349 128.243 282.23 128.6 282.23C130.745 281.992 132.056 279.727 131.222 277.82L118.35 248.859L119.422 253.03C121.806 261.85 124.189 270.67 126.693 279.489C124.786 279.608 107.742 280.682 106.55 287.475C106.432 287.832 106.551 288.19 106.67 288.547Z" fill="#F490AA"/>
<path d="M176.394 284.852C176.394 285.448 176.512 286.045 176.632 286.64C179.374 297.725 210.004 293.911 208.931 287.356C207.739 280.681 190.696 279.489 188.789 279.37C188.67 279.37 188.67 279.37 188.67 279.37L184.379 280.681L176.752 282.946C176.752 283.065 176.752 283.184 176.633 283.423C176.514 283.78 176.514 284.138 176.514 284.376V284.495C176.394 284.614 176.394 284.734 176.394 284.852Z" fill="#ED7E97"/>
<path d="M184.141 280.681C183.664 281.873 184.498 283.065 185.809 283.065C186.405 283.065 187.001 283.065 187.597 283.065C200.946 283.303 208.812 287.236 208.812 287.236C207.62 280.562 190.577 279.37 188.67 279.25C191.173 270.431 193.557 261.611 195.941 252.791L197.013 248.62L184.141 280.681Z" fill="#F490AA"/>
<path d="M176.632 286.64C179.374 297.725 210.004 293.911 208.931 287.356C208.812 287.356 191.53 292.838 176.632 286.64Z" fill="#E26988"/>
<path d="M106.67 288.547C109.173 294.506 137.897 297.128 138.969 285.568C138.85 285.568 138.731 285.568 138.731 285.568C138.731 285.568 126.812 293.434 106.67 288.547Z" fill="#E26988"/>
<path d="M140.156 284.286C140.155 284.25 140.159 284.215 140.152 284.178C140.15 284.165 140.149 284.151 140.147 284.138C140.123 283.854 140.087 283.567 140.036 283.277C138.52 271.55 136.916 260.046 135.87 250.168L133.964 233.124L132.176 215.962C131.46 209.526 125.739 204.877 119.423 205.592C112.987 206.308 108.338 212.029 109.054 218.345C109.172 218.822 109.292 219.418 109.411 220.014C110.841 225.735 112.391 231.217 113.821 236.819L118.231 253.505C120.058 260.361 122.721 269.282 125.353 278.512C120.521 278.882 106.624 280.462 105.478 287.235C105.359 288.308 105.597 289.857 107.981 291.407C111.08 293.433 117.159 294.744 123.237 294.744C128.243 294.744 133.129 293.79 136.585 291.407C139.116 289.687 140.352 287.19 140.156 284.286ZM135.274 289.739C129.077 294.03 114.298 292.719 109.172 289.501C108.338 289.024 107.504 288.309 107.623 287.474C108.576 282.349 121.806 280.681 126.931 280.442C127.311 280.442 127.687 280.137 127.826 279.713C127.889 279.632 127.915 279.522 127.885 279.37C127.885 279.232 127.841 279.096 127.77 278.97C125.06 269.453 122.137 260.08 120.257 252.91L115.847 236.224C114.298 230.741 112.867 225.14 111.437 219.538C111.318 219.061 111.199 218.584 111.199 218.108C110.603 212.982 114.417 208.334 119.661 207.738C124.905 207.143 129.554 210.957 130.149 216.201L131.937 233.245L133.844 250.288C134.917 260.3 136.228 271.147 137.777 283.184C138.373 286.045 137.539 288.071 135.274 289.739Z" fill="#BF4B6F"/>
<path d="M210.004 287.356C208.758 280.604 195.023 279.013 190.171 278.636C192.799 269.358 195.297 260.264 197.132 253.268L201.542 236.582C203.091 231.1 204.521 225.498 205.952 219.896C207.501 213.698 203.807 207.262 197.609 205.713C194.629 204.879 191.411 205.355 188.789 206.905C186.048 208.574 184.141 211.077 183.425 214.056C183.187 214.652 183.187 215.129 183.068 215.725L181.28 232.887L179.374 249.931C178.3 260.062 177.01 271.266 175.46 283.304H175.464C174.84 286.667 176.051 289.478 178.896 291.527C182.114 293.791 187.12 294.745 192.126 294.745C198.204 294.745 204.282 293.315 207.5 291.527C209.885 289.978 210.242 288.428 210.004 287.356ZM206.309 289.62C201.304 292.958 186.405 294.269 180.208 289.859C177.943 288.19 177.109 286.045 177.705 283.304C179.254 271.265 180.446 260.3 181.518 250.169L183.544 233.245L185.332 216.082V215.963C185.332 215.606 185.452 215.129 185.571 214.652C186.286 212.15 187.835 210.123 189.981 208.812C192.126 207.501 194.629 207.144 197.132 207.74C202.138 209.051 205.237 214.175 203.926 219.3C202.495 224.902 200.946 230.384 199.516 235.986L195.106 252.672C193.235 259.806 190.446 269.464 187.752 278.943C187.656 279.1 187.597 279.286 187.597 279.49C187.582 279.565 187.577 279.635 187.58 279.7C187.596 280.193 188.028 280.562 188.551 280.562C193.556 280.681 206.905 282.469 207.859 287.594C207.977 288.428 207.024 289.143 206.309 289.62Z" fill="#BF4B6F"/>
<path d="M82.1681 200.573C104.575 193.065 113.156 177.213 116.255 165.175C118.4 157.071 118.4 149.562 118.162 145.152C118.043 142.768 117.805 141.219 117.685 141.099L116.017 141.457L102.907 143.721C102.907 143.84 102.907 143.96 103.025 144.198C103.264 146.225 103.979 153.614 101.714 161.718C101.596 162.076 101.476 162.434 101.357 162.791C100.88 164.222 100.403 165.651 99.8077 166.962C95.7551 176.14 88.247 182.576 77.4009 186.27C64.0523 190.68 40.8106 187.581 29.3688 185.317C27.9389 185.078 26.7468 184.721 25.6742 184.483C21.6216 183.529 17.5697 186.032 16.616 190.085C15.6623 194.137 18.1654 198.189 22.218 199.143C22.4564 199.143 23.4101 199.381 24.84 199.739C33.8976 201.646 63.2174 206.89 82.1681 200.573Z" fill="#ED7E97"/>
<path d="M99.6882 167.082C95.6356 176.259 88.1274 182.695 77.2814 186.39C63.9328 190.8 40.6911 187.701 29.2493 185.436C29.9646 185.675 49.8683 192.23 65.4816 191.872C81.334 191.515 98.4967 182.814 99.6882 167.082Z" fill="#F490AA"/>
<path d="M82.1681 200.573C104.575 193.065 113.156 177.213 116.255 165.175C118.4 157.071 118.4 149.562 118.162 145.152C118.043 142.768 117.805 141.219 117.685 141.099L116.017 141.457L103.025 144.317C103.264 146.343 103.979 153.733 101.714 161.837C101.596 162.195 101.476 162.553 101.357 162.91C101.357 162.91 108.866 168.512 105.171 179.119C101.477 189.845 83.4797 206.055 24.9595 199.857C33.8976 201.646 63.2174 206.89 82.1681 200.573Z" fill="#E26988"/>
<path d="M24.1247 189.489C23.8863 189.727 23.0521 190.443 21.5027 191.157C21.0258 191.396 20.549 191.634 19.9532 191.753C18.1654 192.349 15.9006 192.707 12.9213 192.707C10.4181 192.707 7.43882 192.23 3.86308 191.276C1.83679 190.68 0.645297 188.654 1.24104 186.628C1.71789 184.959 3.14779 183.886 4.69723 183.886C5.05455 183.886 5.41251 183.886 5.76983 184.005C12.5633 185.912 16.4964 185.078 18.0458 184.482C18.5227 184.244 18.88 184.125 18.9995 184.005L18.8806 184.124L24.1247 189.489Z" fill="#ED7E97"/>
<path d="M26.2699 187.582C26.2699 189.251 25.1973 190.681 23.6479 191.158C23.2905 191.277 22.9326 191.396 22.4558 191.396C22.0984 191.396 21.7405 191.396 21.502 191.277C19.9526 190.801 18.7605 189.371 18.7605 187.583C18.7605 186.51 18.5221 185.438 18.0452 184.484C17.6879 183.769 17.3299 183.173 16.9726 182.577C15.9 181.028 14.7079 180.074 14.7079 180.074C13.0396 178.763 12.8011 176.498 13.9926 174.83C15.3036 173.162 17.5684 172.923 19.2367 174.115C19.5953 174.353 26.3888 179.597 26.2699 187.582Z" fill="#ED7E97"/>
<path d="M22.4558 199.381C19.3569 200.335 16.8538 200.335 14.7086 199.262C12.5634 198.19 11.6097 196.164 11.2524 194.734C10.8951 192.707 12.2061 190.681 14.2317 190.324C16.0196 189.966 17.6879 190.919 18.4032 192.588C18.8801 192.588 19.7142 192.47 21.3826 191.754C23.2893 190.92 25.554 191.754 26.3882 193.661C27.2224 195.568 26.3882 197.832 24.4814 198.667C23.7668 198.904 23.0522 199.143 22.4558 199.381Z" fill="#ED7E97"/>
<path d="M18.4038 201.05C16.8544 201.05 15.4245 200.693 14.2323 200.097C11.8487 198.786 10.5377 196.521 10.2993 194.853C10.1804 194.018 10.1804 193.065 10.5377 192.349C10.7761 191.754 11.3719 191.515 11.8487 191.754C12.4445 191.992 12.6829 192.588 12.4445 193.065C12.3256 193.542 12.206 194.018 12.3256 194.495C12.564 195.687 13.3982 197.356 15.186 198.19C16.9739 199.144 19.1262 198.943 21.8677 198.108C22.4635 197.87 23.2912 198.428 23.4101 199.024C23.6485 199.62 23.1646 199.964 22.5682 200.082C22.7006 200.376 19.8337 201.05 18.4038 201.05Z" fill="#BF4B6F"/>
<path d="M13.0402 192.707H12.8018C10.2987 192.707 7.31928 192.23 3.74355 191.277C1.71725 190.681 0.52576 188.655 1.1215 186.628C1.59835 184.96 3.02829 183.887 4.57773 183.887C4.33995 184.364 1.12152 189.727 13.0402 192.707Z" fill="#F490AA"/>
<path d="M19.3569 174.114C18.5227 174.233 15.0665 175.425 17.0922 182.576C16.0196 181.027 14.8275 180.073 14.8275 180.073C13.1591 178.762 12.9207 176.498 14.1122 174.829C15.305 173.16 17.6885 172.922 19.3569 174.114Z" fill="#F490AA"/>
<path d="M13.3975 193.808C10.2987 193.808 6.96134 193.331 3.50514 192.258C2.31301 191.901 1.24039 191.066 0.644648 189.993C0.0489061 188.921 -0.189483 187.61 0.167834 186.299C0.883109 183.796 3.50511 182.246 6.12715 182.961C12.6822 184.749 16.258 184.034 17.8074 183.438C18.4032 183.2 18.9995 183.438 19.1184 184.034C19.3569 184.63 19.1184 185.318 18.5227 185.437C16.7348 186.152 12.6829 187.013 5.5314 184.988C4.10149 184.63 2.55206 185.465 2.1941 186.895C1.95567 187.61 2.07523 188.325 2.43254 188.921C2.78986 189.517 3.38625 189.993 4.10088 190.232C7.67662 191.186 10.8944 191.662 13.8744 191.662C14.4701 191.662 14.9469 192.139 14.9469 192.734C14.9469 193.33 14.4701 193.807 13.8744 193.807C13.7555 193.808 13.5171 193.808 13.3975 193.808Z" fill="#BF4B6F"/>
<path d="M26.0315 185.556C25.5546 185.556 24.7455 185.262 24.6266 184.785C23.4345 178.945 18.8806 175.187 18.7611 174.948C17.569 173.994 15.9006 174.233 14.9469 175.425C13.9932 176.617 14.2317 178.285 15.4238 179.239C15.4238 179.239 17.8074 181.146 19.1184 184.006C19.3568 184.483 19.1184 185.199 18.5227 185.437C18.0458 185.675 17.3306 185.437 17.0928 184.841C16.0202 182.576 14.1134 180.908 13.9939 180.908C13.0402 180.193 12.3256 179.001 12.206 177.69C12.0871 176.379 12.3249 175.187 13.1597 174.115C14.828 171.969 17.8081 171.611 19.9532 173.28C20.1917 173.399 25.2809 177.617 26.7108 184.172C26.8297 184.768 26.7467 185.318 26.151 185.438C26.151 185.556 26.0315 185.556 26.0315 185.556Z" fill="#BF4B6F"/>
<path d="M59.5228 204.625C41.1679 204.625 23.0521 200.454 21.9795 200.215C21.3838 200.096 21.0258 199.5 21.1454 198.904C21.2643 198.309 21.8606 197.951 22.4564 198.07C24.0058 198.428 59.9997 206.77 81.8108 199.501C103.741 192.112 112.084 176.617 115.302 164.818C117.328 156.952 117.447 149.8 117.09 145.152C116.971 143.96 116.852 142.887 116.852 142.292L104.099 144.556C104.337 147.178 104.814 154.21 102.669 162.076C99.2126 174.472 90.8696 182.934 77.7588 187.344C62.6224 192.469 34.8519 187.821 25.4364 185.556C24.8406 185.437 24.4827 184.841 24.6022 184.245C24.7211 183.649 25.3175 183.291 25.9132 183.411C35.2099 185.556 62.3839 190.085 77.0442 185.198C89.4397 181.027 97.3058 173.041 100.643 161.361C103.146 152.422 101.954 144.437 101.835 143.721C101.716 143.126 102.193 142.649 102.669 142.529H102.788L117.567 140.146C117.806 140.146 118.163 140.146 118.402 140.265C118.64 140.384 118.759 140.622 118.878 140.98C118.878 141.099 119.117 142.648 119.355 145.151C119.713 149.919 119.594 157.309 117.449 165.532C114.231 177.808 105.53 194.018 82.6462 201.645C75.7319 203.911 67.5084 204.625 59.5228 204.625Z" fill="#BF4B6F"/>
<path d="M37.0652 174.367C37.0652 192.245 51.6059 206.786 69.484 206.786C69.8413 206.786 70.3182 206.786 70.6761 206.786C74.4903 220.373 87.0047 230.385 101.903 230.385C107.862 230.385 113.463 228.835 118.231 225.975C124.191 234.08 133.726 239.324 144.452 239.324C153.034 239.324 160.781 235.986 166.502 230.623C172.342 235.987 180.089 239.324 188.551 239.324C198.682 239.324 207.74 234.675 213.7 227.405C217.871 229.312 222.4 230.384 227.287 230.384C240.158 230.384 251.243 222.875 256.487 212.149C256.844 211.315 257.321 210.481 257.56 209.527C258.394 209.646 259.348 209.884 260.182 210.004C261.374 210.123 262.685 210.242 263.996 210.242C276.868 210.242 287.952 202.733 293.196 191.887C295.222 187.596 296.414 182.829 296.414 177.704C296.414 171.864 294.865 166.5 292.242 161.733C296.533 156.251 299.036 149.338 299.036 141.829C299.036 126.931 288.905 114.297 275.199 110.483C276.033 107.622 276.391 104.643 276.391 101.544C276.391 83.666 261.85 69.1253 243.972 69.1253C239.443 69.1253 235.033 70.079 231.1 71.7474C228.597 56.2529 215.248 44.3349 199.039 44.3349C188.432 44.3349 179.016 49.4601 173.057 57.3262C172.818 57.3262 172.58 57.3262 172.342 57.3262C166.74 47.6722 156.251 41.236 144.333 41.236C127.408 41.236 113.463 54.2273 112.034 70.7943C108.816 69.7217 105.359 69.126 101.784 69.126C83.9058 69.126 69.3651 83.6667 69.3651 101.545C69.3651 101.783 69.3651 102.022 69.3651 102.379C66.8619 102.975 64.4784 103.809 62.3332 104.882C51.4871 110.126 44.0978 121.211 44.0978 134.082C44.0978 139.803 45.5277 145.167 48.1504 149.815C41.3562 155.775 37.0652 164.594 37.0652 174.367Z" fill="#FC9DB8"/>
<path d="M52.0829 159.35C52.0829 177.228 66.6236 191.768 84.5016 191.768C84.8589 191.768 85.3358 191.768 85.6937 191.768C89.5079 205.355 102.022 215.367 116.92 215.367C122.88 215.367 128.481 213.818 133.249 210.957C139.208 219.062 148.743 224.306 159.47 224.306C168.051 224.306 175.799 220.969 181.519 215.606C187.359 220.969 195.106 224.306 203.569 224.306C213.7 224.306 222.758 219.658 228.717 212.387C232.889 214.294 237.418 215.367 242.304 215.367C247.43 215.367 252.197 214.175 256.488 212.149C257.799 211.553 256.368 210.242 257.56 209.527C263.162 205.832 270.194 200.946 272.578 194.629C274.843 195.106 277.345 195.344 279.729 195.225C284.497 195.106 289.145 193.914 293.197 192.007C295.224 187.716 296.415 182.949 296.415 177.823C296.415 171.984 294.866 166.62 292.244 161.853C296.535 156.37 299.037 149.457 299.037 141.949C299.037 127.05 288.906 114.417 275.2 110.602C276.034 107.742 276.392 104.763 276.392 101.664C276.392 83.7856 261.851 69.2449 243.973 69.2449C239.445 69.2449 235.035 70.1986 231.102 71.8669C228.598 56.3725 215.25 44.4545 199.041 44.4545C188.433 44.4545 179.018 49.5797 173.058 57.4458C172.82 57.4458 172.581 57.4458 172.343 57.4458C166.741 47.7918 156.253 41.3556 144.334 41.3556C127.41 41.3556 113.465 54.3469 112.035 70.9139C108.817 69.8413 105.36 69.2455 101.785 69.2455C83.9071 69.2455 69.3664 83.7863 69.3664 101.664C69.3664 101.903 69.3664 102.141 69.3664 102.498C66.8633 103.094 64.4797 103.928 62.3345 105.002C60.3082 109.293 59.1167 114.06 59.1167 119.185C59.1167 124.906 60.5466 130.27 63.1693 134.918C56.3738 140.757 52.0829 149.577 52.0829 159.35Z" fill="#FFA6BD"/>
<path d="M69.484 101.664C80.3301 66.6235 114.536 76.397 114.536 76.397C114.536 76.397 118.231 57.8037 138.731 52.2023C159.111 46.7198 171.984 64.4783 171.984 64.4783C171.984 64.4783 182.71 52.9175 200.588 54.8243C218.466 56.7311 225.617 79.8532 225.617 79.8532C225.617 79.8532 240.754 74.6091 257.916 83.5478C274.96 92.4865 270.908 116.801 270.908 116.801C305.114 134.679 292.719 161.376 292.599 161.734C296.89 156.251 299.393 149.338 299.393 141.83C299.393 126.932 289.262 114.298 275.555 110.483C276.389 107.623 276.747 104.644 276.747 101.545C276.747 83.6667 262.207 69.126 244.329 69.126C239.8 69.126 235.39 70.0797 231.457 71.748C228.954 56.2536 215.605 44.3355 199.396 44.3355C188.788 44.3355 179.373 49.4607 173.414 57.3268C173.175 57.3268 172.937 57.3268 172.698 57.3268C167.096 47.6729 156.608 41.2366 144.689 41.2366C127.765 41.2366 113.82 54.2279 112.39 70.7949C109.172 69.7223 105.716 69.1266 102.141 69.1266C84.0247 69.126 69.484 83.6667 69.484 101.664Z" fill="#FFB8CC"/>
<path d="M188.551 240.288C180.487 240.288 172.694 237.324 166.508 231.923C160.433 237.324 152.636 240.288 144.452 240.288C134.161 240.288 124.329 235.425 117.977 227.237C113.186 229.929 107.648 231.348 101.903 231.348C87.2328 231.348 74.2011 221.681 69.9538 207.749H69.484C51.0764 207.749 36.1013 192.773 36.1013 174.367C36.1013 164.926 40.0408 155.947 46.9377 149.608C44.4468 144.924 43.1339 139.574 43.1339 134.082C43.1339 121.136 50.3297 109.615 61.9135 104.014C63.864 103.038 66.0464 102.234 68.4011 101.625V101.545C68.4011 83.1372 83.3769 68.162 101.784 68.162C104.971 68.162 108.131 68.6189 111.197 69.5218C113.231 53.0262 127.558 40.272 144.333 40.272C155.723 40.272 166.367 46.1273 172.446 55.645C178.775 48.0417 188.83 43.3703 199.039 43.3703C215.126 43.3703 228.734 54.6701 231.84 70.41C235.697 68.9364 239.866 68.1607 243.972 68.1607C262.38 68.1607 277.355 83.1359 277.355 101.543C277.355 104.538 277.035 107.257 276.378 109.824C290.335 114.143 300 127.167 300 141.828C300 149.174 297.715 156.073 293.387 161.824C296.035 166.84 297.378 172.179 297.378 177.703C297.378 182.735 296.265 187.646 294.068 192.299C288.428 203.963 276.907 211.205 263.996 211.205C262.631 211.205 261.263 211.08 260.086 210.962C259.612 210.895 259.146 210.803 258.682 210.709C258.528 210.679 258.374 210.648 258.222 210.618C258.06 211.044 257.874 211.441 257.691 211.831C257.581 212.065 257.472 212.296 257.373 212.527C251.777 223.977 239.975 231.347 227.287 231.347C222.699 231.347 218.224 230.416 213.972 228.58C207.591 236.03 198.369 240.288 188.551 240.288ZM166.502 229.659C166.735 229.659 166.97 229.744 167.154 229.914C173.085 235.36 180.684 238.36 188.552 238.36C198.035 238.36 206.929 234.144 212.955 226.794C213.232 226.456 213.702 226.348 214.101 226.529C218.299 228.448 222.736 229.421 227.287 229.421C239.245 229.421 250.367 222.475 255.622 211.726C255.709 211.519 255.827 211.268 255.947 211.014C256.22 210.432 256.479 209.881 256.626 209.294C256.746 208.815 257.208 208.506 257.697 208.573C258.132 208.636 258.596 208.728 259.061 208.821C259.49 208.907 259.919 208.993 260.319 209.05C261.409 209.159 262.721 209.279 263.997 209.279C276.162 209.279 287.018 202.454 292.33 191.468C294.4 187.083 295.451 182.45 295.451 177.705C295.451 172.304 294.088 167.087 291.399 162.198C291.213 161.86 291.246 161.443 291.484 161.139C295.795 155.633 298.073 148.955 298.073 141.83C298.073 127.71 288.561 115.202 274.942 111.412C274.694 111.343 274.483 111.177 274.358 110.952C274.233 110.726 274.203 110.461 274.274 110.213C275.051 107.552 275.428 104.716 275.428 101.545C275.428 84.2008 261.317 70.09 243.973 70.09C239.725 70.09 235.404 70.9704 231.479 72.6355C231.206 72.7512 230.897 72.7351 230.636 72.5918C230.377 72.4485 230.197 72.194 230.15 71.9016C227.659 56.4869 214.576 45.2989 199.041 45.2989C188.939 45.2989 179.004 50.131 173.111 57.9084C172.916 58.1655 172.605 58.3094 172.284 58.2882C171.962 58.2683 171.671 58.089 171.509 57.8101C165.922 48.1812 155.509 42.2 144.334 42.2C128.149 42.2 114.383 54.7967 112.995 70.8772C112.969 71.1715 112.811 71.4376 112.564 71.6002C112.317 71.7628 112.01 71.802 111.73 71.7088C108.507 70.6349 105.16 70.09 101.785 70.09C84.4399 70.09 70.3297 84.2008 70.3297 101.545V102.379C70.3297 102.826 70.0232 103.213 69.5888 103.317C67.094 103.91 64.7984 104.727 62.7651 105.744C51.8406 111.026 45.0625 121.882 45.0625 134.082C45.0625 139.51 46.421 144.787 48.9904 149.341C49.2147 149.738 49.1298 150.238 48.7866 150.539C41.9507 156.536 38.0299 165.221 38.0299 174.367C38.0299 191.711 52.1407 205.821 69.4847 205.821H70.6768C71.1086 205.821 71.4885 206.109 71.6048 206.525C75.3894 220.005 87.8485 229.42 101.903 229.42C107.602 229.42 113.077 227.943 117.736 225.149C118.162 224.893 118.713 225.003 119.008 225.404C124.973 233.516 134.485 238.359 144.453 238.359C152.441 238.359 160.037 235.362 165.842 229.919C166.028 229.747 166.265 229.659 166.502 229.659Z" fill="#BF4B6F"/>
<path d="M157.562 223.353C157.446 223.328 157.205 223.353 157.086 223.234C145.048 216.679 148.027 206.19 149.219 203.211C140.877 196.656 136.586 189.385 136.347 181.757C135.99 171.507 143.022 163.76 145.405 161.376C133.129 147.431 145.882 130.865 146.001 130.746C146.358 130.269 147.074 130.269 147.432 130.627C147.908 130.984 147.908 131.699 147.551 132.057C147.074 132.652 135.275 148.027 147.432 160.78C147.67 161.018 147.789 161.257 147.67 161.614C147.67 161.853 147.551 162.21 147.313 162.33C147.194 162.448 137.897 170.672 138.136 181.757C138.374 189.027 142.664 195.821 150.77 202.138C151.127 202.495 151.246 202.972 151.008 203.449C150.77 203.925 145.406 214.771 157.683 221.445C159.577 222.363 158.429 223.538 157.562 223.353Z" fill="#ED7E97"/>
<path d="M91.8908 127.289C86.4083 140.161 90.6986 154.344 101.426 158.873C112.153 163.402 125.263 156.728 130.746 143.855C136.228 130.983 131.938 116.8 121.211 112.271C110.603 107.742 97.3733 114.417 91.8908 127.289Z" fill="white"/>
<path d="M108.458 161.376C105.955 161.376 103.452 160.899 100.949 159.826C89.7456 155.059 85.2168 140.28 90.9377 126.812C96.6587 113.463 110.484 106.431 121.688 111.199C132.891 115.966 137.42 130.745 131.699 144.213C127.289 154.821 117.754 161.376 108.458 161.376ZM92.9634 127.766C87.7193 140.042 91.7713 153.629 101.902 157.92C112.033 162.211 124.667 155.774 129.911 143.498C135.155 131.222 131.103 117.635 120.972 113.344C110.723 108.935 98.2075 115.37 92.9634 127.766Z" fill="#BF4B6F"/>
<path d="M119.119 140.349C120.523 131.706 115.603 123.715 108.129 122.5C100.656 121.286 93.4586 127.308 92.0541 135.951C90.6497 144.594 95.5697 152.585 103.043 153.8C110.517 155.014 117.714 148.992 119.119 140.349Z" fill="#22213F"/>
<path d="M115.013 130.03C115.847 132.057 114.536 134.44 112.271 135.394C109.888 136.348 107.385 135.394 106.55 133.368C105.716 131.341 107.027 128.958 109.292 128.004C111.676 127.05 114.298 128.004 115.013 130.03Z" fill="white"/>
<path d="M140.995 85.216C134.082 87.5997 127.527 87.0039 126.455 83.905C125.382 80.6873 130.03 76.1578 136.943 73.7742C143.856 71.3906 150.411 71.9864 151.484 75.0852C152.556 78.1841 147.908 82.7135 140.995 85.216Z" fill="#ED7E97"/>
<path d="M132.891 87.7192C132.414 87.7192 131.818 87.7192 131.341 87.6003C128.124 87.3619 125.978 86.0508 125.382 84.1441C124.667 82.2373 125.621 79.8531 127.885 77.7079C130.03 75.6816 133.01 73.8937 136.586 72.7023C140.042 71.5101 143.617 70.9144 146.478 71.2723C149.696 71.5108 151.842 72.8218 152.437 74.7285C153.153 76.6353 152.199 79.0195 149.934 81.1647C147.789 83.191 144.809 84.9789 141.234 86.1704C138.373 87.2423 135.513 87.7192 132.891 87.7192ZM144.928 73.1784C142.545 73.1784 139.923 73.6553 137.301 74.6084C134.083 75.681 131.223 77.3499 129.435 79.1372C127.766 80.6866 127.051 82.2361 127.408 83.4282C127.766 84.5008 129.315 85.3349 131.58 85.4544C134.202 85.6929 137.42 85.216 140.638 84.0245C143.856 82.952 146.716 81.283 148.504 79.4958C150.173 77.9463 150.888 76.3969 150.53 75.2047C150.173 74.1322 148.624 73.298 146.359 73.1784C145.882 73.1784 145.405 73.1784 144.928 73.1784Z" fill="#BF4B6F"/>
<path d="M174.01 103.094C167.217 100.234 162.807 95.347 164.118 92.2481C165.429 89.1492 171.984 88.9108 178.777 91.7712C185.571 94.6317 189.981 99.5184 188.67 102.617C187.359 105.716 180.804 105.955 174.01 103.094Z" fill="#ED7E97"/>
<path d="M182.949 106.193C180.207 106.193 176.989 105.478 173.652 104.167C170.196 102.737 167.335 100.71 165.309 98.5646C163.164 96.181 162.449 93.7974 163.164 91.89C163.998 89.9832 166.143 88.9106 169.362 88.7911C172.341 88.6722 175.798 89.3868 179.135 90.9363C182.591 92.3662 185.452 94.3925 187.478 96.5383C189.623 98.9219 190.339 101.306 189.623 103.213C188.789 105.12 186.286 106.193 182.949 106.193ZM174.487 102.14C181.161 105.001 186.763 104.405 187.717 102.259C188.193 101.187 187.598 99.5177 186.048 97.8493C184.26 95.9426 181.519 94.1547 178.42 92.8437C175.322 91.5327 172.104 90.8174 169.482 90.9369C167.217 91.0558 165.549 91.6522 165.191 92.7248C164.714 93.7974 165.31 95.4664 166.859 97.1347C168.646 99.0415 171.268 100.829 174.487 102.14Z" fill="#BF4B6F"/>
<path d="M210.958 73.1785C210.6 73.1785 210.242 73.0596 210.123 72.7016C209.885 72.2248 202.734 62.2135 190.577 67.338C189.981 67.5764 189.385 67.3381 189.146 66.7423C188.908 66.2655 189.146 65.5502 189.742 65.3124C203.449 59.4726 211.672 71.2717 211.792 71.3906C212.149 71.8675 212.03 72.5827 211.553 72.8205C211.434 73.1785 211.196 73.1785 210.958 73.1785Z" fill="#ED7E97"/>
<path d="M200.469 207.977C199.993 207.977 199.754 207.977 199.754 207.977C199.158 207.858 198.8 207.382 198.8 206.785C198.919 206.19 199.396 205.832 199.993 205.832C200.35 205.832 208.097 206.547 210.6 198.561C210.719 197.965 211.315 197.727 211.911 197.846C212.507 197.965 212.745 198.561 212.626 199.157C210.004 207.263 202.853 207.977 200.469 207.977Z" fill="#ED7E97"/>
<path d="M126.336 218.585C119.781 218.585 116.325 213.103 116.205 212.983C115.848 212.506 116.086 211.791 116.562 211.553C117.039 211.195 117.754 211.434 117.992 211.91C118.231 212.148 122.402 218.703 130.268 215.724C130.864 215.486 131.46 215.843 131.579 216.32C131.818 216.916 131.46 217.512 130.984 217.631C129.315 218.347 127.766 218.585 126.336 218.585Z" fill="#ED7E97"/>
<path d="M236.94 173.056C236.463 173.056 236.106 172.818 235.986 172.341C235.748 171.745 236.105 171.149 236.582 171.03C236.939 170.911 244.21 168.051 242.78 159.707C242.661 159.111 243.018 158.634 243.614 158.515C244.21 158.396 244.687 158.753 244.806 159.349C246.474 169.36 237.297 172.936 237.178 172.936C237.178 173.056 237.059 173.056 236.94 173.056Z" fill="#ED7E97"/>
<path d="M94.036 180.565C83.7863 179.969 82.3557 170.315 82.3557 170.196C82.2368 169.6 82.713 169.123 83.3094 169.004C83.9051 168.885 84.382 169.361 84.5015 169.957C84.5015 170.315 85.8125 178.062 94.1555 178.539C94.7512 178.539 95.2281 179.015 95.1092 179.611C95.1086 180.208 94.6324 180.565 94.036 180.565Z" fill="#ED7E97"/>
<path d="M256.01 122.76C255.414 122.76 254.937 122.283 254.937 121.687C255.294 107.624 243.257 105.955 242.78 105.836C242.303 105.836 241.946 105.478 241.826 105.002C240.992 100.115 238.966 96.6586 235.867 94.6323C231.338 91.5334 225.736 92.7255 225.736 92.7255C225.14 92.8444 224.663 92.4871 224.544 91.8914C224.425 91.2956 224.782 90.8188 225.378 90.6992C225.616 90.6992 231.814 89.3882 237.177 92.9639C240.633 95.2286 242.898 98.9233 243.852 104.048C246.831 104.764 257.439 108.101 257.082 121.926C257.082 122.283 256.606 122.76 256.01 122.76Z" fill="#ED7E97"/>
<path d="M64.4783 128.361C64.0015 128.361 63.6442 128.123 63.5247 127.646C63.4058 127.408 61.6179 121.329 64.7168 115.727C66.7431 112.152 70.1993 109.53 75.2049 108.1C75.5622 105.12 78.0654 94.1548 91.7719 93.3206C92.3677 93.3206 92.8445 93.6779 92.8445 94.2743C92.8445 94.8706 92.4872 95.3469 91.8908 95.3469C77.827 96.181 77.2312 108.338 77.2312 108.815C77.2312 109.292 76.8739 109.649 76.397 109.769C71.6298 111.08 68.4114 113.344 66.6235 116.562C64.0015 121.449 65.5509 126.812 65.5509 126.812C65.6698 127.408 65.4321 128.004 64.8357 128.123C64.7168 128.361 64.5972 128.361 64.4783 128.361Z" fill="#ED7E97"/>
<path d="M196.536 222.041C193.319 222.041 189.981 220.611 186.525 217.75C186.048 217.393 186.048 216.678 186.406 216.32C186.763 215.843 187.479 215.843 187.837 216.201C191.293 219.061 194.75 220.372 197.848 219.895C202.377 219.18 204.999 215.128 205.118 215.128C205.357 214.771 205.834 214.532 206.31 214.651C218.706 217.869 223.116 206.07 223.235 205.593C223.473 204.997 224.069 204.759 224.546 204.997C225.142 205.236 225.38 205.832 225.142 206.308C225.142 206.427 220.136 220.015 206.429 216.916C205.357 218.227 202.615 221.326 198.205 222.041C197.609 222.041 197.132 222.041 196.536 222.041Z" fill="#ED7E97"/>
<path d="M100.83 218.585C95.1086 218.585 87.5998 216.678 84.382 207.739C84.1436 207.143 84.5009 206.547 84.9778 206.428C85.5735 206.19 86.1699 206.547 86.2888 207.024C91.1756 220.73 107.146 215.724 107.743 215.605C108.338 215.367 108.935 215.724 109.054 216.32C109.172 216.916 108.935 217.512 108.338 217.631C108.338 217.512 105.002 218.585 100.83 218.585Z" fill="#ED7E97"/>
<path d="M67.9346 147.908C67.4577 147.908 67.1004 147.55 66.9809 147.192C66.9809 146.954 61.7368 128.48 77.5885 123.355C78.1843 123.117 78.7806 123.474 78.8995 124.07C79.0184 124.667 78.7807 125.262 78.1843 125.381C64.3588 129.791 68.7687 145.881 69.0071 146.597C69.126 147.192 68.8883 147.789 68.2919 147.908C68.173 147.908 68.0535 147.908 67.9346 147.908Z" fill="#ED7E97"/>
<path d="M146.835 113.702C146.358 113.702 146.001 113.463 145.882 112.986C139.565 93.7974 153.152 84.7392 156.37 82.9513C155.774 75.0852 157.323 69.2448 160.78 65.6697C164.474 61.7366 169.123 61.7366 169.957 61.7366C170.552 61.7366 171.029 62.2135 171.029 62.8092C171.029 63.4049 170.552 63.8818 169.957 63.8818C169.48 63.8818 165.428 63.8818 162.329 67.2191C159.23 70.5564 157.919 76.0389 158.515 83.6666C158.515 84.1434 158.276 84.5008 157.919 84.7392C157.204 85.0965 141.352 92.8437 147.908 112.629C148.146 113.224 147.435 113.702 146.835 113.702Z" fill="#ED7E97"/>
<path d="M201.304 143.022C203.807 140.995 207.62 143.022 207.263 146.239C207.263 146.239 207.263 146.239 207.263 146.358C205.356 162.448 194.51 176.512 174.129 180.684C156.013 184.378 139.327 174.367 135.513 165.666C134.321 163.044 134.321 160.541 135.87 158.515C140.876 151.96 154.94 161.137 174.606 156.608C186.406 153.867 195.702 147.669 201.304 143.022Z" fill="#22213F"/>
<path d="M207.263 146.001C207.263 146.12 207.263 146.12 207.263 146.239C178.539 178.539 135.99 165.667 135.513 165.547C134.321 162.925 134.321 160.422 135.87 158.396C140.876 151.841 154.94 161.018 174.606 156.489C186.405 153.748 195.821 147.431 201.422 142.783C203.926 140.876 207.62 142.783 207.263 146.001Z" fill="white"/>
<path d="M166.382 182.472C152.795 182.472 140.4 175.678 135.633 168.05C133.249 164.236 133.011 160.542 135.037 157.801C137.897 153.987 143.141 154.702 149.935 155.656C156.49 156.609 164.833 157.682 174.368 155.537C185.691 152.915 194.748 146.955 200.351 142.427C201.9 141.116 204.045 140.996 205.833 141.95C207.621 142.903 208.575 144.81 208.336 146.836C206.071 164.833 193.438 177.825 174.487 181.639C171.745 182.114 169.004 182.472 166.382 182.472ZM142.307 156.966C139.803 156.966 137.897 157.443 136.824 158.992C134.798 161.614 136.347 165.071 137.539 166.858C142.068 174.01 156.847 183.067 174.13 179.492C192.126 175.798 204.165 163.522 206.31 146.478C206.429 145.047 205.714 144.094 204.879 143.736C204.045 143.259 202.853 143.141 201.78 143.975C196.059 148.623 186.644 154.821 174.964 157.443C164.952 159.708 156.49 158.515 149.696 157.562C146.835 157.324 144.333 156.966 142.307 156.966Z" fill="#BF4B6F"/>
<path d="M241.35 212.984C268.405 200.827 275.08 180.327 273.649 159.827C273.292 155.298 269.001 152.08 264.472 153.272C264.353 153.272 264.353 153.272 264.234 153.272C260.777 154.106 258.394 157.325 258.632 160.9C261.611 202.614 217.393 206.786 183.664 200.946C179.611 200.231 175.678 203.091 175.083 207.144C174.367 211.196 177.228 215.13 181.28 215.725C192.841 217.394 220.969 220.85 241.35 212.984Z" fill="#ED7E97"/>
<path d="M256.606 178.3C253.15 187.716 246.118 194.748 235.629 199.039C222.638 204.402 199.277 202.972 187.597 201.422C188.312 201.541 208.693 206.786 224.187 205.355C239.919 203.925 256.368 194.033 256.606 178.3Z" fill="#F490AA"/>
<path d="M241.35 212.984C268.286 200.946 274.96 180.565 273.649 160.184C273.292 155.536 268.762 152.318 264.234 153.629C264.115 153.629 264.115 153.629 263.995 153.748C258.155 155.298 258.751 161.137 258.751 161.137C277.106 188.074 247.667 218.942 184.141 216.32C193.318 217.394 222.995 220.611 241.35 212.984Z" fill="#E26988"/>
<path d="M182.71 205.952C182.472 206.19 181.757 207.024 180.207 207.74C179.73 207.978 179.253 208.217 178.658 208.455C176.989 209.17 174.605 209.766 171.626 209.885C169.123 210.004 166.024 209.766 162.449 209.051C160.422 208.574 159.111 206.667 159.469 204.641C159.827 202.972 161.138 201.78 162.807 201.661C163.164 201.661 163.522 201.661 163.999 201.661C170.912 203.092 174.725 202.019 176.275 201.185C176.752 200.946 177.109 200.708 177.109 200.708L176.99 200.827L182.71 205.952Z" fill="#ED7E97"/>
<path d="M184.736 203.925C184.855 205.594 183.902 207.024 182.353 207.62C181.996 207.739 181.638 207.859 181.161 207.859C180.803 207.859 180.445 207.859 180.207 207.74C178.539 207.382 177.347 206.071 177.228 204.283C177.109 203.211 176.87 202.138 176.394 201.304C176.036 200.589 175.559 199.993 175.201 199.516C174.009 198.086 172.818 197.252 172.818 197.252C171.03 196.059 170.673 193.795 171.745 192.007C172.937 190.339 175.201 189.862 176.989 190.935C177.109 191.173 184.26 195.94 184.736 203.925Z" fill="#ED7E97"/>
<path d="M181.757 215.844C178.778 217.036 176.155 217.155 174.01 216.201C171.865 215.248 170.673 213.341 170.315 212.03C169.838 210.004 171.031 207.977 173.057 207.501C174.845 207.024 176.513 207.859 177.348 209.408C177.825 209.408 178.659 209.17 180.208 208.335C181.996 207.382 184.261 208.097 185.334 209.885C186.287 211.673 185.572 213.937 183.784 215.01C182.949 215.367 182.353 215.606 181.757 215.844Z" fill="#ED7E97"/>
<path d="M177.109 217.989C175.798 217.989 174.725 217.751 173.653 217.274C171.149 216.202 169.72 214.056 169.362 212.387C169.123 211.553 169.123 210.6 169.362 209.765C169.481 209.17 170.077 208.931 170.673 209.05C171.268 209.169 171.507 209.765 171.388 210.361C171.269 210.838 171.269 211.315 171.388 211.792C171.745 212.984 172.699 214.533 174.487 215.367C176.394 216.202 178.321 216.028 181.062 214.955C181.062 214.955 182.592 215.01 182.711 215.606C182.949 216.202 182.711 216.798 182.115 216.917C180.327 217.632 178.658 217.989 177.109 217.989Z" fill="#BF4B6F"/>
<path d="M171.865 209.885H171.626C169.123 210.004 166.024 209.766 162.449 209.051C160.423 208.574 159.112 206.667 159.47 204.641C159.827 202.972 161.138 201.78 162.807 201.661C162.568 202.256 159.708 207.859 171.865 209.885Z" fill="#F490AA"/>
<path d="M176.87 190.934C176.036 191.173 172.579 192.484 175.202 199.516C174.01 198.085 172.818 197.251 172.818 197.251C171.031 196.059 170.673 193.795 171.746 192.007C172.818 190.339 175.083 189.862 176.87 190.934Z" fill="#F490AA"/>
<path d="M170.196 211.076C167.693 211.076 165.071 210.838 162.21 210.242C160.899 210.004 159.827 209.288 159.111 208.216C158.396 207.143 158.158 205.832 158.396 204.64C158.634 203.329 159.35 202.257 160.422 201.541C161.495 200.826 162.806 200.588 163.998 200.826C170.673 202.137 174.129 201.183 175.678 200.469C176.155 200.23 176.87 200.469 177.109 200.946C177.347 201.422 177.347 202.138 176.87 202.376C175.083 203.21 170.911 204.402 163.641 202.853C162.925 202.734 162.21 202.853 161.614 203.21C161.019 203.568 160.542 204.164 160.422 204.879C160.303 205.594 160.422 206.309 160.78 206.905C161.137 207.501 161.733 207.977 162.448 208.097C166.024 208.812 169.361 209.051 172.34 208.812C172.936 208.693 173.413 209.17 173.533 209.766C173.533 210.362 173.175 210.839 172.579 210.958C171.984 210.957 171.15 211.076 170.196 211.076Z" fill="#BF4B6F"/>
<path d="M176.394 202.376C176.036 202.376 175.678 202.138 175.44 201.78C174.248 199.516 172.103 198.086 172.103 198.086C169.957 196.655 169.361 193.676 170.792 191.411C171.507 190.338 172.579 189.623 173.89 189.385C175.201 189.146 176.394 189.385 177.466 190.1C177.705 190.219 182.689 194.153 184.477 200.708C184.596 201.303 185.094 201.78 184.498 201.899C183.902 202.018 182.829 201.806 182.71 201.21C181.042 195.489 176.512 192.007 176.274 191.887C175.678 191.53 174.963 191.291 174.248 191.53C173.532 191.649 172.937 192.126 172.579 192.722C171.745 193.914 172.103 195.701 173.295 196.417C173.295 196.417 175.798 198.204 177.347 200.945C177.586 201.422 177.466 202.138 176.87 202.376C176.632 202.376 176.513 202.376 176.394 202.376Z" fill="#BF4B6F"/>
<path d="M206.071 219.3C197.251 219.3 188.67 218.347 181.28 216.917C180.685 216.798 180.327 216.201 180.446 215.725C180.565 215.129 181.161 214.771 181.638 214.89C204.403 219.539 238.013 218.705 257.679 201.422C268.882 191.53 273.888 177.704 272.696 160.065C272.577 158.158 271.624 156.489 270.074 155.417C268.525 154.344 266.618 153.986 264.71 154.344C261.612 155.059 259.585 157.92 259.824 161.019C260.896 174.01 257.202 184.26 248.978 191.649C233.603 205.475 205.117 206.071 183.544 202.019C182.949 201.9 182.591 201.303 182.71 200.827C182.829 200.231 183.425 199.873 183.902 199.992C204.998 203.925 232.769 203.449 247.548 190.1C255.295 183.187 258.632 173.414 257.679 161.138C257.321 156.967 260.062 153.272 264.115 152.199C266.618 151.604 269.12 152.081 271.147 153.51C273.173 154.941 274.484 157.205 274.603 159.708C275.914 177.944 270.67 192.484 258.99 202.734C245.283 215.009 225.021 219.3 206.071 219.3Z" fill="#BF4B6F"/>
<path d="M35.2748 86.5271L35.9837 90.9826C36.2877 93.2101 38.1102 94.9317 40.3377 95.2357L44.5908 95.843L40.2368 96.6528C38.2118 97.0576 36.5917 98.6778 36.1868 100.703L35.377 105.057L34.5673 100.804C34.1624 98.7787 32.6432 97.1585 30.6181 96.7536L26.1626 95.8423L30.3142 95.336C32.5416 95.032 34.2633 93.311 34.6682 91.0829L35.2748 86.5271Z" fill="#F9C710"/>
<path d="M35.2748 105.867C34.8699 105.867 34.465 105.563 34.3635 105.158L33.5537 100.905C33.2498 99.1836 31.9336 97.8674 30.3135 97.5634L25.8579 96.6521C25.4531 96.5506 25.1491 96.1457 25.1491 95.7409C25.1491 95.336 25.4531 94.9311 25.9588 94.8296L30.1104 94.3232C31.933 94.1207 33.3507 92.703 33.6547 90.8805L34.3635 86.324C34.465 85.9192 34.8699 85.5143 35.2748 85.5143C35.6797 85.5143 36.0845 85.8183 36.186 86.324L36.8949 90.7796C37.1989 92.6021 38.6166 94.0198 40.4392 94.3238L44.6922 94.9311C45.0971 95.0327 45.502 95.336 45.502 95.8424C45.502 96.2473 45.198 96.6522 44.7931 96.7537L40.4392 97.5634C38.7175 97.8674 37.4013 99.1836 37.0974 100.905L36.2876 105.259C36.0852 105.564 35.7812 105.867 35.2748 105.867ZM31.3263 95.8431C33.2504 96.4504 34.769 97.9696 35.2754 99.8931C35.7818 97.969 37.3004 96.3488 39.123 95.7415C37.3004 95.1342 35.7818 93.7165 35.1739 91.7924C34.6674 93.8174 33.1489 95.3366 31.3263 95.8431Z" fill="#A55A0F"/>
<path d="M15.2927 112.967L15.7991 116.105C16.0016 117.624 17.3177 118.941 18.837 119.143L21.7732 119.548L18.6345 120.155C17.2168 120.459 16.0016 121.573 15.7991 122.991L15.2927 126.029L14.7863 122.991C14.4823 121.573 13.3686 120.459 11.9509 120.155L8.81219 119.548L11.7485 119.143C13.2671 118.941 14.5839 117.726 14.7863 116.207L15.2927 112.967Z" fill="#F9C710"/>
<path d="M15.2928 126.839C14.8879 126.839 14.483 126.535 14.3815 126.13L13.8751 123.092C13.6726 121.979 12.8622 121.168 11.7485 120.966L8.60981 120.358C8.20493 120.257 7.90094 119.852 7.90094 119.447C7.90094 119.042 8.20492 118.637 8.71069 118.536L11.647 118.131C12.7607 118.029 13.7735 117.118 13.976 115.904L14.4824 112.765C14.5839 112.36 14.9888 111.955 15.3937 111.955C15.7985 111.955 16.2034 112.259 16.305 112.765L16.8114 115.904C17.0138 117.017 17.9251 118.03 19.0388 118.131L21.9751 118.536C22.38 118.637 22.7849 118.941 22.7849 119.447C22.7849 119.954 22.4809 120.257 22.076 120.358L18.9373 120.966C17.8236 121.168 17.0132 121.979 16.8107 123.092L16.3043 126.13C16.1031 126.535 15.6976 126.839 15.2928 126.839ZM13.2678 119.549C14.179 119.954 14.8879 120.764 15.2928 121.675C15.6976 120.764 16.4065 120.055 17.3178 119.549C16.4065 119.144 15.6976 118.435 15.2928 117.524C14.8879 118.333 14.0775 119.143 13.2678 119.549Z" fill="#A55A0F"/>
<path d="M26.6619 142.492L27.1683 145.631C27.3708 147.15 28.6869 148.466 30.2061 148.669L33.1425 149.074L30.0037 149.681C28.586 149.985 27.3708 151.099 27.1683 152.516L26.6619 155.554L26.1555 152.516C25.8515 151.099 24.7378 149.985 23.3201 149.681L20.1814 149.074L23.1177 148.669C24.6363 148.466 25.9531 147.251 26.1555 145.732L26.6619 142.492Z" fill="#F9C710"/>
<path d="M26.6619 156.364C26.257 156.364 25.8521 156.06 25.7506 155.655L25.2442 152.617C25.0417 151.503 24.2314 150.693 23.1177 150.491L19.9789 149.883C19.574 149.782 19.2701 149.377 19.2701 148.972C19.2701 148.567 19.574 148.162 20.0798 148.061L23.0161 147.656C24.1298 147.554 25.1427 146.643 25.3451 145.428L25.8515 142.29C25.953 141.885 26.3579 141.48 26.7628 141.48C27.1677 141.48 27.5725 141.784 27.6741 142.29L28.1805 145.428C28.3829 146.542 29.2942 147.555 30.4079 147.656L33.3442 148.061C33.7491 148.162 34.154 148.466 34.154 148.972C34.154 149.478 33.85 149.782 33.4451 149.883L30.3064 150.491C29.1927 150.693 28.3823 151.503 28.1798 152.617L27.6734 155.655C27.4716 156.06 27.0667 156.364 26.6619 156.364ZM24.6369 149.073C25.5482 149.478 26.257 150.289 26.6619 151.2C27.0667 150.289 27.7756 149.58 28.6869 149.073C27.7756 148.669 27.0667 147.96 26.6619 147.048C26.257 147.858 25.4466 148.669 24.6369 149.073Z" fill="#A55A0F"/>
<path d="M180.827 140.965C180.63 140.965 180.436 140.893 180.283 140.754C180.01 140.504 179.944 140.1 180.121 139.776C184.035 132.619 194.169 126.362 194.599 126.099C194.977 125.868 195.472 125.987 195.704 126.365C195.936 126.743 195.817 127.238 195.438 127.469C195.35 127.523 187.796 132.188 183.353 137.829C189.114 134.927 202.561 129.669 217.648 134.219C218.072 134.347 218.313 134.796 218.185 135.22C218.057 135.645 217.612 135.886 217.184 135.758C197.944 129.954 181.435 140.72 181.271 140.83C181.136 140.92 180.98 140.965 180.827 140.965Z" fill="#22213F"/>
<path d="M180.827 141.206C180.566 141.206 180.315 141.108 180.121 140.932C179.764 140.605 179.678 140.082 179.91 139.66C183.856 132.443 194.042 126.157 194.474 125.893C194.962 125.592 195.607 125.747 195.909 126.239C196.21 126.73 196.055 127.374 195.563 127.674C195.493 127.718 188.696 131.923 184.242 137.126C190.093 134.357 203.214 129.614 217.718 133.988C217.984 134.068 218.204 134.248 218.336 134.494C218.468 134.74 218.496 135.023 218.416 135.29C218.25 135.839 217.667 136.153 217.115 135.988C197.904 130.191 181.568 140.92 181.406 141.029C181.233 141.145 181.033 141.206 180.827 141.206ZM195.017 126.222C194.918 126.222 194.817 126.249 194.726 126.304C194.299 126.566 184.218 132.786 180.333 139.891C180.208 140.119 180.255 140.4 180.447 140.576C180.633 140.745 180.928 140.768 181.138 140.629C181.302 140.519 197.831 129.665 217.254 135.526C217.551 135.614 217.865 135.447 217.954 135.15C217.998 135.006 217.983 134.854 217.912 134.722C217.841 134.589 217.723 134.493 217.579 134.449C202.349 129.856 188.646 135.433 183.462 138.044L182.493 138.531L183.164 137.679C187.617 132.025 195.236 127.311 195.312 127.264C195.577 127.102 195.66 126.755 195.498 126.491C195.392 126.318 195.207 126.222 195.017 126.222Z" fill="#22213F"/>
</svg>
