<svg width="300" height="319" viewBox="0 0 300 319" fill="none" xmlns="http://www.w3.org/2000/svg">
<path d="M150 289.14C229.844 289.14 294.571 224.414 294.571 144.57C294.571 64.7263 229.844 0 150 0C70.1566 0 5.4303 64.7263 5.4303 144.57C5.4303 224.414 70.1566 289.14 150 289.14Z" fill="#E6ECFF"/>
<path d="M150 318.692C197.252 318.692 235.558 315.585 235.558 311.752C235.558 307.919 197.252 304.811 150 304.811C102.749 304.811 64.4433 307.919 64.4433 311.752C64.4433 315.585 102.749 318.692 150 318.692Z" fill="#C7D1EA"/>
<path d="M195.626 232.757C195.626 233.261 195.5 233.892 195.374 234.397C193.86 240.328 192.345 246.259 190.705 252.063C190.705 252.063 182.376 260.897 170.388 257.364L171.65 248.53L173.543 230.485C174.174 224.302 179.726 219.885 185.784 220.515C191.841 221.146 196.257 226.574 195.626 232.757Z" fill="#E26988"/>
<path d="M178.339 297.871H178.293C180.952 288.537 183.535 279.158 186.036 269.857C189.064 257.869 192.976 244.618 195.626 232.757C197.393 218.371 174.679 216.1 173.417 230.485C171.02 254.083 168.244 279.699 165.215 303.17C165.115 304.185 165.28 305.087 165.634 305.861C168.956 316.308 196.999 313.509 199.538 307.461C199.665 307.083 199.665 306.704 199.665 306.325C198.403 299.133 180.358 297.997 178.339 297.871Z" fill="#ED7E97"/>
<path d="M199.538 307.461C199.412 307.461 199.412 307.461 199.538 307.461C199.538 307.461 191.715 302.414 177.455 300.899C177.077 300.899 176.698 300.773 176.319 300.773C174.048 300.521 172.66 298.123 173.544 296.104L187.172 265.44L186.037 269.857C183.513 279.195 180.989 288.533 178.339 297.871C180.358 297.997 198.403 299.133 199.665 306.325C199.665 306.704 199.665 307.083 199.538 307.461Z" fill="#F490AA"/>
<path d="M199.412 307.461C196.763 313.77 166.351 316.547 165.215 304.306C165.341 304.306 165.467 304.306 165.467 304.306C165.467 304.306 178.212 312.761 199.412 307.461Z" fill="#E26988"/>
<path d="M119.408 248.657L120.543 259.131C107.42 263.547 101.994 258.626 101.994 258.626L100.227 252.19C98.7124 246.259 97.0716 240.455 95.5575 234.524C94.0434 228.593 97.5767 222.41 103.634 220.895C109.565 219.381 115.748 222.914 117.262 228.971C117.389 229.476 117.515 229.981 117.515 230.611V230.738L119.408 248.657Z" fill="#E26988"/>
<path d="M125.717 303.549C125.717 303.484 125.716 303.451 125.699 303.401C122.678 279.72 119.907 254.412 117.515 230.359C115.748 214.711 91.8987 219.002 95.5581 234.271C98.4602 245.628 101.867 258.373 104.896 269.731C107.395 279.128 109.977 288.445 112.634 297.745C112.621 297.745 112.611 297.745 112.593 297.745C110.575 297.872 92.5293 299.133 91.2675 306.2C90.1318 313.14 122.562 317.178 125.465 305.443C125.495 305.294 125.524 305.146 125.552 304.997C125.665 304.548 125.728 304.067 125.717 303.549Z" fill="#ED7E97"/>
<path d="M117.388 299.259C117.893 300.521 117.01 301.782 115.622 301.782C114.99 301.782 114.36 301.782 113.728 301.782C99.5952 302.035 91.2668 306.199 91.2668 306.199C92.5287 299.133 110.574 297.871 112.593 297.745C109.943 288.407 107.419 279.069 104.895 269.731L103.759 265.314L117.388 299.259Z" fill="#F490AA"/>
<path d="M125.465 305.443C122.562 317.178 90.1318 313.14 91.2675 306.2C91.2668 306.325 109.691 312.13 125.465 305.443Z" fill="#E26988"/>
<path d="M182.052 313.871C181.41 313.871 180.774 313.857 180.148 313.829C171.771 313.453 166.141 310.683 164.682 306.226C164.253 305.258 164.092 304.197 164.202 303.07C166.79 283.013 169.472 259.246 172.405 230.382C172.79 225.982 175.102 222.602 178.912 220.88C183.17 218.955 188.55 219.512 192.297 222.269C195.634 224.724 197.174 228.493 196.635 232.879C196.63 232.913 196.625 232.945 196.618 232.978C194.97 240.356 192.816 248.34 190.733 256.06C189.473 260.731 188.17 265.561 187.021 270.106C184.493 279.509 182.004 288.525 179.614 296.941C186.389 297.47 199.476 299.371 200.665 306.149C200.676 306.207 200.68 306.266 200.68 306.325C200.68 306.757 200.68 307.247 200.501 307.782C200.493 307.807 200.484 307.831 200.474 307.854C198.854 311.719 190.026 313.871 182.052 313.871ZM184.314 221.792C182.728 221.792 181.153 222.101 179.75 222.735C176.64 224.14 174.75 226.925 174.43 230.574C171.495 259.471 168.811 283.256 166.223 303.302C166.149 304.058 166.261 304.788 166.558 305.439C166.575 305.476 166.59 305.514 166.602 305.554C168.243 310.711 176.685 311.639 180.238 311.799C189.25 312.206 197.459 309.615 198.583 307.106C198.64 306.913 198.646 306.682 198.647 306.42C197.709 301.75 187.134 299.445 178.306 298.889H178.293C177.973 298.889 177.673 298.739 177.481 298.484C177.289 298.229 177.227 297.9 177.315 297.593C179.807 288.844 182.41 279.424 185.053 269.594C186.201 265.047 187.507 260.21 188.768 255.532C190.841 247.85 192.985 239.906 194.621 232.585C195.05 228.98 193.797 225.9 191.091 223.91C189.201 222.518 186.746 221.792 184.314 221.792Z" fill="#BF4B6F"/>
<path d="M109.954 314.209C103.03 314.209 95.8714 312.414 92.5226 310.047C90.363 308.522 90.1026 307.024 90.264 306.035C91.4953 299.139 105.409 297.291 111.312 296.817C108.646 287.464 106.223 278.677 103.913 269.992L103.368 267.947C100.525 257.288 97.3028 245.208 94.5723 234.522C93.4406 229.8 94.6496 225.609 97.9727 222.706C101.557 219.576 106.934 218.626 111.353 220.34C115.436 221.925 117.983 225.442 118.526 230.245C121.188 257.017 123.94 281.582 126.707 303.271C126.71 303.297 126.712 303.322 126.714 303.349C126.897 306.966 125.192 309.87 121.784 311.746C118.615 313.492 114.331 314.209 109.954 314.209ZM106.778 221.543C104.07 221.543 101.315 222.489 99.3111 224.239C96.5854 226.62 95.6036 230.098 96.5468 234.034C99.2711 244.694 102.492 256.769 105.333 267.423L105.878 269.468C108.284 278.515 110.814 287.674 113.611 297.466C113.699 297.773 113.638 298.103 113.445 298.358C113.252 298.613 112.952 298.762 112.633 298.762C105.508 299.206 93.1721 301.312 92.2669 306.378C92.1395 307.156 93.1063 307.971 93.6935 308.386C98.6331 311.874 113.594 313.933 120.802 309.964C123.506 308.476 124.812 306.298 124.682 303.489C121.915 281.791 119.162 257.221 116.501 230.46C116.049 226.46 113.958 223.534 110.615 222.237C109.411 221.769 108.101 221.543 106.778 221.543Z" fill="#BF4B6F"/>
<path d="M284.338 186.571C284.338 205.499 268.943 220.895 250.014 220.895C249.636 220.895 249.131 220.895 248.752 220.895C244.714 235.28 231.464 245.88 215.691 245.88C209.382 245.88 203.45 244.24 198.403 241.211C192.094 249.792 181.998 255.344 170.641 255.344C161.555 255.344 153.353 251.811 147.296 246.133C141.113 251.811 132.91 255.344 123.951 255.344C113.225 255.344 103.634 250.423 97.3245 242.725C92.9077 244.745 88.1125 245.88 82.939 245.88C69.3103 245.88 57.5747 237.93 52.0222 226.573C51.6439 225.689 51.1387 224.807 50.8865 223.797C50.003 223.923 48.9934 224.175 48.1106 224.301C46.8487 224.428 45.4608 224.554 44.0728 224.554C30.4441 224.554 18.7085 216.604 13.156 205.12C11.0106 200.577 9.74878 195.53 9.74878 190.104C9.74878 183.921 11.389 178.242 14.1656 173.194C9.62269 167.389 6.97287 160.07 6.97287 152.12C6.97287 136.346 17.6989 122.97 32.2111 118.932C31.3276 115.903 30.9493 112.749 30.9493 109.468C30.9493 90.5394 46.3443 75.1437 65.2733 75.1437C70.0684 75.1437 74.7374 76.1533 78.902 77.9196C81.5518 61.515 95.685 48.8959 112.847 48.8959C124.078 48.8959 134.047 54.3223 140.357 62.6507C146.288 52.4292 158.15 45.6148 170.769 45.6148C188.688 45.6148 203.452 59.3696 204.966 76.91C208.373 75.7743 212.033 75.143 215.818 75.143C234.747 75.143 250.142 90.538 250.142 109.467C250.142 109.719 250.142 109.971 250.142 110.351C252.792 110.982 255.316 111.865 257.587 113C269.071 118.553 276.895 130.288 276.895 143.917C276.895 149.974 275.381 155.653 272.604 160.574C279.669 166.885 284.338 176.223 284.338 186.571Z" fill="#FC9DB8"/>
<path d="M268.525 170.953C268.525 189.881 253.13 205.277 234.201 205.277C233.822 205.277 233.317 205.277 232.939 205.277C228.901 219.662 215.651 230.263 199.878 230.263C193.568 230.263 187.637 228.623 182.589 225.594C176.28 234.175 166.185 239.727 154.827 239.727C145.742 239.727 137.539 236.194 131.482 230.515C125.299 236.194 117.097 239.727 108.137 239.727C97.4112 239.727 87.8203 234.806 81.5111 227.108C77.0943 229.127 72.2992 230.263 67.1257 230.263C61.6993 230.263 56.6519 229.001 52.109 226.856C52.109 226.856 52.2351 224.836 50.9733 224.078C45.0424 220.167 37.5975 214.994 35.0738 208.306C32.6762 208.81 30.0264 209.063 27.5021 208.937C22.4547 208.811 17.5327 207.549 13.2427 205.53C11.0974 200.987 9.83555 195.94 9.83555 190.513C9.83555 184.33 11.4758 178.651 14.2524 173.603C9.70946 167.799 7.05963 160.48 7.05963 152.53C7.05963 136.756 17.7857 123.38 32.2979 119.341C31.4144 116.313 31.036 113.158 31.036 109.877C31.036 90.9489 46.431 75.5532 65.36 75.5532C70.1552 75.5532 74.8242 76.5628 78.9887 78.3292C81.6385 61.9245 95.7717 49.3054 112.934 49.3054C124.165 49.3054 134.134 54.7318 140.443 63.0602C140.696 63.0602 140.948 63.0602 141.201 63.0602C147.132 52.8387 158.237 46.0244 170.856 46.0244C188.775 46.0244 203.539 59.7792 205.053 77.3195C208.46 76.1838 212.12 75.5532 215.905 75.5532C234.833 75.5532 250.229 90.9483 250.229 109.877C250.229 110.129 250.229 110.382 250.229 110.761C252.879 111.392 255.403 112.275 257.674 113.411C259.819 117.953 261.081 123.001 261.081 128.427C261.081 134.484 259.567 140.163 256.791 145.084C263.856 151.267 268.525 160.605 268.525 170.953Z" fill="#FFA6BD"/>
<path d="M249.888 109.595C238.405 72.4953 202.188 82.8429 202.188 82.8429C202.188 82.8429 198.277 63.1572 176.572 57.2264C154.993 51.4216 141.365 70.2238 141.365 70.2238C141.365 70.2238 130.008 57.9831 111.079 60.0023C92.151 62.0215 84.5792 86.5023 84.5792 86.5023C84.5792 86.5023 68.5529 80.9498 50.382 90.414C32.3365 99.8781 36.6272 125.621 36.6272 125.621C0.41072 144.549 13.5343 172.816 13.6604 173.195C9.11754 167.39 6.46771 160.071 6.46771 152.121C6.46771 136.347 17.1937 122.971 31.7059 118.933C30.8224 115.904 30.4441 112.749 30.4441 109.468C30.4441 90.5401 45.8391 75.1444 64.7681 75.1444C69.5633 75.1444 74.2323 76.154 78.3968 77.9203C81.0466 61.5157 95.1798 48.8966 112.342 48.8966C123.573 48.8966 133.542 54.323 139.851 62.6514C140.104 62.6514 140.356 62.6514 140.609 62.6514C146.54 52.4299 157.645 45.6155 170.264 45.6155C188.183 45.6155 202.947 59.3703 204.461 76.9107C207.868 75.775 211.528 75.1437 215.313 75.1437C234.493 75.2712 249.888 90.6669 249.888 109.595Z" fill="#FFB8CC"/>
<path d="M156.76 238.435C156.508 238.435 156.255 238.309 156.003 238.183C155.498 237.805 155.498 237.047 155.876 236.669C161.933 229.224 155.876 217.488 155.75 217.362C155.498 216.857 155.624 216.226 156.003 215.974C165.593 208.655 170.893 200.579 172.029 191.997C173.291 181.398 167.234 173.7 167.234 173.574C166.855 173.069 166.981 172.438 167.36 172.059C167.864 171.681 168.496 171.807 168.874 172.186C169.126 172.564 175.562 180.64 174.174 192.124C173.038 201.083 167.738 209.412 158.022 216.983C159.41 220.012 163.574 230.485 157.517 237.93C157.391 238.309 157.138 238.435 156.76 238.435Z" fill="#ED7E97"/>
<path d="M170.641 256.362C161.977 256.362 153.721 253.222 147.289 247.504C140.739 253.224 132.488 256.362 123.951 256.362C113.555 256.362 103.791 251.855 97.037 243.966C92.5355 245.911 87.7966 246.897 82.939 246.897C69.5056 246.897 57.012 239.095 51.1082 227.02C50.9821 226.728 50.8668 226.483 50.7502 226.236C50.5563 225.823 50.3576 225.401 50.1868 224.95C50.0261 224.982 49.8633 225.014 49.7013 225.047C49.2077 225.146 48.714 225.244 48.2536 225.31C46.9694 225.439 45.5232 225.572 44.0721 225.572C30.4041 225.572 18.2074 217.906 12.2399 205.564C9.91017 200.631 8.73105 195.433 8.73105 190.105C8.73105 184.255 10.1529 178.602 12.9573 173.291C8.37438 167.203 5.95514 159.898 5.95514 152.122C5.95514 136.598 16.1889 122.81 30.9662 118.239C30.2705 115.521 29.9315 112.64 29.9315 109.469C29.9315 89.9821 45.7855 74.128 65.2726 74.128C69.6209 74.128 74.0357 74.9491 78.1209 76.5107C81.4074 59.8463 95.8145 47.8802 112.846 47.8802C123.538 47.8802 133.443 52.598 140.25 60.877C146.647 50.9436 158.458 44.5991 170.768 44.5991C188.53 44.5991 203.698 58.1024 205.848 75.5689C209.096 74.6115 212.444 74.1273 215.818 74.1273C235.305 74.1273 251.159 89.9814 251.159 109.468V109.557C253.654 110.203 255.965 111.054 258.041 112.092C270.292 118.015 277.911 130.213 277.911 143.919C277.911 149.735 276.519 155.402 273.879 160.363C281.182 167.184 285.355 176.691 285.355 186.572C285.355 206.059 269.501 221.913 250.014 221.913H249.514C245.018 236.664 231.221 246.899 215.69 246.899C209.605 246.899 203.742 245.396 198.67 242.545C191.946 251.213 181.538 256.362 170.641 256.362ZM147.296 245.115C147.546 245.115 147.795 245.208 147.991 245.39C154.139 251.153 162.183 254.327 170.642 254.327C181.195 254.327 191.268 249.199 197.584 240.609C197.894 240.186 198.477 240.07 198.925 240.34C203.858 243.3 209.655 244.864 215.691 244.864C230.573 244.864 243.765 234.895 247.773 220.621C247.896 220.182 248.296 219.879 248.752 219.879H250.014C268.379 219.879 283.32 204.937 283.32 186.572C283.32 177.001 279.167 167.801 271.926 161.332C271.569 161.014 271.483 160.491 271.717 160.074C274.439 155.251 275.877 149.664 275.877 143.918C275.877 131 268.698 119.503 257.143 113.916C254.98 112.834 252.549 111.97 249.906 111.34C249.447 111.231 249.125 110.822 249.125 110.351V109.468C249.125 91.1022 234.183 76.1608 215.818 76.1608C212.244 76.1608 208.701 76.7378 205.288 77.8756C204.991 77.9746 204.668 77.9318 204.407 77.761C204.146 77.5901 203.979 77.3087 203.953 76.9982C202.483 59.9711 187.906 46.6326 170.768 46.6326C158.654 46.6326 147.062 53.1208 141.235 63.162C141.065 63.4562 140.757 63.6454 140.418 63.6664C140.081 63.6908 139.75 63.5369 139.544 63.2657C133.116 54.78 123.384 49.9136 112.846 49.9136C96.3949 49.9136 82.541 61.7605 79.9048 78.0824C79.8546 78.3909 79.6661 78.6594 79.3929 78.8106C79.1196 78.9618 78.7915 78.9794 78.504 78.8567C74.3462 77.0931 69.7707 76.1615 65.2719 76.1615C46.9064 76.1615 31.965 91.1029 31.965 109.468C31.965 112.828 32.3643 115.831 33.1861 118.648C33.2621 118.909 33.2309 119.19 33.0986 119.427C32.9664 119.664 32.7447 119.839 32.483 119.912C18.0609 123.925 7.98928 137.17 7.98928 152.121C7.98928 159.665 10.4018 166.736 14.9657 172.567C15.2166 172.889 15.2518 173.327 15.0559 173.684C12.2088 178.861 10.7645 184.385 10.7645 190.104C10.7645 195.129 11.8785 200.035 14.0747 204.686C19.695 216.311 31.1906 223.537 44.0714 223.537C45.4275 223.537 46.8148 223.41 48.0082 223.291C48.3906 223.235 48.8463 223.143 49.3019 223.052C49.7928 222.954 50.2837 222.857 50.7421 222.79C51.2594 222.722 51.7469 223.045 51.8731 223.551C52.0283 224.172 52.3016 224.754 52.5911 225.371C52.7179 225.641 52.8426 225.907 52.9566 226.174C58.4996 237.51 70.2766 244.864 82.9384 244.864C87.7579 244.864 92.4554 243.833 96.9007 241.801C97.3197 241.609 97.8174 241.724 98.1103 242.081C104.489 249.864 113.907 254.328 123.95 254.328C132.281 254.328 140.327 251.151 146.607 245.385C146.802 245.205 147.049 245.115 147.296 245.115Z" fill="#BF4B6F"/>
<path d="M183.764 99.1214C191.083 101.645 198.024 101.015 199.159 97.7335C200.295 94.3263 195.374 89.5312 188.054 87.0075C180.736 84.4838 173.795 85.1144 172.659 88.3954C171.524 91.6765 176.446 96.4716 183.764 99.1214Z" fill="#ED7E97"/>
<path d="M192.346 101.771C189.57 101.771 186.541 101.14 183.512 100.131C179.853 98.8692 176.572 96.9761 174.3 94.8307C171.903 92.4332 170.893 90.0356 171.65 88.0164C172.408 85.9972 174.679 84.6092 177.96 84.357C180.988 84.1048 184.774 84.6092 188.433 85.8711C192.093 87.1329 195.374 89.026 197.645 91.1713C200.043 93.5689 201.053 95.9665 200.295 97.9857C199.538 100.005 197.266 101.393 193.986 101.645C193.481 101.771 192.85 101.771 192.346 101.771ZM179.601 86.3762C179.096 86.3762 178.591 86.3762 178.213 86.5023C175.815 86.7546 174.174 87.5119 173.796 88.6477C173.417 89.7834 174.174 91.4236 175.941 93.1906C177.96 95.0837 180.862 96.85 184.27 97.9857C187.677 99.1214 191.084 99.7527 193.86 99.4998C196.257 99.2475 197.898 98.4902 198.277 97.3544C198.655 96.2187 197.898 94.5785 196.131 92.8115C194.112 90.9184 191.21 89.1521 187.803 88.0164C184.9 87.0075 182.124 86.3762 179.601 86.3762Z" fill="#BF4B6F"/>
<path d="M111.71 100.762C118.903 97.7328 123.572 92.5593 122.184 89.2783C120.796 85.9972 113.855 85.745 106.663 88.7738C99.4698 91.8026 94.8008 96.9761 96.1887 100.257C97.5767 103.538 104.517 103.79 111.71 100.762Z" fill="#ED7E97"/>
<path d="M102.246 103.917C98.7124 103.917 96.0626 102.781 95.053 100.636C93.4128 96.7239 98.2079 91.0452 106.158 87.7642C109.817 86.2501 113.477 85.4927 116.506 85.4927C119.913 85.6188 122.184 86.7546 123.068 88.7738C123.951 90.793 123.068 93.3167 120.796 95.8404C118.651 98.1118 115.623 100.257 111.963 101.771C108.555 103.286 105.148 103.917 102.246 103.917ZM116.127 87.7642C113.477 87.7642 110.322 88.5216 107.167 89.7834C100.1 92.8122 96.3148 97.4812 97.3244 99.7527C98.334 102.024 104.265 102.655 111.331 99.6266C114.613 98.2386 117.515 96.3455 119.408 94.3263C121.048 92.5593 121.679 90.793 121.175 89.6573C120.67 88.5215 119.029 87.7642 116.632 87.7642C116.379 87.7642 116.253 87.7642 116.127 87.7642Z" fill="#BF4B6F"/>
<path d="M100.227 79.5619C99.9743 79.5619 99.8481 79.5619 99.5952 79.3096C99.0908 78.9313 98.964 78.3 99.343 77.7956C99.4692 77.6695 108.177 65.1765 122.688 71.3596C123.193 71.6118 123.572 72.2431 123.319 72.8736C123.067 73.3781 122.436 73.7571 121.805 73.5049C108.934 68.0785 101.488 78.6784 101.11 79.1835C100.858 79.3096 100.479 79.5619 100.227 79.5619Z" fill="#ED7E97"/>
<path d="M111.331 222.157C108.808 222.157 101.236 221.399 98.4602 212.819C98.3341 212.188 98.5863 211.557 99.2175 211.431C99.8488 211.305 100.479 211.557 100.606 212.188C103.255 220.643 111.458 220.012 111.837 219.886C112.468 219.76 112.972 220.264 113.098 220.896C113.098 221.527 112.72 222.031 112.089 222.158C112.089 222.158 111.836 222.157 111.331 222.157Z" fill="#ED7E97"/>
<path d="M189.821 233.514C188.307 233.514 186.666 233.262 184.774 232.504C184.143 232.252 183.891 231.621 184.143 231.117C184.395 230.485 185.026 230.233 185.531 230.485C193.859 233.64 198.402 226.7 198.528 226.447C198.907 225.942 199.538 225.816 200.042 226.068C200.547 226.447 200.674 227.078 200.421 227.583C200.421 227.583 196.636 233.514 189.821 233.514Z" fill="#ED7E97"/>
<path d="M72.7175 185.309C72.5914 185.309 72.4653 185.309 72.3391 185.183C72.213 185.183 62.6228 181.397 64.2629 170.798C64.3891 170.166 64.8942 169.788 65.5248 169.914C66.1561 170.04 66.5344 170.545 66.4083 171.176C65.0203 180.01 72.7175 183.038 72.9704 183.038C73.6017 183.29 73.8539 183.921 73.6017 184.426C73.4742 185.057 73.0959 185.309 72.7175 185.309Z" fill="#ED7E97"/>
<path d="M223.893 193.259C223.262 193.259 222.757 192.755 222.757 192.25C222.757 191.618 223.136 191.114 223.767 191.114C232.601 190.609 233.862 182.407 233.989 182.028C234.115 181.397 234.62 181.018 235.25 181.018C235.882 181.145 236.26 181.65 236.26 182.28C236.26 182.28 234.745 192.629 223.893 193.259C224.019 193.259 224.019 193.259 223.893 193.259Z" fill="#ED7E97"/>
<path d="M52.5266 131.931C51.8954 131.931 51.3909 131.426 51.3909 130.795C51.0126 116.157 62.243 112.623 65.398 111.867C66.5337 106.566 68.9313 102.529 72.4646 100.131C78.1432 96.3455 84.5785 97.7335 84.9576 97.7335C85.5888 97.8596 85.9672 98.4909 85.8411 98.9953C85.7149 99.6266 85.0837 100.005 84.5792 99.8788C84.4531 99.8788 78.6483 98.7431 73.8532 101.898C70.5721 104.043 68.5529 107.829 67.544 112.876C67.4179 113.381 67.0395 113.76 66.5344 113.76C66.0299 113.886 53.2847 115.653 53.663 130.543C53.6623 131.426 53.1579 131.931 52.5266 131.931Z" fill="#ED7E97"/>
<path d="M255.314 137.862C255.188 137.862 255.062 137.862 254.936 137.862C254.305 137.735 254.053 137.104 254.179 136.474C254.179 136.474 255.945 130.669 253.043 125.621C251.15 122.214 247.617 119.817 242.695 118.429C242.191 118.303 241.938 117.924 241.812 117.419C241.812 116.915 241.054 104.043 226.291 103.16C225.659 103.16 225.155 102.655 225.281 102.024C225.281 101.393 225.786 100.888 226.417 101.015C241.055 101.898 243.579 113.381 243.957 116.662C249.131 118.176 252.917 120.952 255.062 124.738C258.343 130.669 256.45 137.105 256.324 137.357C256.198 137.609 255.819 137.862 255.314 137.862Z" fill="#ED7E97"/>
<path d="M115.495 237.047C114.864 237.047 114.234 237.047 113.728 236.921C109.185 236.164 106.157 232.884 105.022 231.495C90.3833 234.776 85.2098 220.39 85.2098 220.264C84.9576 219.633 85.3359 219.002 85.8411 218.876C86.4723 218.624 87.1029 219.002 87.229 219.507C87.3551 220.012 92.0242 232.631 105.148 229.097C105.652 228.971 106.157 229.223 106.41 229.602C106.41 229.602 109.185 233.892 114.107 234.649C117.388 235.154 121.048 233.892 124.707 230.738C125.212 230.359 125.843 230.359 126.221 230.864C126.6 231.368 126.6 231.999 126.095 232.378C122.436 235.659 118.903 237.047 115.495 237.047Z" fill="#ED7E97"/>
<path d="M216.827 233.388C212.284 233.388 208.75 232.252 208.624 232.252C207.993 232.126 207.741 231.495 207.867 230.864C207.993 230.233 208.624 229.981 209.255 230.107C210.012 230.359 226.795 235.533 231.969 221.021C232.222 220.39 232.853 220.138 233.357 220.39C233.989 220.642 234.241 221.273 233.989 221.778C230.834 231.369 223.01 233.388 216.827 233.388Z" fill="#ED7E97"/>
<path d="M251.655 158.557C251.529 158.557 251.403 158.557 251.403 158.557C250.772 158.431 250.519 157.8 250.645 157.169C250.898 156.412 255.567 139.376 240.929 134.707C240.298 134.581 240.046 133.95 240.172 133.319C240.298 132.689 240.929 132.436 241.56 132.562C258.217 137.988 252.791 157.548 252.791 157.8C252.538 158.179 252.16 158.557 251.655 158.557Z" fill="#ED7E97"/>
<path d="M165.088 115.904C164.836 115.904 164.71 115.904 164.584 115.778C164.079 115.526 163.826 114.769 164.206 114.264C171.903 101.267 157.013 91.8026 156.382 91.4236C156.003 91.1714 155.877 90.7923 155.877 90.414C156.508 82.4639 155.246 76.533 151.839 72.9997C149.357 70.3262 146.296 69.676 144.735 69.5173C144.174 69.4604 143.737 69.0101 143.706 68.448C143.668 67.7564 144.248 67.1875 144.937 67.2499C146.904 67.4269 150.46 68.1775 153.353 71.3596C157.013 75.2712 158.654 81.455 158.022 89.7834C160.924 91.8026 173.796 102.024 165.973 115.274C165.846 115.652 165.467 115.904 165.088 115.904Z" fill="#ED7E97"/>
<path d="M123.465 155.349C128.969 141.563 124.144 126.679 112.688 122.105C101.232 117.531 87.483 124.999 81.9787 138.785C76.4743 152.571 81.2991 167.455 92.7551 172.029C104.211 176.603 117.96 169.135 123.465 155.349Z" fill="white"/>
<path d="M117.834 158.196C119.111 149.014 113.711 140.674 105.771 139.57C97.8308 138.465 90.3587 145.014 89.0813 154.196C87.8038 163.378 93.2047 171.718 101.145 172.822C109.084 173.927 116.557 167.379 117.834 158.196Z" fill="#22213F"/>
<path d="M102.12 163.857C101.236 166.002 98.5863 167.012 96.0626 166.002C93.5389 164.993 92.2771 162.469 93.1599 160.324C94.0434 158.179 96.6932 157.169 99.2168 158.179C101.614 159.188 102.877 161.712 102.12 163.857Z" fill="white"/>
<path d="M215.06 136.726C220.864 150.355 216.321 165.371 204.964 170.166C193.607 174.962 179.726 167.895 173.921 154.266C168.116 140.638 172.659 125.621 184.017 120.826C195.374 116.031 209.255 123.098 215.06 136.726Z" fill="white"/>
<path d="M198.776 171.25C206.689 169.964 211.898 161.504 210.411 152.352C208.924 143.201 201.304 136.825 193.391 138.111C185.478 139.396 180.269 147.857 181.756 157.009C183.243 166.16 190.863 172.536 198.776 171.25Z" fill="#22213F"/>
<path d="M186.414 158.557C185.531 160.702 186.919 163.226 189.316 164.235C191.84 165.245 194.49 164.235 195.373 162.09C196.257 159.945 194.869 157.421 192.471 156.412C189.948 155.402 187.298 156.412 186.414 158.557Z" fill="white"/>
<path d="M99.8482 174.457C97.3245 174.457 94.8008 173.953 92.4032 173.069C86.5985 170.672 82.1817 165.75 80.0363 159.188C77.891 152.626 78.2693 145.307 81.0459 138.367C83.8225 131.426 88.6177 125.874 94.6747 122.593C100.732 119.312 107.294 118.807 113.225 121.079C125.212 125.874 130.387 141.396 124.708 155.781C121.932 162.721 117.136 168.274 111.079 171.555C107.293 173.447 103.508 174.457 99.8482 174.457ZM105.653 121.962C102.372 121.962 98.9647 122.846 95.6836 124.612C90.1311 127.641 85.5882 132.814 83.0645 139.25C80.5408 145.686 80.1618 152.5 82.181 158.558C84.0741 164.488 88.1119 168.905 93.286 171.051C98.4595 173.196 104.391 172.691 109.943 169.663C115.495 166.634 120.038 161.46 122.562 155.024C127.862 141.901 123.193 127.641 112.34 123.225C110.196 122.34 107.924 121.962 105.653 121.962Z" fill="#BF4B6F"/>
<path d="M197.519 172.816C193.986 172.816 190.327 171.933 186.919 170.166C180.862 167.011 175.814 161.586 172.912 154.771C170.01 147.957 169.505 140.512 171.398 133.95C173.417 127.262 177.707 122.34 183.512 119.817C189.317 117.293 195.879 117.671 202.062 120.826C208.119 123.981 213.167 129.407 216.069 136.221C218.971 143.036 219.476 150.481 217.583 157.043C215.564 163.731 211.274 168.652 205.469 171.176C202.946 172.312 200.295 172.816 197.519 172.816ZM191.462 120.447C189.065 120.447 186.667 120.952 184.396 121.835C179.222 124.107 175.31 128.524 173.544 134.58C171.777 140.637 172.156 147.452 174.932 153.888C177.581 160.197 182.25 165.371 187.929 168.273C193.481 171.175 199.412 171.428 204.586 169.283C209.759 167.011 213.672 162.595 215.438 156.538C217.205 150.481 216.826 143.666 214.05 137.23C211.4 130.921 206.731 125.747 201.053 122.845C197.898 121.205 194.743 120.447 191.462 120.447Z" fill="#BF4B6F"/>
<path d="M195.753 106.44C176.66 106.44 160.947 120.796 158.789 139.306C150.371 135.595 142.954 137.388 138.573 139.26C136.394 120.772 120.693 106.44 101.615 106.44C81.0459 106.44 64.3891 123.097 64.3891 143.666C64.3891 164.236 81.1721 180.892 101.615 180.892C121.539 180.892 137.979 165.069 138.802 145.224C141.728 143.632 149.58 140.311 158.57 145.338C159.45 165.129 175.867 180.892 195.753 180.892C216.196 180.892 232.979 164.236 232.979 143.666C232.979 123.098 216.195 106.44 195.753 106.44ZM101.614 175.593C84.0741 175.593 69.8148 161.333 69.8148 143.793C69.8148 126.253 84.0741 111.993 101.614 111.993C119.029 111.993 133.288 126.253 133.414 143.793C133.415 161.333 119.155 175.593 101.614 175.593ZM195.753 175.593C178.213 175.593 163.953 161.333 163.953 143.793C163.953 126.253 178.213 111.993 195.753 111.993C213.293 111.993 227.553 126.253 227.553 143.793C227.553 161.333 213.293 175.593 195.753 175.593Z" fill="#EA2A21"/>
<path d="M195.753 181.909C175.436 181.909 158.78 166.165 157.584 145.959C149.792 141.859 142.874 144.298 139.789 145.854C138.645 166.12 121.989 181.909 101.615 181.909C80.5272 181.909 63.372 164.754 63.372 143.666C63.372 122.579 80.5279 105.423 101.615 105.423C120.552 105.423 136.571 119.264 139.406 137.832C143.999 136.116 150.558 135.012 157.957 137.862C160.777 119.275 176.795 105.423 195.752 105.423C216.84 105.423 233.995 122.579 233.995 143.666C233.996 164.754 216.84 181.909 195.753 181.909ZM148.695 141.663C151.816 141.663 155.357 142.376 159.066 144.449C159.373 144.621 159.57 144.94 159.585 145.292C160.448 164.685 176.334 179.875 195.753 179.875C215.719 179.875 231.962 163.632 231.962 143.666C231.962 123.701 215.719 107.457 195.753 107.457C177.38 107.457 161.923 121.2 159.8 139.424C159.762 139.745 159.575 140.029 159.295 140.189C159.014 140.35 158.674 140.367 158.379 140.237C150.444 136.739 143.446 138.285 138.973 140.196C138.68 140.322 138.341 140.301 138.064 140.141C137.787 139.98 137.601 139.698 137.564 139.38C135.418 121.181 119.964 107.457 101.616 107.457C81.6501 107.457 65.4068 123.701 65.4068 143.666C65.4068 163.632 81.6501 179.875 101.616 179.875C121.092 179.875 136.98 164.636 137.786 145.182C137.8 144.824 138.002 144.501 138.316 144.33C140.202 143.304 143.963 141.663 148.695 141.663ZM195.753 176.61C177.658 176.61 162.937 161.888 162.937 143.793C162.937 125.697 177.659 110.976 195.753 110.976C213.849 110.976 228.57 125.697 228.57 143.793C228.57 161.888 213.848 176.61 195.753 176.61ZM195.753 113.011C178.779 113.011 164.971 126.82 164.971 143.793C164.971 160.767 178.779 174.576 195.753 174.576C212.726 174.576 226.536 160.767 226.536 143.793C226.536 126.82 212.726 113.011 195.753 113.011ZM101.614 176.61C83.5195 176.61 68.7977 161.888 68.7977 143.793C68.7977 125.697 83.5195 110.976 101.614 110.976C119.58 110.976 134.301 125.695 134.431 143.786C134.431 152.547 131.015 160.786 124.811 166.989C118.607 173.193 110.369 176.61 101.614 176.61ZM101.614 113.011C84.6409 113.011 70.8319 126.82 70.8319 143.793C70.8319 160.767 84.6409 174.576 101.614 174.576C109.826 174.576 117.553 171.371 123.373 165.551C129.193 159.731 132.398 152.004 132.397 143.793C132.275 126.823 118.466 113.011 101.614 113.011Z" fill="#B7130B"/>
<path d="M291.405 232.757C283.202 240.076 269.195 242.347 257.081 240.455C241.812 237.047 232.095 237.047 234.619 225.438C240.802 214.081 252.791 226.826 265.662 225.186C300.743 225.06 273.107 193.891 259.226 183.164C255.693 180.515 255.062 175.467 257.712 172.059C267.302 162.09 277.776 179.126 286.61 188.338C298.85 203.859 305.286 219.633 291.405 232.757Z" fill="#ED7E97"/>
<path d="M271.593 227.962C257.838 230.738 245.093 221.021 245.093 221.021C249.005 222.661 257.46 225.06 265.788 225.06C271.467 225.06 277.146 223.924 281.183 220.517C282.697 219.255 283.329 217.867 283.329 215.848C283.076 205.878 267.934 189.474 259.478 183.038C255.945 180.389 255.314 175.341 257.964 171.933C260.11 169.157 263.643 168.148 266.671 169.157C253.295 177.738 278.281 193.386 285.473 206.888C292.541 220.264 285.348 225.312 271.593 227.962Z" fill="#E26988"/>
<path d="M291.405 232.757C284.843 238.309 276.136 241.085 265.788 241.085C263.012 241.085 260.11 240.833 257.208 240.454C247.238 239.066 239.415 235.911 239.162 235.785C282.319 246.006 298.724 224.428 293.802 208.149C289.007 191.997 267.05 169.409 266.672 169.156C267.555 169.408 268.312 169.787 269.069 170.418C273.36 173.699 280.553 180.26 286.862 188.211C294.812 198.306 298.976 207.392 299.229 215.467C299.355 222.283 296.578 228.34 291.405 232.757Z" fill="#F490AA"/>
<path d="M265.662 242.221C262.886 242.221 259.857 241.969 256.829 241.59C247.112 240.202 238.531 236.795 237.521 236.416C236.89 236.164 236.638 235.533 236.89 234.902C237.142 234.271 237.773 234.019 238.278 234.271C239.161 234.649 247.616 238.056 256.954 239.318C259.856 239.697 262.759 239.949 265.409 239.949C275.63 239.949 283.959 237.174 290.394 231.873C295.315 227.709 297.839 222.031 297.713 215.469C297.46 207.645 293.422 198.686 285.599 188.842C279.416 181.018 272.222 174.457 267.932 171.302C266.418 170.166 264.651 169.788 262.885 170.04C261.118 170.292 259.478 171.176 258.342 172.69C256.071 175.719 256.702 180.009 259.73 182.28C267.806 188.337 283.706 204.995 283.959 215.973C284.085 218.371 283.327 220.012 281.435 221.526C271.087 230.359 251.023 224.933 244.209 222.157C243.957 222.031 243.578 221.905 243.325 221.905C242.694 221.779 242.316 221.147 242.568 220.517C242.694 219.885 243.325 219.507 243.956 219.759C244.334 219.885 244.839 220.012 245.218 220.138C251.654 222.787 270.582 227.835 280.172 219.759C281.434 218.624 281.939 217.614 281.813 215.974C281.56 206.383 266.417 190.105 258.467 184.048C254.429 181.019 253.672 175.341 256.701 171.303C258.215 169.41 260.234 168.148 262.632 167.769C265.03 167.391 267.427 168.022 269.32 169.536C273.611 172.817 280.93 179.505 287.366 187.454C295.442 197.676 299.733 207.14 299.985 215.343C300.237 222.535 297.335 228.845 291.909 233.514C285.474 239.193 276.262 242.221 265.662 242.221Z" fill="#BF4B6F"/>
<path d="M150.313 213.702V275.661L146.401 274.526L51.3801 247.395V235.786L53.0203 233.514L79.7726 196.919C79.7726 196.919 94.9154 194.522 112.456 196.919C125.454 198.812 139.965 203.355 150.313 213.702Z" fill="#E6ECFF"/>
<path d="M149.693 264.683C149.693 264.683 109.691 223.672 51.1387 235.786C50.5075 235.912 52.7789 233.514 52.7789 233.514C71.9601 225.816 110.952 233.388 125.843 241.969C140.86 250.549 146.16 251.559 142.626 229.223C139.093 207.014 112.593 197.171 112.214 197.045C125.338 198.812 139.85 203.354 150.324 213.702L149.693 264.683Z" fill="#F5F8FF"/>
<path d="M146.286 274.526L51.2648 247.395V243.483C51.1387 243.483 118.272 242.221 146.286 274.526Z" fill="#C7D1EA"/>
<path d="M249.257 235.786V247.395L157.896 273.39L150.198 275.535V213.576C174.426 189.6 220.864 196.919 220.864 196.919L249.257 235.786Z" fill="#E6ECFF"/>
<path d="M154.615 266.702C154.615 266.702 169.631 253.83 193.86 245.25C218.088 236.669 249.762 238.941 249.762 238.941L249.384 235.786C249.384 235.786 186.793 225.438 151.586 266.323L154.615 266.702Z" fill="#F5F8FF"/>
<path d="M249.257 243.483V247.394L157.896 273.389C171.019 264.178 200.926 247.521 249.257 243.483Z" fill="#C7D1EA"/>
<path d="M151.081 264.683C151.081 264.683 191.083 223.672 249.636 235.786C250.267 235.912 247.996 233.514 247.996 233.514C228.814 225.816 189.822 233.388 174.932 241.969C159.915 250.549 154.615 251.559 158.149 229.223C161.682 207.014 188.182 197.171 188.56 197.045C175.437 198.812 160.924 203.354 150.451 213.702L151.081 264.683Z" fill="#C7D1EA"/>
<path d="M150.198 276.678C150.103 276.678 150.007 276.665 149.914 276.638L146.003 275.502L50.9855 248.373C50.5481 248.249 50.2477 247.85 50.2477 247.396V235.786C50.2477 235.573 50.3149 235.365 50.4403 235.191L52.0805 232.919L78.8362 196.319C78.9949 196.102 79.2328 195.956 79.4986 195.914C79.6519 195.891 94.9927 193.522 112.479 195.911C129.076 198.327 142.006 204.071 150.917 212.983C151.108 213.173 151.215 213.432 151.215 213.702V275.661C151.215 275.981 151.064 276.283 150.808 276.474C150.63 276.608 150.415 276.678 150.198 276.678ZM52.2819 246.628L146.565 273.548L149.181 274.307V214.126C140.594 205.699 128.154 200.249 112.194 197.926C96.6057 195.794 82.7559 197.513 80.2268 197.864L53.7268 234.114L52.2826 236.114V246.628H52.2819Z" fill="#8196C9"/>
<path d="M150.198 276.552C149.978 276.552 149.762 276.481 149.583 276.345C149.329 276.153 149.181 275.853 149.181 275.535V213.576C149.181 213.305 149.289 213.045 149.482 212.853C173.796 188.794 220.554 195.84 221.022 195.915C221.289 195.957 221.527 196.102 221.685 196.32L250.079 235.186C250.206 235.36 250.275 235.57 250.275 235.786V247.396C250.275 247.85 249.974 248.25 249.536 248.374L158.174 274.368L150.471 276.516C150.381 276.54 150.289 276.552 150.198 276.552ZM151.215 214.003V274.196L157.622 272.41L248.24 246.627V236.117L220.295 197.865C215.684 197.233 173.674 192.198 151.215 214.003Z" fill="#8196C9"/>
<path d="M139.976 272.428C139.976 272.428 149.314 258.547 160.293 272.428C160.293 272.428 150.955 284.416 139.976 272.428Z" fill="#E6ECFF"/>
<path d="M150.118 278.773C146.329 278.773 142.667 276.872 139.226 273.115C138.909 272.768 138.87 272.25 139.132 271.86C139.307 271.6 143.487 265.49 149.767 265.249C153.722 265.079 157.533 267.3 161.091 271.797C161.381 272.164 161.384 272.683 161.095 273.053C160.921 273.276 156.77 278.517 150.571 278.764C150.42 278.77 150.269 278.773 150.118 278.773ZM141.307 272.354C144.278 275.379 147.359 276.855 150.476 276.732C154.576 276.575 157.75 273.684 158.96 272.403C155.998 268.888 152.932 267.157 149.856 267.281C145.706 267.435 142.487 270.893 141.307 272.354Z" fill="#8196C9"/>
<path d="M150.198 280.33C146.16 280.33 142.122 278.942 138.84 276.166C79.4051 258.752 48.9934 249.918 48.236 249.666C46.9742 249.287 46.3429 247.9 46.7219 246.637C47.1003 245.375 48.4889 244.744 49.7508 245.123C50.2552 245.249 62.8743 249.035 140.607 271.749C140.986 271.875 141.239 272.001 141.491 272.254L141.617 272.38C146.412 276.67 153.731 276.67 158.527 272.38C158.779 272.127 159.158 272.001 159.41 271.875C200.675 259.761 249.258 245.627 250.519 245.249C251.781 244.871 253.169 245.501 253.548 246.763C253.927 248.025 253.296 249.287 252.034 249.792C251.025 250.17 183.008 269.982 161.303 276.418C158.148 278.942 154.11 280.33 150.198 280.33Z" fill="#4150D8"/>
<path d="M150.198 281.348C145.879 281.348 141.682 279.835 138.351 277.083C103.574 266.894 78.7562 259.648 64.025 255.348C53.1905 252.185 48.2455 250.741 47.9146 250.631C47.0664 250.377 46.3578 249.769 45.949 248.927C45.5598 248.126 45.4886 247.209 45.7482 246.344C46.0113 245.467 46.6195 244.758 47.461 244.35C48.2631 243.961 49.1805 243.889 50.0437 244.149C50.1413 244.172 50.7427 244.349 53.5641 245.181C60.7751 247.306 82.7187 253.773 140.893 270.773C141.342 270.921 141.783 271.106 142.209 271.532L142.338 271.662C146.728 275.586 153.415 275.588 157.849 271.62C158.134 271.333 158.519 271.161 158.8 271.036C158.856 271.011 158.909 270.988 158.956 270.964C159.01 270.938 159.065 270.916 159.123 270.898C189.756 261.905 224.21 251.861 240.768 247.034C246.437 245.381 249.902 244.372 250.226 244.275C252.066 243.723 253.992 244.708 254.521 246.47C255.052 248.239 254.165 250.033 252.412 250.735C251.881 250.934 238.658 254.805 215.329 261.629C195.394 267.461 172.813 274.066 161.779 277.337C158.517 279.888 154.307 281.348 150.198 281.348ZM49.0002 246.034C48.7683 246.034 48.5472 246.084 48.3499 246.18C48.0265 246.337 47.7946 246.603 47.697 246.929C47.5858 247.299 47.6156 247.703 47.779 248.039C47.9363 248.363 48.2021 248.594 48.5282 248.692C48.8822 248.808 54.4632 250.437 64.5952 253.396C79.3563 257.704 104.242 264.969 139.127 275.191C139.263 275.231 139.389 275.299 139.498 275.39C142.488 277.921 146.287 279.314 150.198 279.314C153.92 279.314 157.737 277.97 160.668 275.625C160.771 275.543 160.888 275.482 161.014 275.444C171.981 272.192 194.707 265.544 214.759 259.679C233.387 254.229 250.982 249.082 251.687 248.837C252.434 248.538 252.803 247.817 252.574 247.056C252.367 246.368 251.576 245.996 250.812 246.224C250.486 246.322 247.016 247.333 241.338 248.988C224.795 253.811 190.387 263.842 159.776 272.829C159.73 272.85 159.68 272.872 159.63 272.895C159.501 272.953 159.306 273.039 159.246 273.1C153.999 277.797 146.146 277.799 140.939 273.139L140.77 272.972C140.672 272.873 140.578 272.813 140.287 272.716C82.1457 255.727 60.2001 249.258 52.9884 247.133C50.6817 246.453 49.6287 246.143 49.5019 246.11C49.3317 246.059 49.1629 246.034 49.0002 246.034Z" fill="#31409B"/>
<path d="M142.501 245.25C141.869 245.25 141.491 244.745 141.239 244.492C141.113 244.366 140.987 244.24 140.86 244.114C140.734 243.988 140.734 243.862 140.608 243.862C140.23 243.231 140.104 242.852 139.977 242.726C139.725 242.852 139.472 242.852 139.22 242.852C138.841 242.726 138.588 242.6 138.462 242.348C137.831 241.338 136.948 240.202 136.065 240.455C135.812 240.455 135.686 240.581 135.433 240.455C134.424 240.202 133.793 239.319 133.036 238.309C132.657 237.805 132.152 237.047 131.774 236.795C131.774 236.795 131.648 236.921 131.648 237.047C131.396 237.3 131.143 237.426 130.89 237.552C130.512 237.552 130.259 237.552 130.007 237.3C129.881 237.174 129.629 237.3 129.123 237.552C128.366 237.93 127.23 238.309 126.095 237.804C125.085 237.3 124.328 236.29 123.571 234.397C121.047 234.397 118.524 233.261 115.999 230.99L115.873 230.864C114.359 229.097 112.844 228.971 110.952 228.971C109.942 228.971 108.933 228.844 107.923 228.592C107.671 228.592 107.545 228.466 107.419 228.34C105.399 226.574 103.381 226.574 100.983 226.574C100.225 226.574 99.3423 226.574 98.585 226.574C98.4588 226.574 98.4588 226.574 98.3327 226.574C97.8283 226.448 97.197 226.195 96.6925 226.069C93.9166 225.186 91.2662 224.429 88.6164 225.312C86.0927 226.7 83.569 226.195 81.4236 225.69C79.9096 225.312 78.3948 225.059 77.0069 225.312C76.3756 225.438 75.745 225.06 75.6189 224.302C75.4928 223.671 75.8711 223.04 76.6285 222.914C78.5216 222.536 80.2879 222.914 82.0549 223.293C84.2002 223.671 85.9666 224.05 87.7335 223.04C87.7335 223.04 87.8597 222.914 87.9858 222.914C91.393 221.652 94.8001 222.662 97.7021 223.545C98.2066 223.672 98.7118 223.798 99.2162 224.05C99.9736 224.05 100.604 224.05 101.362 224.05C103.885 224.05 106.662 223.924 109.312 226.195C110.069 226.321 110.826 226.321 111.583 226.448C113.728 226.574 116 226.7 118.271 229.223C120.543 231.243 122.688 232.125 124.833 231.873C125.338 231.873 125.843 232.125 126.095 232.631C126.853 234.902 127.483 235.28 127.609 235.407C127.862 235.533 128.114 235.407 128.745 235.154C129.376 234.902 130.133 234.523 131.017 234.776C131.395 234.398 131.9 234.271 132.405 234.271C133.792 234.271 134.802 235.533 135.686 236.669C135.938 237.047 136.317 237.553 136.569 237.805C137.957 237.553 139.345 238.309 140.607 240.076C140.859 240.076 140.985 240.076 141.238 240.202C142.248 240.455 143.005 241.464 143.51 242.474L143.636 242.6C144.14 242.726 144.519 243.231 144.519 243.736C144.519 244.619 143.888 244.997 143.636 244.997C142.753 245.25 142.627 245.25 142.501 245.25Z" fill="#8196C9"/>
<path d="M160.293 243.231C159.662 243.231 159.031 242.726 159.031 242.095C159.031 241.337 159.41 240.959 159.663 240.833C159.789 240.707 160.041 240.707 160.42 240.707C160.546 240.581 160.546 240.455 160.672 240.328C160.798 240.202 160.924 240.076 161.051 239.95C161.934 239.067 163.322 237.679 165.215 237.553C165.341 237.553 165.594 237.553 165.72 237.679C165.972 237.679 166.855 236.921 167.36 236.417C168.369 235.533 169.505 234.65 170.767 234.272C171.65 233.514 172.66 232.757 173.922 232.757C174.048 232.757 174.3 232.631 174.426 232.631C175.058 232.505 175.562 232.379 176.067 231.874C176.319 231.243 176.698 230.486 177.455 230.108C178.212 229.729 178.969 230.108 179.348 230.234C179.348 230.234 179.348 230.108 179.474 230.108C180.483 228.846 181.619 228.972 182.25 229.098C182.754 229.098 182.881 229.098 183.007 228.972C183.385 228.467 184.143 228.467 184.647 228.846C184.899 229.098 185.152 228.972 186.287 228.215C186.54 228.088 186.792 227.962 187.045 227.836C187.045 227.836 187.171 227.836 187.171 227.71C187.549 227.584 187.802 227.332 188.181 227.206C189.19 226.701 190.326 226.07 191.714 226.196C191.84 226.196 191.84 226.196 191.966 226.196C192.344 226.322 192.976 226.07 193.48 225.818C193.985 225.565 194.616 225.313 195.373 225.186C196.509 224.555 198.149 223.546 199.916 224.051C200.168 223.798 200.547 223.546 200.926 223.293C201.935 222.536 202.945 221.653 204.081 221.4C205.721 220.138 207.362 221.526 208.245 222.284C208.498 222.536 208.877 222.788 209.129 222.915C210.517 222.158 212.031 222.41 213.04 222.663C213.419 222.789 213.798 222.789 214.176 222.915C214.807 222.915 215.564 222.915 216.321 222.915C217.205 222.915 218.215 222.789 219.224 222.915C219.35 222.915 219.476 223.041 219.728 223.041C220.359 223.419 220.99 223.293 221.873 223.167C222.631 223.041 223.387 223.041 224.271 223.167C225.911 222.915 227.93 222.915 229.949 224.051C230.581 224.429 230.707 225.06 230.454 225.691C230.076 226.322 229.444 226.448 228.814 226.195C227.3 225.312 225.785 225.438 224.397 225.691C224.271 225.691 224.019 225.691 223.893 225.691C223.388 225.565 222.757 225.565 222.126 225.691C221.116 225.817 219.98 225.943 218.718 225.312C217.961 225.186 217.204 225.312 216.447 225.312C215.69 225.312 214.933 225.312 214.049 225.312C213.545 225.312 213.04 225.186 212.535 225.06C211.4 224.808 210.768 224.682 210.012 225.312C209.759 225.565 209.38 225.565 209.002 225.565C208.118 225.439 207.362 224.807 206.731 224.303C206.352 224.051 205.721 223.545 205.595 223.545C205.595 223.545 205.595 223.546 205.469 223.672C205.216 223.924 204.964 224.05 204.711 224.05C204.08 224.05 203.323 224.807 202.566 225.438C202.061 225.942 201.43 226.448 200.799 226.7C200.421 226.952 200.042 226.952 199.663 226.7C198.78 226.321 197.897 226.7 196.508 227.583C196.382 227.709 196.13 227.709 195.877 227.709C195.499 227.709 194.994 227.962 194.489 228.088C193.606 228.466 192.596 228.845 191.46 228.592C190.956 228.592 190.198 228.971 189.441 229.35C189.063 229.602 188.684 229.728 188.179 229.981C188.053 230.107 187.801 230.233 187.675 230.359C186.791 230.99 185.403 231.747 184.141 231.369C183.384 231.873 182.627 231.747 182.122 231.747C181.618 231.747 181.618 231.747 181.491 231.873C180.734 233.009 179.724 233.387 178.462 232.757C178.462 232.883 178.336 233.009 178.336 233.135C178.336 233.261 178.21 233.387 178.084 233.513C176.948 234.901 175.812 235.028 174.929 235.154C174.803 235.154 174.55 235.154 174.424 235.28C174.298 235.28 174.172 235.28 174.046 235.28C173.542 235.28 172.784 235.911 172.153 236.415C172.027 236.542 171.775 236.668 171.522 236.668C170.764 236.794 169.755 237.551 168.998 238.308C167.862 239.318 166.6 240.327 165.212 240.074C164.329 240.2 163.446 241.084 162.689 241.714C162.563 241.841 162.563 241.841 162.436 241.967C162.184 242.471 161.805 243.102 161.049 243.228C160.796 243.355 160.544 243.355 160.417 243.228C160.419 243.231 160.419 243.231 160.293 243.231Z" fill="#8196C9"/>
<path d="M162.817 224.176C162.186 224.176 161.681 223.798 161.429 223.293C160.924 223.04 160.545 222.535 160.672 221.905C160.798 221.021 161.555 220.769 161.681 220.769C162.06 220.769 162.312 220.769 162.439 220.895C162.565 220.517 163.07 220.138 163.448 220.138C163.574 220.138 163.7 220.138 163.826 220.138C163.953 220.012 164.079 219.759 164.205 219.506C164.709 218.623 165.341 217.109 166.729 217.235C167.738 217.235 168.243 218.118 168.496 218.749C168.496 218.623 168.622 218.623 168.622 218.497C168.748 218.118 169 217.866 169.126 217.487C169.883 216.351 170.64 214.837 172.155 214.963C172.912 214.963 173.417 215.342 173.921 216.099C175.435 216.478 177.202 215.721 179.095 213.954L179.221 213.828C180.609 212.818 182.123 212.944 183.259 213.07C184.521 213.196 185.405 213.197 186.414 212.313C186.666 212.061 187.045 211.935 187.424 211.935C188.307 212.061 189.19 211.809 190.2 211.556L190.704 211.43C191.966 211.052 193.606 210.799 195.121 211.43C195.752 211.682 196.004 212.44 195.752 212.944C195.5 213.576 194.743 213.828 194.238 213.576C193.481 213.197 192.598 213.323 191.336 213.702L190.832 213.828C189.822 214.08 188.812 214.332 187.677 214.332C186.037 215.594 184.522 215.468 183.134 215.342C181.998 215.216 181.368 215.216 180.61 215.72C177.834 218.244 175.184 219.001 172.66 218.118C172.408 217.992 172.156 217.866 172.029 217.486C172.029 217.486 172.029 217.36 171.903 217.36C171.65 217.739 171.271 218.37 171.145 218.622C171.019 218.874 170.893 219.127 170.641 219.506C170.01 220.641 169.379 221.903 168.117 221.777C167.108 221.651 166.729 220.768 166.477 220.137C166.477 220.263 166.351 220.263 166.351 220.389C165.846 221.525 165.215 222.661 164.205 222.787C163.953 223.291 163.448 223.796 162.818 223.796C162.943 224.176 162.817 224.176 162.817 224.176Z" fill="#8196C9"/>
<path d="M122.562 221.147C121.931 221.147 121.426 220.769 121.048 220.264C120.038 220.264 119.281 219.128 118.65 218.118C118.524 217.992 118.524 217.866 118.524 217.866C118.398 218.497 118.02 219.506 117.136 219.633C115.874 219.885 115.117 218.75 114.36 217.614C114.234 217.362 113.982 217.109 113.856 216.857C113.73 216.604 113.225 216.099 112.846 215.721V215.847C112.72 216.099 112.468 216.351 112.215 216.478C109.817 217.614 107.168 217.109 104.013 214.964C103.255 214.586 102.499 214.712 101.489 214.964C100.227 215.216 98.5863 215.469 96.82 214.46C95.6843 214.586 94.6747 214.46 93.6651 214.334L93.1606 214.207C91.8987 214.081 91.0152 214.081 90.2579 214.46C89.6266 214.838 88.996 214.586 88.6177 213.955C88.2393 213.325 88.4916 212.693 89.1222 212.315C90.6362 211.432 92.151 211.558 93.5389 211.811L94.0434 211.937C95.053 212.063 96.0626 212.189 96.8193 211.937C97.1977 211.811 97.5767 211.937 97.8289 212.189C98.8385 212.946 99.8482 212.82 100.984 212.567C102.12 212.315 103.634 212.063 105.148 212.819C105.148 212.819 105.275 212.819 105.275 212.946C107.42 214.46 109.186 214.965 110.701 214.46C111.079 213.702 111.711 213.198 112.341 213.072C113.729 212.819 114.739 214.207 115.622 215.217C115.874 215.469 116.001 215.848 116.253 216.101C116.253 216.101 116.38 216.227 116.38 216.353C116.632 215.722 117.011 214.839 118.02 214.713C119.282 214.46 120.165 215.848 120.796 216.732C120.922 216.984 121.048 217.236 121.174 217.363C121.3 217.363 121.426 217.237 121.552 217.237C122.057 217.237 122.436 217.363 122.688 217.868C122.94 217.742 123.193 217.616 123.446 217.616C123.698 217.616 124.329 217.742 124.581 218.626C124.707 219.13 124.455 219.761 124.077 220.014C123.698 220.643 123.319 221.147 122.562 221.147Z" fill="#8196C9"/>
<path d="M235.503 224.933C235.755 225.185 236.007 225.311 236.26 225.564C236.765 225.942 237.396 226.069 238.026 226.195C244.209 226.7 248.374 232 248.5 232.126C249.888 233.893 252.286 234.145 254.053 232.884C255.819 231.496 256.072 229.098 254.81 227.331C254.684 227.205 249.637 224.176 248.122 222.788C246.86 221.652 249.51 222.157 247.491 221.021C245.093 219.633 242.19 218.497 238.91 218.245C238.91 218.245 238.91 218.245 238.784 218.245C238.279 218.245 237.774 218.245 237.27 218.371C235.756 218.876 234.62 220.138 234.494 221.905C234.367 223.04 234.745 224.176 235.503 224.933Z" fill="#ED7E97"/>
<path d="M235.503 224.933C235.503 221.652 239.793 220.895 243.327 220.768C245.472 220.768 247.365 220.894 247.491 221.02L240.929 219.38L237.27 218.497C235.756 219.001 234.62 220.263 234.494 222.03C234.367 223.04 234.745 224.176 235.503 224.933Z" fill="#F490AA"/>
<path d="M249.257 233.262C248.879 233.262 248.626 233.136 248.374 232.884C248.374 232.884 243.579 227.836 237.9 227.331C237.017 227.205 236.26 226.953 235.629 226.574C233.989 225.564 233.105 223.798 233.357 221.905C233.61 219.129 236.007 216.983 238.91 217.236C243.705 217.614 248.122 220.264 250.393 221.905C250.898 222.283 251.024 222.914 250.645 223.419C250.267 223.923 249.636 224.05 249.131 223.671C247.112 222.283 242.948 219.759 238.658 219.38C237.144 219.254 235.756 220.39 235.629 222.03C235.503 223.04 236.007 224.049 236.891 224.68C237.269 224.932 237.774 225.058 238.152 225.184C244.841 225.689 250.14 231.494 250.14 231.62C250.519 232.125 250.393 232.756 249.888 233.134C249.762 233.135 249.51 233.262 249.257 233.262Z" fill="#BF4B6F"/>
<path d="M61.2341 213.071C24.7655 240.833 -3.87992 227.33 8.36016 177.359C13.6604 159.566 13.5337 145.054 27.2885 151.364C32.5888 156.538 30.1912 158.936 27.7929 166.633C23.8813 177.359 18.9594 203.102 23.3762 209.538C29.0548 215.595 43.0618 205.878 50.6329 201.209C58.0792 195.657 67.6695 206.383 61.2341 213.071Z" fill="#ED7E97"/>
<path d="M53.0318 218.624C51.3916 219.633 49.4985 220.643 47.4793 221.652C37.2577 226.7 28.551 228.467 21.6105 226.826C16.058 225.438 11.768 222.031 9.11752 216.73C4.82685 208.024 4.57461 194.899 8.36014 177.359C11.0099 165.245 14.7961 155.276 14.9223 154.897C16.4363 150.733 21.1054 148.714 25.1438 150.228C25.9012 150.481 26.5318 150.86 27.163 151.364C27.163 151.364 20.6009 150.607 17.3205 163.605C14.0394 176.602 6.84675 207.771 16.8161 219.003C26.784 230.233 52.5267 218.876 53.0318 218.624Z" fill="#F490AA"/>
<path d="M46.9741 203.733C21.4837 224.176 17.8243 215.469 18.0765 195.909C18.4549 176.476 29.4338 154.014 29.4338 154.014L30.1911 156.033C30.4434 157.421 30.4434 158.935 29.8128 160.45C29.8128 160.45 28.9293 162.848 27.6675 166.507C26.5317 170.292 25.0177 175.341 23.7558 180.892C20.8531 194.016 20.727 204.364 23.2514 209.412C23.8826 210.547 24.3871 210.926 25.2706 211.178C30.3173 212.567 40.0337 208.024 46.9741 203.733Z" fill="#E26988"/>
<path d="M27.0362 228.466C25.017 228.466 23.1246 228.214 21.3576 227.835C15.4267 226.447 10.8838 222.661 8.1079 217.235C3.69111 208.401 3.43888 194.899 7.35052 177.233C10.1264 164.992 13.7865 155.024 14.0388 154.645C15.8058 149.976 21.1053 147.579 25.7744 149.345C30.4434 151.111 32.841 156.412 31.0747 161.081C31.0747 161.207 27.5414 170.419 25.1438 181.398C22.3679 194.269 22.1149 204.364 24.5125 209.159C25.017 210.043 25.2699 210.169 25.7744 210.295C30.4434 211.431 40.9172 206.636 48.4889 201.588C48.9934 201.21 49.7508 201.336 50.003 201.841C50.3813 202.345 50.2552 203.102 49.7508 203.355C44.0721 207.14 31.7052 213.955 25.2699 212.44C24.008 212.062 23.1246 211.431 22.494 210.169C19.8442 204.869 19.9703 194.269 22.9985 180.893C25.5221 169.662 28.9293 160.324 29.0554 160.198C30.4434 156.664 28.551 152.753 25.1438 151.364C21.6105 149.976 17.6988 151.742 16.3102 155.276C16.1841 155.654 12.3986 165.497 9.7481 177.611C5.96257 194.773 6.08866 207.771 10.3793 216.225C12.903 221.147 16.9415 224.428 22.115 225.689C28.8032 227.33 37.2577 225.563 47.227 220.642C54.0414 217.235 59.341 213.449 59.5939 213.323C59.9723 213.071 60.3513 212.692 60.6035 212.314C61.108 211.809 61.487 211.178 61.7393 210.547C61.9915 210.043 62.6228 209.79 63.2534 210.043C63.7578 210.295 64.0107 210.926 63.7578 211.557C63.3794 212.44 62.9611 213.327 62.3305 213.958C61.9522 214.462 60.8558 215.09 60.8558 215.09C60.2245 215.469 55.051 219.255 48.2367 222.662C40.1598 226.574 33.0932 228.466 27.0362 228.466Z" fill="#BF4B6F"/>
<path d="M66.1554 214.964L77.0075 204.111L81.0459 213.828L84.7054 222.661L75.8718 219.002L66.1554 214.964Z" fill="#FFCA3B"/>
<path d="M75.8718 219.002C76.503 217.992 77.1336 216.983 78.0171 215.973C78.9006 215.09 79.9102 214.333 80.9198 213.702L84.5792 222.535L75.8718 219.002Z" fill="#EA2A21"/>
<path d="M84.3169 222.837C83.6619 221.361 75.7213 220.049 75.5952 219.923L65.7771 215.973C65.3987 215.847 65.1458 215.469 65.1458 215.216C65.0197 214.837 65.1458 214.458 65.398 214.206L76.2501 203.354C76.5024 203.102 76.8814 202.976 77.2598 203.102C77.6381 203.228 77.891 203.48 78.0171 203.733L81.8352 213.386C81.9613 213.765 85.2431 221.651 84.8647 222.029C84.7379 222.155 84.4186 223.067 84.3169 222.837ZM67.5644 214.359L83.3934 221.77L76.2305 205.512L67.5644 214.359Z" fill="#E29700"/>
<path d="M22.277 149.649L11.4189 160.563L66.0749 214.941L76.9331 204.028L22.277 149.649Z" fill="#EA2A21"/>
<path d="M66.0801 215.96C65.8204 215.96 65.5614 215.861 65.3627 215.663L10.7062 161.284C10.3082 160.888 10.3068 160.244 10.7028 159.845L21.561 148.931C21.7515 148.74 22.0099 148.632 22.2797 148.632C22.5449 148.634 22.8086 148.737 22.9998 148.928L77.6571 203.307C77.8483 203.497 77.9561 203.756 77.9568 204.026C77.9575 204.296 77.851 204.555 77.6605 204.746L66.8023 215.66C66.6022 215.86 66.3419 215.96 66.0801 215.96ZM12.8617 160.559L66.0767 213.504L75.5002 204.033L22.2852 151.088L12.8617 160.559Z" fill="#B7130B"/>
<path d="M71.0732 210.257C70.821 210.257 70.9505 210.547 70.8244 210.295L16.058 155.907C15.6796 155.529 15.6796 154.771 16.058 154.393C16.4363 154.015 17.1937 154.015 17.5721 154.393L72.2124 208.781C72.5907 209.159 72.0862 209.504 71.7079 209.882C71.5818 210.134 71.3255 210.257 71.0732 210.257Z" fill="#B7130B"/>
<path d="M6.46771 157.17L19.0861 144.803L23.1246 148.967L10.7577 161.333L6.46771 157.17Z" fill="#E6ECFF"/>
<path d="M3.31276 141.648C6.34159 138.619 11.1367 138.619 14.1649 141.648L18.2027 145.686L7.35053 156.538L3.31276 152.499C0.28393 149.471 0.28393 144.55 3.31276 141.648Z" fill="#FFCA3B"/>
<path d="M7.35054 157.673C7.0983 157.673 6.71927 157.547 6.59316 157.295L2.55538 153.257C-0.851795 149.85 -0.851795 144.298 2.55538 140.764C5.96256 137.357 11.5151 137.357 15.0484 140.764L19.0861 144.803C19.4645 145.181 19.0835 145.522 18.7051 145.9L7.53904 156.538C7.28681 156.916 7.72956 157.673 7.35054 157.673ZM8.73849 140.386C7.0983 140.386 5.33132 141.017 4.06948 142.279C1.5458 144.803 1.5458 148.967 4.06948 151.617L8.14454 155.667L17.608 146.579L13.2807 142.279C12.0196 141.017 10.3794 140.386 8.73849 140.386Z" fill="#E29700"/>
<path d="M62.7482 188.59C62.6221 189.095 62.496 189.6 62.2437 189.978C61.9915 190.357 61.7393 190.736 61.3603 190.988C60.729 191.492 60.0984 191.997 59.5933 192.628C58.962 193.385 58.4575 194.016 58.0792 194.773C57.3218 196.035 57.0696 197.171 56.9435 198.18C56.6912 199.947 57.0696 201.209 57.0696 201.462L53.1579 207.519L49.4985 203.985C49.3724 203.733 48.7411 201.714 48.8672 198.685C48.9934 194.773 50.5075 189.473 56.439 184.804C58.206 183.416 60.6035 183.668 61.9915 185.435C62.6221 186.445 62.8743 187.581 62.7482 188.59Z" fill="#ED7E97"/>
<path d="M68.9313 191.871C69.1835 193.007 68.9313 194.269 68.3001 195.278C68.0478 195.531 67.7956 195.783 67.5427 196.036C67.1643 196.288 66.9114 196.54 66.5331 196.919C65.7757 197.551 65.1451 198.307 64.64 198.939C62.3685 201.967 61.9901 204.617 61.9901 205.122L53.0305 211.179L54.0401 204.996C54.0401 204.869 54.0401 203.986 54.4184 202.472C54.6706 201.462 55.0497 200.074 55.6803 198.686C55.8064 198.308 56.0586 197.803 56.3115 197.424C57.195 195.784 58.4569 193.891 60.2232 192.124C60.8544 191.493 61.485 190.862 62.2424 190.231C62.3685 190.105 62.6207 189.979 62.7469 189.853C64.5138 188.465 67.0375 188.843 68.2994 190.61C68.6791 190.862 68.8052 191.366 68.9313 191.871Z" fill="#ED7E97"/>
<path d="M73.222 200.831C73.0959 201.083 72.8437 201.335 72.7176 201.588C72.3392 202.093 71.7079 202.472 71.0774 202.598C65.2726 204.743 62.6228 210.926 62.6228 211.053C62.6228 211.053 58.3321 213.324 57.4493 213.198C55.304 212.946 54.4205 210.043 55.304 208.024C55.304 207.898 55.9352 206.636 56.9442 204.869C57.8277 203.481 59.0895 201.714 60.7297 200.074C62.6228 198.181 65.1465 196.289 68.3014 195.153C68.8059 195.027 69.3111 194.901 69.6894 194.901C71.3296 194.901 72.7182 195.91 73.3488 197.551C73.8533 198.686 73.7265 199.821 73.222 200.831Z" fill="#ED7E97"/>
<path d="M61.8647 185.561C61.8647 185.561 52.1483 188.337 48.7411 198.811C48.8673 194.899 50.3813 189.599 56.3129 184.93C58.0792 183.543 60.6029 183.795 61.8647 185.561Z" fill="#F490AA"/>
<path d="M68.9313 191.871C68.679 191.997 64.6406 190.862 56.8173 198.307C56.439 198.686 55.8077 198.56 55.6816 198.56C55.3033 198.56 55.4294 198.181 56.3128 197.298C56.439 197.172 57.0702 196.288 58.0798 194.9C58.5843 194.269 59.0894 193.638 59.5939 192.755C59.72 192.503 59.9723 192.25 60.0984 191.997C60.8558 190.988 61.7386 189.852 62.7482 188.716C62.6221 189.221 62.496 189.726 62.2437 190.104C62.3698 189.978 62.6221 189.852 62.7482 189.726C64.5152 188.338 67.0388 188.716 68.3007 190.483C68.679 190.862 68.8052 191.366 68.9313 191.871Z" fill="#F490AA"/>
<path d="M73.222 200.831C72.3385 197.55 67.9217 198.055 64.6413 198.812C62.496 199.316 60.8558 200.074 60.7296 200.074L66.5344 196.793L69.8155 194.899C71.4557 194.899 72.8443 195.909 73.4749 197.549C73.8533 198.686 73.7264 199.821 73.222 200.831Z" fill="#F490AA"/>
<path d="M48.9934 203.607C48.4889 203.607 47.9838 203.229 47.8577 202.723C47.2264 199.442 46.848 190.988 55.5555 184.047C56.5651 183.164 57.9531 182.785 59.341 182.912C60.729 183.038 61.8647 183.795 62.7482 184.805C64.1362 186.445 64.2623 188.843 63.1266 190.609C62.7482 191.114 62.1169 191.241 61.6125 190.988C61.108 190.609 60.9812 189.978 61.2341 189.474C61.8654 188.464 61.7386 187.076 60.9819 186.193C60.4774 185.561 59.8462 185.183 59.0888 185.183C58.3314 185.057 57.5747 185.309 56.9435 185.814C49.2456 191.997 49.4985 199.443 50.003 202.345C50.104 203.246 49.367 203.608 49.367 203.608C49.367 203.608 49.1195 203.607 48.9934 203.607Z" fill="#BF4B6F"/>
<path d="M55.1765 200.957C55.0504 200.957 54.9243 200.957 54.7981 200.831C54.1669 200.579 53.9147 199.947 54.1669 199.443C55.1765 196.541 57.4479 192.376 62.117 188.843C63.2527 187.96 64.5145 187.707 65.9025 187.834C67.2905 187.96 68.4262 188.717 69.3097 189.727C70.6977 191.493 70.9756 193.575 69.7138 195.342C69.3354 195.846 68.4262 196.415 67.9217 196.036C67.4173 195.657 67.2905 195.026 67.6695 194.522C68.4269 193.512 68.4269 192.124 67.6695 191.115C67.165 190.483 66.5338 190.105 65.7764 189.979C65.019 189.853 64.2623 190.105 63.6311 190.61C59.3404 193.891 57.3218 197.677 56.4383 200.2C56.06 200.578 55.5555 200.957 55.1765 200.957Z" fill="#BF4B6F"/>
<path d="M61.2341 214.207C61.108 214.207 60.9819 214.207 60.7296 214.081C60.2252 213.828 59.756 213.61 59.8821 213.106C59.8821 212.98 64.263 203.986 70.5722 201.588C71.0766 201.462 71.4557 201.209 71.7079 200.83C72.4653 200.073 72.5914 198.937 72.3391 197.928C72.0869 197.171 71.5818 196.666 70.8251 196.288C70.0677 195.91 69.311 195.91 68.6797 196.162C65.6509 197.298 62.875 199.191 60.4774 201.841C60.0991 202.345 59.3417 202.345 58.9633 201.967C58.4589 201.588 58.4589 200.831 58.8372 200.453C61.487 197.551 64.5158 195.405 67.923 194.143C69.1849 193.639 70.5729 193.765 71.8347 194.27C73.0965 194.901 73.98 195.91 74.4845 197.172C75.1157 198.939 74.7367 200.957 73.4749 202.345C72.9704 202.976 72.213 203.481 71.4557 203.733C66.1554 205.626 62.8655 213.093 62.9279 213.203C62.9279 213.203 61.6125 214.207 61.2341 214.207Z" fill="#BF4B6F"/>
<path d="M130.386 176.35C130.386 176.35 122.436 179 122.562 185.562C122.688 192.25 133.793 189.348 137.957 184.679L133.54 181.145L130.386 176.35Z" fill="#EA2A21"/>
<path d="M127.231 190.736C126.221 190.736 125.465 190.609 124.581 190.357C122.562 189.6 121.426 187.96 121.426 185.688C121.3 178.243 129.629 175.467 130.007 175.341C130.511 175.214 131.017 175.341 131.269 175.845L133.54 181.145L138.588 184.047C138.841 184.3 138.967 184.552 138.967 184.805C138.967 185.057 138.841 185.436 138.714 185.688C135.938 188.59 131.017 190.736 127.231 190.736ZM130.626 177.192C128.733 178.075 123.572 181.019 123.698 185.562C123.698 186.95 124.33 187.707 125.465 188.212C128.115 189.221 133.743 187.394 136.771 184.744L132.91 182.281C132.784 182.155 132.784 182.155 132.658 182.029L130.626 177.192Z" fill="#B7130B"/>
<path d="M123.319 189.222C122.941 189.222 122.688 189.095 122.436 188.717C122.058 188.213 122.184 187.581 122.688 187.203C122.94 186.951 128.997 182.534 132.91 180.389C133.414 180.136 134.171 180.262 134.424 180.893C134.676 181.398 134.55 182.155 133.919 182.407C130.134 184.426 123.95 189.095 123.95 189.095C123.824 189.095 123.572 189.222 123.319 189.222Z" fill="#B7130B"/>
<path d="M150.198 267.277C149.929 267.277 149.661 267.172 149.461 266.961C149.265 266.755 129.487 246.243 102.093 238.773C74.6865 231.3 51.734 236.72 51.5062 236.774C50.9611 236.906 50.4105 236.573 50.2776 236.026C50.1447 235.48 50.479 234.931 51.0248 234.798C51.2594 234.741 74.6933 229.192 102.629 236.81C130.585 244.434 150.735 265.348 150.935 265.559C151.323 265.965 151.307 266.609 150.9 266.996C150.702 267.184 150.45 267.277 150.198 267.277Z" fill="#8196C9"/>
<path d="M145.094 268.726C144.878 268.726 144.66 268.657 144.475 268.516C103.661 237.182 51.8676 241.088 51.3489 241.133C50.7888 241.167 50.2979 240.764 50.2511 240.204C50.2043 239.644 50.62 239.153 51.18 239.106C51.7069 239.064 104.263 235.08 145.714 266.902C146.159 267.244 146.243 267.882 145.901 268.328C145.701 268.589 145.399 268.726 145.094 268.726Z" fill="#8196C9"/>
<path d="M141.985 271.112C141.814 271.112 141.641 271.07 141.482 270.979C101.045 247.911 51.6934 244.53 51.1997 244.498C50.639 244.463 50.2139 243.979 50.2491 243.418C50.2851 242.858 50.7651 242.434 51.3286 242.468C51.8269 242.5 101.633 245.905 142.489 269.212C142.977 269.49 143.147 270.111 142.869 270.599C142.682 270.928 142.338 271.112 141.985 271.112Z" fill="#8196C9"/>
<path d="M150.198 267.277C149.946 267.277 149.694 267.185 149.497 266.997C149.091 266.61 149.074 265.965 149.462 265.559C149.662 265.348 169.813 244.435 197.769 236.811C225.706 229.193 249.14 234.742 249.372 234.798C249.918 234.931 250.252 235.481 250.119 236.027C249.987 236.573 249.438 236.91 248.89 236.775C248.662 236.72 225.709 231.3 198.304 238.774C170.888 246.25 151.132 266.757 150.935 266.962C150.735 267.171 150.467 267.277 150.198 267.277Z" fill="#8196C9"/>
<path d="M155.302 268.726C154.997 268.726 154.695 268.589 154.495 268.328C154.153 267.883 154.237 267.244 154.682 266.902C196.133 235.079 248.689 239.063 249.215 239.106C249.775 239.153 250.19 239.644 250.144 240.204C250.098 240.764 249.627 241.171 249.046 241.133C248.527 241.087 196.733 237.183 155.92 268.516C155.736 268.658 155.519 268.726 155.302 268.726Z" fill="#8196C9"/>
<path d="M158.41 271.112C158.057 271.112 157.714 270.929 157.526 270.599C157.247 270.111 157.418 269.49 157.906 269.212C198.761 245.905 248.568 242.5 249.066 242.468C249.635 242.434 250.11 242.858 250.146 243.418C250.182 243.979 249.756 244.463 249.196 244.498C248.702 244.53 199.351 247.91 158.914 270.979C158.755 271.069 158.581 271.112 158.41 271.112Z" fill="#8196C9"/>
<path d="M147.217 187.586C147.208 187.586 147.199 187.586 147.189 187.585C129.179 187.102 129.239 172.94 129.242 172.796C129.252 172.235 129.73 171.807 130.278 171.798C130.839 171.809 131.285 172.272 131.276 172.832C131.269 173.339 131.299 185.123 147.244 185.552C147.805 185.566 148.248 186.034 148.233 186.595C148.218 187.149 147.766 187.586 147.217 187.586Z" fill="#BF4B6F"/>
<path d="M10.7577 162.351C10.5021 162.351 10.2471 162.255 10.0498 162.063L5.75981 157.899C5.5625 157.709 5.4513 157.446 5.45063 157.172C5.44995 156.898 5.5598 156.635 5.75575 156.443L18.3742 144.077C18.5674 143.887 18.8271 143.797 19.099 143.786C19.3696 143.789 19.6279 143.9 19.8164 144.095L23.8548 148.259C24.242 148.658 24.2366 149.294 23.844 149.687L11.4771 162.053C11.2784 162.251 11.0181 162.351 10.7577 162.351ZM7.92414 157.166L10.7469 159.906L21.6966 148.957L19.0672 146.246L7.92414 157.166Z" fill="#8196C9"/>
<path d="M84.5792 223.552C84.451 223.552 84.3209 223.528 84.1975 223.478L75.49 219.944C75.2113 219.832 74.9971 219.601 74.9048 219.315C74.8126 219.029 74.8513 218.716 75.0106 218.462L75.4059 217.834C76.701 215.797 78.4103 214.077 80.3502 212.859C80.6045 212.701 80.9293 212.652 81.2154 212.742C81.5002 212.833 81.7463 213.035 81.8609 213.312L85.5203 222.145C85.677 222.524 85.5915 222.96 85.3027 223.251C85.106 223.448 84.845 223.552 84.5792 223.552ZM77.3885 218.52L82.7092 220.679L80.4628 215.256C79.2891 216.155 78.2483 217.261 77.3885 218.52Z" fill="#B7130B"/>
</svg>
