<svg width="300" height="308" viewBox="0 0 300 308" fill="none" xmlns="http://www.w3.org/2000/svg">
<path d="M142.486 265.66C215.846 265.66 275.316 206.19 275.316 132.83C275.316 59.4699 215.846 0 142.486 0C69.126 0 9.6561 59.4699 9.6561 132.83C9.6561 206.19 69.126 265.66 142.486 265.66Z" fill="#E6ECFF"/>
<path d="M142.486 307.228C186.752 307.228 222.636 304.317 222.636 300.726C222.636 297.135 186.752 294.224 142.486 294.224C98.2199 294.224 62.3353 297.135 62.3353 300.726C62.3353 304.317 98.2199 307.228 142.486 307.228Z" fill="#C7D1EA"/>
<path d="M183.615 226.723C181.132 237.835 177.467 250.248 174.63 261.478C171.675 272.472 168.602 283.585 165.41 294.578C163.873 300.489 154.534 298.716 155.125 292.686C157.962 270.698 160.563 246.7 162.809 224.594C163.991 211.118 185.27 213.246 183.615 226.723Z" fill="#ED7E97"/>
<path d="M118.005 293.16C118.123 298.953 109.257 300.253 107.72 294.579C104.528 283.585 101.455 272.59 98.4993 261.479C95.6624 250.839 92.4705 238.899 89.7512 228.26C86.3226 213.956 108.666 209.937 110.321 224.596C112.685 247.056 115.286 270.936 118.005 293.16Z" fill="#ED7E97"/>
<path d="M112.094 241.618L113.158 251.43C100.864 255.567 95.78 250.957 95.78 250.957L94.1249 244.928C92.7064 239.372 91.1696 233.934 89.7511 228.378C88.3326 222.821 91.6428 217.029 97.3168 215.61C102.873 214.192 108.665 217.502 110.084 223.176C110.203 223.648 110.321 224.122 110.321 224.713V224.831L112.094 241.618Z" fill="#E26988"/>
<path d="M183.615 226.723C183.615 227.195 183.496 227.787 183.378 228.259C181.959 233.816 180.541 239.372 179.004 244.81C179.004 244.81 171.202 253.085 159.971 249.775L161.153 241.5L162.926 224.596C163.517 218.803 168.719 214.666 174.393 215.256C180.068 215.847 184.206 221.049 183.615 226.723Z" fill="#E26988"/>
<path d="M187.161 296.707C187.161 296.825 187.161 296.825 187.161 296.707C184.679 302.617 156.189 305.218 155.125 293.87C155.125 293.751 155.125 293.515 155.125 293.397C155.125 293.279 155.125 293.16 155.125 292.924V292.688C155.125 292.333 155.243 291.978 155.243 291.624C155.243 291.505 155.243 291.387 155.361 291.269L161.39 289.495L167.183 287.722H167.301C169.193 287.84 186.098 288.904 187.28 295.642C187.398 295.997 187.398 296.352 187.161 296.707Z" fill="#ED7E97"/>
<path d="M187.161 296.707C187.161 296.825 187.161 296.825 187.161 296.707C187.161 296.707 179.832 291.978 166.474 290.559C166.119 290.559 165.765 290.441 165.41 290.441C163.282 290.204 161.981 287.958 162.809 286.067L175.694 257.341L174.63 261.479C172.265 270.227 169.901 278.975 167.418 287.722C169.31 287.841 186.215 288.904 187.397 295.643C187.398 295.997 187.398 296.352 187.161 296.707Z" fill="#F490AA"/>
<path d="M118.005 293.16C118.005 293.751 117.887 294.342 117.768 294.934C115.049 305.928 84.6682 302.145 85.7317 295.643C86.9136 289.023 103.819 287.841 105.71 287.722C105.828 287.722 105.828 287.722 105.828 287.722L110.084 289.023L117.65 291.269C117.65 291.387 117.65 291.505 117.768 291.741C117.887 292.096 117.887 292.451 117.887 292.687V292.805C118.005 292.924 118.005 292.924 118.005 293.16C118.005 293.042 118.005 293.042 118.005 293.16Z" fill="#ED7E97"/>
<path d="M110.32 289.023C110.793 290.204 109.965 291.387 108.665 291.387C108.074 291.387 107.483 291.387 106.892 291.387C93.6517 291.624 85.8494 295.525 85.8494 295.525C87.0312 288.904 103.937 287.722 105.828 287.604C103.345 278.856 100.981 270.108 98.6163 261.36L97.5521 257.223L110.32 289.023Z" fill="#F490AA"/>
<path d="M117.887 294.815C115.167 305.81 84.7864 302.027 85.85 295.525C85.85 295.643 102.991 301.081 117.887 294.815Z" fill="#E26988"/>
<path d="M187.161 296.825C184.679 302.735 156.189 305.336 155.125 293.87C155.243 293.87 155.361 293.87 155.361 293.87C155.361 293.87 167.301 301.672 187.161 296.825Z" fill="#E26988"/>
<path d="M188.462 295.525C187.209 288.732 173.211 287.206 168.592 286.862C171.185 277.705 173.647 268.74 175.459 261.834L179.832 245.283C181.369 239.727 182.788 234.171 184.206 228.614C184.443 228.142 184.561 227.432 184.561 226.959C184.915 224.004 183.97 220.93 182.078 218.566C180.069 216.202 177.35 214.783 174.276 214.428C171.321 214.074 168.247 215.019 165.883 216.911C163.519 218.92 162.1 221.64 161.745 224.713L159.972 241.618L158.08 258.523C157.016 268.572 155.597 280.393 154.061 292.333L154.081 292.335C153.793 295.305 155.022 297.801 157.607 299.662C160.799 301.909 165.764 302.854 170.729 302.854C176.758 302.854 182.787 301.554 185.98 299.662C188.344 298.126 188.699 296.589 188.462 295.525ZM184.797 297.771C179.832 301.081 165.055 302.381 158.908 298.007C156.662 296.352 155.834 294.224 156.425 291.505C158.079 279.447 159.144 268.689 160.09 258.878L161.982 241.855L163.755 224.832C163.992 222.231 165.174 219.984 167.184 218.448C169.075 216.911 171.558 216.202 174.04 216.438C176.641 216.675 178.887 217.857 180.424 219.867C181.961 221.758 182.67 224.241 182.433 226.723C182.433 227.196 182.315 227.669 182.197 228.142C180.778 233.698 179.242 239.136 177.823 244.692L173.449 261.243C171.558 268.453 168.957 277.911 166.238 287.486C166.205 287.653 166.203 287.818 166.225 287.974C166.237 288.105 166.275 288.226 166.338 288.332C166.458 288.559 166.66 288.729 166.947 288.787C167.12 288.821 167.292 288.822 167.453 288.796C172.607 288.969 185.404 290.767 186.334 295.761C186.452 296.588 185.506 297.298 184.797 297.771Z" fill="#BF4B6F"/>
<path d="M119.174 292.334L119.188 292.333C117.651 280.393 116.232 268.571 115.168 258.523L113.276 241.618L111.503 224.713V224.595C111.385 224.004 111.266 223.531 111.148 222.94C109.493 216.793 103.227 213.128 97.0801 214.665C94.0066 215.492 91.5239 217.384 89.9871 219.985C88.4503 222.704 88.096 225.777 88.8053 228.733C90.2237 234.407 91.7605 239.845 93.179 245.401L97.5528 261.952C99.404 269.009 102.095 277.404 104.758 286.735C100.233 287.064 85.9441 288.561 84.7858 295.406C84.6675 296.471 84.9041 298.007 87.2685 299.544C90.342 301.554 96.3716 302.854 102.4 302.854C107.365 302.854 112.33 301.909 115.641 299.544C118.193 297.809 119.42 295.277 119.174 292.334ZM114.34 297.889C108.193 302.145 93.534 300.844 88.451 297.653C87.6234 297.18 86.7958 296.471 86.9142 295.643C87.8594 290.56 100.982 288.905 106.065 288.668C106.468 288.668 106.868 288.324 106.978 287.857C107.013 287.792 107.032 287.713 107.011 287.604C107.011 287.468 106.968 287.333 106.898 287.208C104.213 277.769 101.428 268.472 99.5622 261.361L95.1884 244.811C93.6516 239.373 92.2331 233.816 90.8147 228.26C89.5138 223.295 92.4698 218.093 97.5528 216.793C102.517 215.492 107.719 218.448 109.02 223.531C109.138 224.004 109.256 224.359 109.256 224.832L111.03 241.855L112.921 258.759C113.986 268.69 115.404 280.629 116.941 292.57L116.982 292.565C117.136 294.795 116.261 296.474 114.34 297.889Z" fill="#BF4B6F"/>
<path d="M274.395 198.395C251.576 223.054 227.051 219.215 206.447 208.085C206.606 207.768 214.075 196.306 214.447 195.566C256.129 218.196 276.171 175.347 281.345 140.514C282.838 130.947 297.849 133.451 296.092 143.018C293.962 154.118 288.427 181.761 274.395 198.395Z" fill="#ED7E97"/>
<path d="M237.066 201.623C246.953 201.425 255.787 196.995 263.2 188.547C272.413 178.091 278.417 155.577 280.705 144.161C280.652 144.795 279.038 165.676 272.727 179.836C266.365 194.102 251.809 206.506 237.066 201.623Z" fill="#F490AA"/>
<path d="M274.395 198.395C258.934 216.032 241.168 217.7 228.905 216.045C220.606 214.924 213.843 212.059 209.934 210.098C207.82 209.038 206.5 208.243 206.394 208.19L207.348 206.817L214.922 195.936C216.666 196.943 223.164 200.336 231.462 201.457C231.832 201.51 232.202 201.563 232.466 201.564C232.466 201.564 234.675 210.608 245.829 211.31C256.983 212.012 278.884 201.838 295.506 145.767C293.962 154.646 287.421 183.503 274.395 198.395Z" fill="#E26988"/>
<path d="M286.473 141.102C286.79 140.997 287.689 140.522 288.96 139.308C289.383 138.991 289.754 138.515 290.125 138.04C291.342 136.668 292.614 134.66 293.728 131.913C294.63 129.588 295.427 126.681 295.907 123.087C296.122 121.078 294.696 119.173 292.688 118.959C291.049 118.798 289.515 119.748 288.825 121.121C288.666 121.438 288.613 121.808 288.559 122.178C287.704 129.155 285.426 132.377 284.261 133.645C283.944 134.014 283.573 134.225 283.52 134.331L283.679 134.278L286.473 141.102Z" fill="#ED7E97"/>
<path d="M283.881 142.315C285.413 142.951 287.105 142.477 288.111 141.263C288.376 140.999 288.588 140.576 288.747 140.259C288.906 139.942 288.96 139.572 288.96 139.308C289.121 137.67 288.224 136.03 286.692 135.393C285.688 135.022 284.842 134.333 284.157 133.592C283.628 133.062 283.154 132.428 282.89 131.898C281.94 130.364 281.466 128.936 281.519 128.83C280.94 126.82 278.985 125.707 277.029 126.181C275.073 126.654 273.906 128.714 274.38 130.671C274.432 131.094 276.641 139.344 283.881 142.315Z" fill="#ED7E97"/>
<path d="M294.663 144.814C293.181 146.187 290.801 146.184 289.429 144.702C288.056 143.22 288.059 140.841 289.541 139.468C290.812 138.253 291.182 137.514 291.395 137.091C290.18 135.82 289.919 133.97 290.925 132.491C292.037 130.801 294.417 130.275 296.107 131.388C297.322 132.13 298.694 133.876 298.85 136.202C299.006 138.528 298.103 140.854 296.039 143.389C295.721 143.758 295.192 144.286 294.663 144.814Z" fill="#ED7E97"/>
<path d="M295.72 144.287C295.614 144.234 295.614 144.234 295.509 144.181C295.034 143.81 295.03 142.664 295.506 142.241C297.413 140.024 298.16 138.369 298.004 136.307C297.796 134.35 296.687 132.868 295.684 132.233C295.314 131.915 294.838 131.809 294.31 131.808C293.781 131.807 293.253 131.278 293.254 130.749C293.255 130.22 293.784 129.693 294.313 129.693C295.212 129.748 296.004 130.013 296.691 130.49C298.064 131.443 299.753 133.349 299.961 136.098C300.222 138.742 299.161 141.384 296.937 143.972C296.619 144.341 296.038 144.446 295.72 144.287Z" fill="#BF4B6F"/>
<path d="M293.622 132.124L293.728 131.913C294.63 129.588 295.427 126.682 295.908 123.087C296.122 121.079 294.697 119.174 292.688 118.959C291.05 118.799 289.515 119.748 288.826 121.122C289.408 121.017 295.541 120.126 293.622 132.124Z" fill="#F490AA"/>
<path d="M274.327 130.777C274.803 130.09 277.134 127.291 282.89 131.898C281.94 130.364 281.466 128.936 281.519 128.83C280.94 126.82 278.985 125.707 277.029 126.181C275.02 126.76 273.748 128.767 274.327 130.777Z" fill="#F490AA"/>
<path d="M283.84 134.673C284.422 133.48 283.468 134.437 283.362 134.384C282.887 134.014 282.941 133.379 283.311 132.904C284.423 131.742 286.595 128.731 287.397 122.124C287.504 120.855 288.193 119.746 289.251 118.954C290.31 118.163 291.526 117.847 292.795 117.955C294.064 118.062 295.173 118.751 295.965 119.809C296.756 120.867 297.072 122.084 296.964 123.353C296.483 127.211 295.58 130.594 294.308 133.394C294.043 133.922 293.513 134.186 292.985 133.921C292.457 133.656 292.193 133.127 292.458 132.598C293.678 129.904 294.475 126.733 294.956 123.138C295.063 122.398 294.852 121.764 294.377 121.128C294.008 120.547 293.268 120.175 292.634 120.122C291.894 120.015 291.259 120.226 290.623 120.701C290.042 121.07 289.67 121.809 289.617 122.444C288.708 129.791 286.329 133.078 285.006 134.398C284.804 134.546 284.263 134.885 283.84 134.673Z" fill="#BF4B6F"/>
<path d="M280.709 141.782L280.603 141.729C275.11 137.915 273.374 131.357 273.269 131.04C272.953 129.824 273.061 128.555 273.749 127.445C274.438 126.336 275.391 125.492 276.713 125.229C279.304 124.545 281.84 126.082 282.524 128.673C282.524 128.673 283.075 131.217 284.818 133.016C285.24 133.493 285.372 134.069 284.949 134.386C284.472 134.808 283.679 134.808 283.362 134.384C281.303 132.161 280.62 129.305 280.567 129.146C280.199 127.771 278.667 126.87 277.292 127.239C276.551 127.396 276.022 127.925 275.598 128.506C275.28 129.14 275.173 129.88 275.384 130.514C275.383 130.779 277.162 136.405 281.968 139.742C282.443 140.112 282.454 140.939 282.189 141.467C281.872 141.836 281.237 142.047 280.709 141.782Z" fill="#BF4B6F"/>
<path d="M209.509 210.944C207.29 209.831 205.97 209.036 205.864 208.983C205.653 208.877 205.495 208.665 205.389 208.348C205.389 208.084 205.389 207.82 205.495 207.608L213.442 195.195C213.495 195.089 213.495 195.089 213.548 194.984C213.918 194.509 214.5 194.404 215.028 194.669C215.134 194.722 222.212 199.067 231.621 200.348C243.567 201.844 253.882 197.629 262.46 187.913C272.626 176.348 278.847 149.711 280.446 140.461C280.605 139.88 281.082 139.457 281.663 139.616C282.244 139.776 282.666 140.252 282.507 140.833C280.909 150.348 274.476 177.407 263.991 189.341C254.99 199.639 244.041 204.065 231.355 202.462C223.426 201.394 217.138 198.372 214.867 197.101L207.98 207.929C208.614 208.248 209.406 208.777 210.462 209.307C214.583 211.375 221.189 214.027 229.117 215.095C241.01 216.697 258.459 215.134 273.655 197.761C288.693 180.704 294.874 144.393 295.088 142.913C295.247 142.332 295.724 141.909 296.305 142.068C296.886 142.228 297.308 142.704 297.149 143.285C296.882 144.871 290.595 181.659 275.187 199.19C259.408 217.197 241.219 218.918 228.85 217.209C220.605 215.981 213.736 213.064 209.509 210.944Z" fill="#BF4B6F"/>
<path d="M260.821 183.456C260.821 201.188 246.398 215.611 228.666 215.611C228.311 215.611 227.838 215.611 227.484 215.611C223.701 229.088 211.289 239.018 196.512 239.018C190.601 239.018 185.045 237.481 180.316 234.644C174.406 242.683 164.948 247.884 154.308 247.884C145.797 247.884 138.113 244.574 132.438 239.254C126.645 244.574 118.961 247.884 110.568 247.884C100.52 247.884 91.535 243.274 85.6245 236.062C81.4867 237.954 76.9946 239.018 72.1476 239.018C59.38 239.018 48.3865 231.57 43.1845 220.93C42.8296 220.103 42.357 219.275 42.1203 218.329C41.2928 218.448 40.3469 218.684 39.5193 218.802C38.3375 218.92 37.0367 219.039 35.7365 219.039C22.9689 219.039 11.9753 211.591 6.77339 200.833C4.76398 196.577 3.58148 191.849 3.58148 186.765C3.58148 180.972 5.11828 175.653 7.71926 170.924C3.46317 165.486 0.981155 158.63 0.981155 151.182C0.981155 136.405 11.0295 123.874 24.6247 120.091C23.7971 117.254 23.4428 114.298 23.4428 111.224C23.4428 93.4921 37.8649 79.0694 55.5978 79.0694C60.0899 79.0694 64.4643 80.0153 68.3654 81.6704C70.8481 66.3024 84.0883 54.4807 100.166 54.4807C110.686 54.4807 120.026 59.5637 125.937 67.366C131.493 57.7902 142.605 51.4064 154.427 51.4064C171.213 51.4064 185.045 64.2917 186.463 80.7239C189.655 79.6597 193.084 79.0687 196.63 79.0687C214.362 79.0687 228.785 93.4908 228.785 111.224C228.785 111.46 228.785 111.696 228.785 112.051C231.268 112.642 233.632 113.47 235.76 114.534C246.517 119.735 253.847 130.729 253.847 143.497C253.847 149.172 252.428 154.491 249.827 159.102C256.566 165.132 260.821 173.762 260.821 183.456Z" fill="#FC9DB8"/>
<path d="M245.926 168.56C245.926 186.293 231.504 200.715 213.771 200.715C213.416 200.715 212.943 200.715 212.588 200.715C208.805 214.192 196.393 224.122 181.616 224.122C175.705 224.122 170.149 222.585 165.42 219.749C159.51 227.787 150.052 232.989 139.412 232.989C130.901 232.989 123.217 229.679 117.542 224.359C111.749 229.679 104.065 232.989 95.6722 232.989C85.6238 232.989 76.639 228.378 70.7285 221.167C66.5907 223.059 62.0986 224.122 57.2516 224.122C52.1686 224.122 47.4399 222.94 43.1839 220.93C41.8837 220.339 40.5829 219.512 39.401 218.803C33.8448 215.138 29.5893 209.819 27.225 203.553C24.9789 204.026 22.4963 204.262 20.1319 204.144C15.4032 204.026 10.7928 202.844 6.77339 200.952C4.76398 196.696 3.58148 191.968 3.58148 186.884C3.58148 181.091 5.11828 175.772 7.71926 171.043C3.46317 165.605 0.981155 158.749 0.981155 151.301C0.981155 136.524 11.0295 123.993 24.6247 120.21C23.7971 117.373 23.4428 114.417 23.4428 111.343C23.4428 93.6111 37.8649 79.1884 55.5978 79.1884C60.0899 79.1884 64.4643 80.1342 68.3654 81.7893C70.8481 66.4214 84.0883 54.5996 100.166 54.5996C110.686 54.5996 120.026 59.6826 125.937 67.4849C126.173 67.4849 126.409 67.4849 126.646 67.4849C132.202 57.9092 142.606 51.5261 154.427 51.5261C171.213 51.5261 185.045 64.4113 186.463 80.8435C189.655 79.7793 193.084 79.1884 196.63 79.1884C214.362 79.1884 228.785 93.6104 228.785 111.343C228.785 111.58 228.785 111.816 228.785 112.171C231.268 112.762 233.632 113.589 235.76 114.654C237.769 118.91 238.952 123.638 238.952 128.721C238.952 134.396 237.533 139.716 234.932 144.326C241.67 150.119 245.926 158.867 245.926 168.56Z" fill="#FFA6BD"/>
<path d="M228.666 111.344C217.908 76.5887 183.98 86.2821 183.98 86.2821C183.98 86.2821 180.315 67.8405 159.982 62.2843C139.767 56.8463 127 74.4603 127 74.4603C127 74.4603 116.36 62.9935 98.6274 64.8846C80.8951 66.7763 73.8021 89.7099 73.8021 89.7099C73.8021 89.7099 58.7884 84.5086 41.7654 93.3744C24.8606 102.241 28.8801 126.357 28.8801 126.357C-5.0477 144.089 7.24665 170.57 7.36497 170.925C3.10888 165.487 0.626865 158.63 0.626865 151.182C0.626865 136.405 10.6752 123.874 24.2704 120.092C23.4428 117.255 23.0885 114.299 23.0885 111.225C23.0885 93.4928 37.5106 79.07 55.2435 79.07C59.7356 79.07 64.11 80.0159 68.0112 81.671C70.4938 66.3031 83.7341 54.4813 99.8112 54.4813C110.332 54.4813 119.671 59.5643 125.582 67.3666C125.819 67.3666 126.055 67.3666 126.292 67.3666C131.848 57.7909 142.251 51.4071 154.072 51.4071C170.859 51.4071 184.691 64.2924 186.109 80.7245C189.301 79.6603 192.729 79.0694 196.276 79.0694C214.244 79.189 228.666 93.6111 228.666 111.344Z" fill="#FFB8CC"/>
<path d="M140.595 231.806C140.123 231.451 140.123 230.742 140.477 230.388C146.152 223.413 140.477 212.419 140.359 212.301C140.122 211.828 140.241 211.236 140.595 211C149.58 204.144 154.545 196.578 155.609 188.539C156.791 178.609 151.117 171.398 151.117 171.28C150.762 170.925 150.762 170.334 151.235 169.861C163.411 157.212 151.708 142.081 151.117 141.371C150.762 140.899 150.88 140.307 151.235 139.953C151.708 139.598 152.3 139.716 152.654 140.071C152.772 140.19 165.539 156.74 153.126 170.571C154.663 172.699 158.564 179.555 157.5 188.54C156.436 196.933 151.471 204.736 142.368 211.829C143.668 214.666 147.57 224.478 141.896 231.453C141.384 232.111 140.832 231.925 140.595 231.806Z" fill="#ED7E97"/>
<path d="M154.308 248.865C146.193 248.865 138.459 245.928 132.432 240.575C126.293 245.928 118.565 248.865 110.568 248.865C100.829 248.865 91.6795 244.644 85.348 237.258C81.1331 239.076 76.6959 239.998 72.1476 239.998C59.5532 239.998 47.8387 232.683 42.3034 221.361C42.185 221.089 42.0778 220.86 41.9693 220.629C41.7968 220.262 41.6105 219.866 41.4477 219.441C41.3045 219.469 41.1607 219.498 41.0163 219.526C40.5528 219.619 40.0894 219.711 39.6566 219.773C38.4525 219.895 37.0962 220.019 35.7359 220.019C22.9212 220.019 11.4851 212.831 5.88963 201.261C3.70569 196.633 2.60032 191.759 2.60032 186.765C2.60032 181.287 3.93056 175.993 6.55442 171.017C2.26434 165.312 0 158.468 0 151.182C0 136.637 9.58421 123.716 23.4245 119.422C22.7774 116.881 22.4616 114.189 22.4616 111.224C22.4616 92.9535 37.3263 78.0889 55.5972 78.0889C59.6637 78.0889 63.7917 78.8544 67.6131 80.3107C70.7069 64.7036 84.208 53.4995 100.165 53.4995C110.176 53.4995 119.453 57.9119 125.835 65.6553C131.837 56.36 142.898 50.4253 154.426 50.4253C171.068 50.4253 185.282 63.0694 187.313 79.4296C190.347 78.5386 193.475 78.0876 196.63 78.0876C214.901 78.0876 229.765 92.9522 229.765 111.223V111.284C232.094 111.888 234.255 112.685 236.198 113.656C247.685 119.21 254.827 130.646 254.827 143.496C254.827 148.943 253.526 154.249 251.056 158.896C257.992 165.378 261.802 174.069 261.802 183.455C261.802 201.726 246.937 216.59 228.666 216.59H228.218C223.997 230.409 211.067 239.997 196.512 239.997C190.816 239.997 185.327 238.593 180.574 235.926C174.27 244.044 164.517 248.865 154.308 248.865ZM132.438 238.274C132.679 238.274 132.921 238.363 133.109 238.538C138.863 243.933 146.391 246.904 154.308 246.904C164.187 246.904 173.615 242.103 179.526 234.063C179.827 233.656 180.388 233.543 180.82 233.803C185.438 236.573 190.864 238.038 196.512 238.038C210.442 238.038 222.789 228.707 226.54 215.346C226.659 214.923 227.045 214.63 227.484 214.63H228.666C245.856 214.63 259.841 200.645 259.841 183.456C259.841 174.379 256.052 165.989 249.174 159.833C248.831 159.525 248.748 159.021 248.973 158.62C251.52 154.106 252.866 148.877 252.866 143.498C252.866 131.406 246.148 120.647 235.333 115.417C233.304 114.403 231.029 113.593 228.558 113.006C228.116 112.9 227.804 112.506 227.804 112.052V111.224C227.804 94.0347 213.82 80.0499 196.631 80.0499C193.284 80.0499 189.968 80.5899 186.774 81.6547C186.488 81.7501 186.177 81.709 185.925 81.5442C185.674 81.3795 185.513 81.1082 185.487 80.8089C184.112 64.8716 170.468 52.3876 154.427 52.3876C143.089 52.3876 132.239 58.4603 126.785 67.8589C126.62 68.1426 126.324 68.3249 125.997 68.3452C125.67 68.3674 125.354 68.2203 125.155 67.9589C119.138 60.0167 110.03 55.4619 100.166 55.4619C84.7682 55.4619 71.8018 66.5502 69.3336 81.8273C69.2852 82.1247 69.1035 82.3836 68.8394 82.5293C68.5766 82.6751 68.2602 82.6921 67.9824 82.5738C64.0917 80.9232 59.8095 80.0506 55.5978 80.0506C38.4081 80.0506 24.4233 94.0353 24.4233 111.225C24.4233 114.371 24.7972 117.181 25.566 119.817C25.6392 120.069 25.6091 120.339 25.4816 120.568C25.3542 120.798 25.1404 120.966 24.8874 121.036C11.3897 124.792 1.96168 137.188 1.96168 151.182C1.96168 158.245 4.21948 164.863 8.49126 170.32C8.73312 170.63 8.76712 171.053 8.5782 171.397C5.91316 176.242 4.56136 181.413 4.56136 186.766C4.56136 191.468 5.60397 196.061 7.65913 200.415C12.9206 211.295 23.6808 218.058 35.7365 218.058C37.0066 218.058 38.3042 217.938 39.4213 217.827C39.7795 217.775 40.2057 217.689 40.6319 217.604C41.0921 217.512 41.5523 217.42 41.9818 217.359C42.4792 217.292 42.9498 217.604 43.0714 218.091C43.2165 218.673 43.4728 219.218 43.7447 219.796C43.863 220.047 43.9794 220.296 44.0859 220.545C49.2742 231.153 60.2971 238.038 72.1476 238.038C76.6593 238.038 81.0566 237.073 85.2166 235.171C85.6212 234.986 86.101 235.096 86.3828 235.441C92.3534 242.726 101.168 246.904 110.568 246.904C118.365 246.904 125.897 243.931 131.775 238.532C131.962 238.36 132.201 238.274 132.438 238.274Z" fill="#BF4B6F"/>
<path d="M81.7233 138.77C76.522 151.655 81.1324 165.605 91.89 169.861C102.648 174.117 115.533 167.142 120.616 154.256C125.818 141.371 121.207 127.421 110.45 123.165C99.6923 118.91 86.9253 125.884 81.7233 138.77Z" fill="white"/>
<path d="M98.5104 172.107C96.1461 172.107 93.7817 171.634 91.5357 170.806C80.3049 166.314 75.4585 151.773 80.7781 138.297C83.3791 131.795 87.8712 126.594 93.5457 123.52C99.2203 120.446 105.367 119.974 110.924 122.102C122.155 126.594 127.001 141.135 121.681 154.611C119.08 161.113 114.588 166.314 108.914 169.388C105.485 171.161 101.938 172.107 98.5104 172.107ZM103.83 122.929C100.756 122.929 97.5645 123.757 94.491 125.412C89.2896 128.249 85.0336 133.096 82.6692 139.125C77.7039 151.419 82.0783 164.778 92.2449 168.915C97.0919 170.925 102.648 170.452 107.849 167.615C113.051 164.778 117.307 159.931 119.671 153.902C124.637 141.608 120.262 128.249 110.096 124.112C108.085 123.283 105.958 122.929 103.83 122.929Z" fill="#BF4B6F"/>
<path d="M113.604 151.788C114.801 143.186 109.741 135.373 102.303 134.338C94.8646 133.303 87.8646 139.438 86.6678 148.041C85.471 156.643 90.5306 164.456 97.9688 165.49C105.407 166.525 112.407 160.39 113.604 151.788Z" fill="#22213F"/>
<path d="M100.402 143.972C99.574 145.981 97.0913 146.927 94.727 145.981C92.3626 145.035 91.1808 142.671 92.0077 140.661C92.8352 138.652 95.3179 137.706 97.6822 138.652C99.9289 139.597 101.111 141.962 100.402 143.972Z" fill="white"/>
<path d="M206.442 136.879C211.88 149.646 207.623 163.714 196.984 168.206C186.345 172.698 173.341 166.078 167.903 153.311C162.465 140.543 166.72 126.475 177.36 121.983C187.882 117.373 201.004 124.111 206.442 136.879Z" fill="white"/>
<path d="M190.01 170.57C180.789 170.57 171.331 164.068 166.958 153.666C161.283 140.425 165.776 125.767 176.888 120.92C188 116.191 201.713 123.047 207.388 136.406C213.062 149.646 208.57 164.305 197.458 169.152C194.975 170.097 192.492 170.57 190.01 170.57ZM184.335 121.511C182.089 121.511 179.843 121.983 177.715 122.811C167.666 127.067 163.647 140.543 168.848 152.72C174.049 164.897 186.462 171.398 196.629 167.024C206.677 162.768 210.696 149.292 205.495 137.115C201.359 127.54 192.729 121.511 184.335 121.511Z" fill="#BF4B6F"/>
<path d="M186.683 163.187C194.096 161.983 198.976 154.056 197.583 145.484C196.19 136.911 189.052 130.937 181.639 132.142C174.226 133.347 169.346 141.273 170.739 149.846C172.132 158.419 179.27 164.392 186.683 163.187Z" fill="#22213F"/>
<path d="M174.523 139.597C173.696 141.607 174.996 143.971 177.242 144.917C179.606 145.863 182.089 144.917 182.917 142.907C183.744 140.898 182.444 138.534 180.198 137.588C177.834 136.642 175.351 137.588 174.523 139.597Z" fill="white"/>
<path d="M169.322 97.394C176.178 99.7583 182.681 99.1674 183.745 96.0938C184.809 92.9019 180.198 88.4098 173.341 86.0455C166.485 83.6811 159.983 84.2721 158.919 87.3457C157.855 90.4192 162.466 94.912 169.322 97.394Z" fill="#ED7E97"/>
<path d="M177.361 99.8766C174.76 99.8766 171.923 99.2857 169.086 98.3398C165.657 97.158 162.584 95.3846 160.456 93.3745C158.21 91.1285 157.264 88.8824 157.973 86.9907C158.683 85.099 160.81 83.7988 163.884 83.5622C166.721 83.3255 170.268 83.7988 173.696 84.9806C177.124 86.1625 180.198 87.9359 182.325 89.946C184.572 92.192 185.517 94.438 184.808 96.3298C184.099 98.2215 181.971 99.5217 178.898 99.7583C178.424 99.8766 177.834 99.8766 177.361 99.8766ZM165.421 85.4546C164.948 85.4546 164.475 85.4546 164.121 85.5729C161.875 85.8095 160.338 86.5187 159.983 87.5823C159.628 88.6465 160.338 90.1833 161.992 91.8384C163.884 93.6118 166.603 95.2669 169.795 96.3304C172.986 97.3946 176.178 97.9855 178.779 97.7489C181.025 97.5123 182.561 96.803 182.916 95.7395C183.271 94.6753 182.561 93.1385 180.907 91.4834C179.015 89.71 176.297 88.0549 173.105 86.9913C170.385 85.9272 167.785 85.4546 165.421 85.4546Z" fill="#BF4B6F"/>
<path d="M118.725 103.068C125.463 100.232 129.838 95.3845 128.537 92.3109C127.237 89.2373 120.735 89.0007 113.997 91.8383C107.259 94.6753 102.884 99.5223 104.185 102.596C105.485 105.669 111.987 105.906 118.725 103.068Z" fill="#ED7E97"/>
<path d="M109.859 106.142C109.741 106.142 109.504 106.142 109.386 106.142C106.194 106.024 104.067 104.96 103.239 103.068C102.412 101.177 103.239 98.8124 105.367 96.4481C107.376 94.3203 110.214 92.3103 113.642 90.8918C120.971 87.8182 127.946 88.1725 129.483 91.956C131.02 95.6205 126.528 100.94 119.08 104.014C115.888 105.433 112.578 106.142 109.859 106.142ZM122.745 90.8925C120.38 90.8925 117.544 91.4834 114.352 92.7842C111.278 94.0844 108.559 95.8578 106.786 97.7495C105.249 99.4046 104.658 101.06 105.131 102.123C105.603 103.187 107.14 103.897 109.387 103.897C111.988 104.015 115.18 103.306 118.253 102.005C124.874 99.168 128.42 94.7936 127.474 92.6659C127 91.6017 125.346 90.8925 122.745 90.8925Z" fill="#BF4B6F"/>
<path d="M88.3438 83.2085C88.1072 83.2085 87.9888 83.2085 87.7529 82.9719C87.2803 82.6169 87.1619 82.026 87.5162 81.5534C87.6345 81.4351 95.7911 69.7317 109.386 75.5245C109.859 75.7612 110.214 76.3521 109.977 76.943C109.741 77.4156 109.15 77.7706 108.559 77.5339C96.5004 72.4509 89.5256 82.381 89.1713 82.8536C89.053 82.9719 88.6981 83.2085 88.3438 83.2085Z" fill="#ED7E97"/>
<path d="M98.7464 216.911C96.3821 216.911 89.289 216.202 86.6881 208.163C86.5697 207.572 86.8064 206.981 87.3973 206.863C87.9882 206.744 88.5792 206.981 88.6975 207.572C91.1801 215.492 98.8641 214.902 99.2184 214.783C99.8093 214.783 100.283 215.138 100.4 215.729C100.4 216.32 100.045 216.793 99.4544 216.912C99.4557 216.793 99.2197 216.911 98.7464 216.911Z" fill="#ED7E97"/>
<path d="M172.278 227.432C170.859 227.432 169.323 227.195 167.549 226.486C166.958 226.249 166.722 225.658 166.958 225.186C167.195 224.595 167.786 224.358 168.258 224.595C176.061 227.55 180.317 221.049 180.434 220.812C180.789 220.339 181.38 220.221 181.853 220.457C182.326 220.812 182.444 221.403 182.208 221.876C182.326 221.876 178.779 227.432 172.278 227.432Z" fill="#ED7E97"/>
<path d="M62.5726 182.273C62.4543 182.273 62.336 182.273 62.2176 182.155C62.0993 182.155 53.1152 178.609 54.652 168.678C54.7703 168.087 55.2429 167.732 55.8338 167.851C56.4247 167.969 56.7797 168.441 56.6614 169.032C55.3612 177.307 62.5719 180.145 62.8086 180.263C63.3995 180.5 63.6361 181.091 63.3995 181.563C63.4001 182.037 62.9269 182.273 62.5726 182.273Z" fill="#ED7E97"/>
<path d="M204.314 189.721C203.723 189.721 203.25 189.249 203.25 188.775C203.25 188.184 203.605 187.711 204.196 187.711C212.589 187.239 213.653 179.554 213.771 179.2C213.89 178.609 214.362 178.254 214.953 178.254C215.544 178.372 215.899 178.845 215.899 179.436C215.781 179.555 214.362 189.13 204.314 189.721Z" fill="#ED7E97"/>
<path d="M43.6578 132.268C43.0669 132.268 42.5936 131.796 42.5936 131.204C42.2387 117.491 52.7602 114.181 55.7155 113.472C56.7797 108.506 59.0257 104.724 62.336 102.478C67.6556 98.9314 73.6844 100.232 74.0394 100.232C74.6303 100.35 74.9853 100.941 74.8669 101.413C74.7486 102.004 74.1577 102.359 73.6851 102.241C73.5668 102.241 68.1288 101.177 63.6368 104.133C60.5632 106.142 58.6714 109.689 57.7262 114.418C57.6079 114.89 57.2536 115.245 56.7803 115.245C56.3077 115.364 44.3677 117.019 44.722 130.968C44.722 131.795 44.2487 132.268 43.6578 132.268Z" fill="#ED7E97"/>
<path d="M233.631 137.942C233.513 137.942 233.395 137.942 233.276 137.942C232.685 137.824 232.449 137.233 232.567 136.642C232.567 136.642 234.222 131.204 231.503 126.475C229.73 123.283 226.42 121.037 221.809 119.737C221.336 119.619 221.1 119.265 220.981 118.791C220.981 118.319 220.272 106.26 206.441 105.433C205.85 105.433 205.377 104.96 205.495 104.369C205.495 103.778 205.968 103.305 206.559 103.423C220.272 104.25 222.636 115.008 222.991 118.082C227.838 119.5 231.385 122.101 233.395 125.647C236.468 131.203 234.695 137.232 234.577 137.469C234.577 137.588 234.105 137.942 233.631 137.942Z" fill="#ED7E97"/>
<path d="M102.648 230.86C102.057 230.86 101.466 230.86 100.992 230.742C96.7363 230.033 93.8994 226.959 92.8352 225.659C79.1223 228.733 74.2753 215.256 74.2753 215.138C74.0387 214.547 74.3936 213.956 74.8662 213.838C75.4572 213.601 76.0481 213.956 76.1664 214.429C76.2847 214.902 80.6585 226.723 92.9528 223.413C93.4254 223.295 93.8987 223.531 94.1347 223.886C94.1347 223.886 96.7357 227.905 101.346 228.614C104.42 229.087 107.848 227.905 111.276 224.95C111.749 224.595 112.34 224.595 112.695 225.068C113.049 225.541 113.049 226.132 112.576 226.487C109.268 229.442 105.958 230.86 102.648 230.86Z" fill="#ED7E97"/>
<path d="M197.693 227.314C193.437 227.314 190.128 226.25 190.009 226.25C189.419 226.132 189.182 225.541 189.3 224.95C189.419 224.359 190.009 224.122 190.6 224.241C191.31 224.477 207.033 229.324 211.88 215.729C212.116 215.138 212.707 214.901 213.18 215.138C213.771 215.375 214.007 215.966 213.771 216.438C210.698 225.422 203.368 227.314 197.693 227.314Z" fill="#ED7E97"/>
<path d="M230.203 157.212C230.085 157.212 229.967 157.212 229.967 157.212C229.376 157.094 229.139 156.503 229.258 155.912C229.494 155.202 233.868 139.243 220.155 134.869C219.564 134.751 219.328 134.16 219.446 133.569C219.564 132.978 220.155 132.741 220.746 132.86C236.351 137.943 231.267 156.267 231.267 156.503C231.03 156.975 230.676 157.212 230.203 157.212Z" fill="#ED7E97"/>
<path d="M52.1693 223.886C12.0936 239.135 -10.1307 219.394 14.222 177.781C23.6794 163.241 27.4622 150.119 38.1015 159.458C41.4117 165.487 38.6924 167.024 34.5553 173.289C28.1715 181.801 16.9413 203.789 19.1874 210.645C22.6159 217.502 37.8655 212.655 45.9044 210.409C53.9427 207.335 59.6173 219.63 52.1693 223.886Z" fill="#ED7E97"/>
<path d="M59.9716 202.252C59.7349 202.725 59.499 203.08 59.144 203.434C58.7891 203.671 58.4348 203.907 58.0798 204.143C57.3706 204.498 56.6613 204.734 56.0704 205.089C55.3612 205.562 54.6519 206.035 54.1787 206.508C53.2328 207.453 52.6419 208.399 52.1693 209.226C51.46 210.763 51.46 211.945 51.46 212.182L48.859 212.3L44.012 212.418C44.012 212.182 44.012 210.172 44.8396 207.571C46.0214 204.143 48.7407 199.769 55.2429 197.05C57.1346 196.223 59.3806 197.169 60.0899 199.06C60.5625 200.36 60.4448 201.425 59.9716 202.252Z" fill="#ED7E97"/>
<path d="M64.8186 206.863C64.8186 207.927 64.2277 208.99 63.2818 209.7C63.0452 209.936 62.6909 210.055 62.4542 210.172C62.0993 210.29 61.745 210.527 61.39 210.645C60.5625 211.117 59.7349 211.472 59.144 211.945C56.3071 213.954 55.2429 216.319 55.1246 216.792L50.5142 215.373L47.9132 214.546C47.9132 214.428 48.2681 213.6 48.8591 212.418C49.3317 211.591 50.0409 210.409 50.9868 209.345C51.2234 208.99 51.5777 208.754 51.8143 208.399C53.1145 207.099 54.6513 205.798 56.6614 204.616C57.3706 204.261 58.1982 203.788 59.0257 203.433C59.2623 203.315 59.3806 203.315 59.6166 203.197C61.5084 202.488 63.7544 203.433 64.4636 205.325C64.7003 205.798 64.8186 206.389 64.8186 206.863Z" fill="#ED7E97"/>
<path d="M66.2371 216.083C66.0005 216.32 65.7645 216.438 65.5279 216.674C65.0553 217.029 64.4637 217.147 63.7544 217.265C57.9616 217.62 53.9428 222.467 53.8244 222.585C52.5243 224.24 50.1599 224.477 48.6231 223.176C46.968 221.876 46.7314 219.511 48.0322 217.974C48.1505 217.856 48.9781 216.91 50.3966 215.61C51.5784 214.546 53.1159 213.364 55.1253 212.3C57.3713 211.118 60.0906 210.054 63.2825 209.936C63.2825 209.936 63.2825 209.936 63.4008 209.936C63.8734 209.936 64.3467 209.936 64.8193 210.054C66.2378 210.526 67.302 211.827 67.4203 213.364C67.3013 214.31 66.9464 215.374 66.2371 216.083Z" fill="#ED7E97"/>
<path d="M151.589 123.283C150.998 123.047 150.761 122.456 150.88 121.983C157.382 102.359 141.659 94.6753 140.95 94.321C140.595 94.0844 140.359 93.7301 140.359 93.2568C140.95 85.8095 139.768 80.2532 136.576 76.943C134.25 74.4381 131.383 73.8289 129.921 73.6805C129.396 73.6276 128.987 73.2059 128.957 72.6784C128.921 72.0306 129.465 71.4979 130.11 71.5561C131.953 71.7221 135.284 72.4248 137.994 75.4062C141.423 79.0707 142.841 84.8636 142.368 92.5476C145.56 94.321 159.037 103.305 152.771 122.338C152.608 123.283 151.707 123.283 151.589 123.283Z" fill="#ED7E97"/>
<path d="M43.3035 226.723C41.5301 227.195 39.639 227.55 37.5106 227.905C26.9897 229.797 18.5958 228.969 12.9219 225.659C8.31153 222.94 5.35625 218.684 4.41038 213.246C2.87359 204.262 6.0655 192.322 14.2221 177.782C19.8966 167.615 25.9255 159.695 26.1621 159.34C28.6448 156.03 33.3735 155.439 36.5654 157.922C37.1563 158.394 37.6296 158.868 38.1022 159.459C38.1022 159.459 32.4276 157.094 25.9262 167.852C19.5423 178.609 4.76533 204.736 10.6765 217.503C16.5864 230.151 42.7119 226.723 43.3035 226.723Z" fill="#F490AA"/>
<path d="M41.8843 211.71C13.5121 223.295 12.5669 214.428 18.0048 197.051C23.4428 179.673 39.284 162.414 39.284 162.414L39.4023 164.423C39.284 165.842 38.8114 167.142 37.8655 168.324C37.8655 168.324 36.447 170.216 34.3193 173.29C32.3099 176.363 29.5906 180.501 26.9896 185.111C20.9608 196.106 18.0055 205.445 18.9507 210.646C19.1873 211.829 19.66 212.301 20.3692 212.774C24.507 215.137 34.437 213.719 41.8843 211.71Z" fill="#E26988"/>
<path d="M12.4486 226.486C7.60159 223.649 4.40968 219.156 3.34615 213.364C1.69104 204.143 5.00126 191.967 13.2762 177.19C18.9507 166.905 24.9796 158.984 25.2162 158.63C28.0532 154.847 33.3735 154.138 37.1563 156.975C40.9391 159.812 41.6483 165.132 38.8114 168.915C38.8114 169.033 33.1368 176.362 28.0538 185.583C22.1433 196.341 19.1874 205.443 20.1332 210.409C20.2515 211.355 20.6058 211.591 20.9608 211.827C24.8619 214.073 35.6195 212.655 43.6584 210.054C44.2493 209.936 44.8403 210.172 44.9586 210.763C45.0769 211.354 44.8403 211.945 44.2493 212.063C38.1021 213.955 25.2162 216.792 19.7783 213.718C18.7141 213.127 18.1232 212.3 17.8865 210.881C16.9407 205.443 19.8959 195.868 26.0438 184.638C31.2451 175.299 36.9197 167.733 36.9197 167.733C39.0474 164.896 38.4564 160.876 35.7378 158.749C32.9008 156.621 28.8814 157.212 26.7537 159.931C26.517 160.286 20.6065 168.088 14.9319 178.254C6.893 192.677 3.7011 204.38 5.23789 213.01C6.18376 218.093 8.9024 222.112 13.2768 224.595C18.8331 227.787 28.6408 228.231 37.1563 226.723C44.2493 225.54 49.9239 223.531 50.1599 223.412C51.4692 222.862 52.4059 222.112 52.8785 221.521C53.2335 221.049 53.9427 221.049 54.297 221.403C54.7696 221.758 54.7696 222.467 54.4153 222.821C53.8244 223.531 53.2335 224.003 52.4059 224.477C51.9333 224.832 28.1872 234.823 12.4486 226.486Z" fill="#BF4B6F"/>
<path d="M60.0899 199.297C60.0899 199.297 50.6325 199.179 44.8403 207.69C46.0222 204.262 48.7414 199.888 55.2436 197.169C57.1347 196.459 59.3807 197.405 60.0899 199.297Z" fill="#F490AA"/>
<path d="M64.8186 206.863C64.5819 206.863 61.2724 204.735 52.1693 209.345C51.6966 209.582 51.2234 209.345 50.9874 209.345C50.6325 209.227 50.8691 208.873 51.815 208.399C51.9333 208.281 52.7608 207.69 54.061 206.626C54.6519 206.153 55.2428 205.68 55.9527 205.208C56.1894 205.089 56.4253 204.853 56.662 204.735C57.6078 204.026 58.7897 203.198 59.8539 202.489C59.6173 202.962 59.3813 203.316 59.0263 203.671C59.263 203.552 59.3813 203.552 59.6173 203.434C61.509 202.725 63.755 203.671 64.4643 205.562C64.7002 205.798 64.8186 206.389 64.8186 206.863Z" fill="#F490AA"/>
<path d="M66.2371 216.083C66.3554 213.01 62.3359 212.182 59.0257 212.064C57.0163 211.946 55.2429 212.182 55.1245 212.182L61.2717 210.764L64.7003 209.936C66.1187 210.409 67.1829 211.71 67.3012 213.246C67.3012 214.31 66.9463 215.374 66.2371 216.083Z" fill="#F490AA"/>
<path d="M44.0127 212.064H43.8944C43.3035 211.946 42.9485 211.473 42.9485 210.881C43.3035 207.808 45.1946 200.124 54.7703 196.223C55.9521 195.75 57.2529 195.75 58.4348 196.223C59.6166 196.695 60.5625 197.641 61.0358 198.824C61.745 200.715 61.2724 202.843 59.8539 204.143C59.3813 204.498 58.7897 204.498 58.4355 204.025C58.0812 203.552 58.0805 202.961 58.5538 202.607C59.3813 201.897 59.618 200.597 59.263 199.651C59.0264 198.942 58.4355 198.469 57.8445 198.233C57.1353 197.996 56.426 197.996 55.8351 198.233C47.2053 201.661 45.5502 208.518 45.1959 211.236C45.071 211.902 44.4853 212.064 44.0127 212.064Z" fill="#BF4B6F"/>
<path d="M50.1599 211.355C49.9233 211.355 49.6873 211.236 49.569 211.118C49.0964 210.763 48.9781 210.172 49.3324 209.7C50.9875 207.454 54.1794 204.262 59.2624 202.252C60.4442 201.78 61.7451 201.78 62.9269 202.371C64.1088 202.843 64.9363 203.789 65.4096 204.972C66.1188 206.981 65.7527 208.767 64.0976 210.067C63.625 210.422 62.8086 210.764 62.4543 210.291C62.0994 209.819 62.2177 209.227 62.6909 208.873C63.6368 208.163 63.9911 206.863 63.5185 205.799C62.9276 204.381 61.3908 203.79 60.0899 204.262C55.3612 206.036 52.5243 208.873 51.1058 211C50.8692 211.236 50.5142 211.355 50.1599 211.355Z" fill="#BF4B6F"/>
<path d="M49.6611 224.448C49.4245 224.448 53.4701 223.295 53.2335 223.176C52.7609 222.821 52.1732 222.272 52.5275 221.918C52.5275 221.918 57.4889 216.438 63.7544 216.083C64.227 216.083 64.5819 215.965 64.9362 215.728C65.7638 215.256 66.2364 214.31 66.2364 213.246C66.2364 212.536 65.8815 211.827 65.2905 211.354C64.6996 210.881 64.1087 210.645 63.3988 210.645C60.3252 210.881 57.3699 211.827 54.5323 213.6C54.0597 213.955 53.3505 213.718 53.1138 213.245C52.7589 212.772 52.9955 212.063 53.4688 211.827C56.6607 209.935 59.9709 208.871 63.2805 208.635C64.5806 208.516 65.7631 208.99 66.709 209.817C67.6549 210.645 68.2458 211.827 68.3641 213.127C68.4824 214.901 67.6549 216.556 66.1181 217.501C65.4088 217.856 64.6996 218.092 63.8721 218.21C58.5524 218.565 53.8473 223.312 53.8473 223.43C53.6113 223.549 49.8977 224.448 49.6611 224.448Z" fill="#BF4B6F"/>
<path d="M137.522 191.021C122.508 187.12 119.199 173.525 121.326 166.787C121.799 165.25 122.627 164.068 123.691 163.477C129.601 159.931 132.675 167.378 142.96 170.097C153.363 172.698 159.51 167.733 163.056 173.643C163.647 174.589 163.766 176.008 163.411 177.663C161.992 184.402 152.89 194.923 137.522 191.021Z" fill="#22213F"/>
<path d="M163.766 176.363C158.683 178.727 150.17 179.436 141.186 177.072C132.202 174.826 125.109 170.097 121.681 165.605C122.153 164.068 122.626 163.95 123.69 163.359C129.601 159.813 132.674 167.26 142.959 169.98C153.362 172.58 159.51 167.615 163.056 173.526C163.647 174.471 164.002 174.826 163.766 176.363Z" fill="white"/>
<path d="M144.023 192.913C142.014 192.913 139.767 192.677 137.403 192.086C128.891 189.958 124.635 184.874 122.508 181.091C119.907 176.481 119.079 170.688 120.498 166.551C121.089 164.659 122.035 163.359 123.217 162.65C127.119 160.286 130.074 162.295 133.621 164.423C136.222 166.078 139.059 167.969 143.315 169.034C147.571 170.098 150.999 169.861 154.072 169.625C158.21 169.388 161.756 169.034 164.002 173.053C164.712 174.235 164.83 175.89 164.475 177.782C163.766 181.092 161.046 186.293 155.491 189.722C152.89 191.376 149.107 192.913 144.023 192.913ZM126.764 163.595C125.936 163.595 125.109 163.832 124.281 164.423C123.572 164.895 122.863 165.841 122.389 167.141C121.443 169.978 121.443 174.944 124.281 180.027C126.173 183.455 130.074 188.065 137.876 190.075C145.56 192.084 151.116 190.075 154.427 187.947C159.392 184.874 161.874 180.263 162.466 177.308C162.702 175.889 162.702 174.707 162.229 173.998C160.574 171.279 158.446 171.279 154.19 171.633C151.116 171.87 147.334 172.106 142.723 170.924C138.113 169.742 134.921 167.732 132.32 165.959C129.956 164.541 128.3 163.595 126.764 163.595Z" fill="#BF4B6F"/>
<path d="M283.645 78.3465C283.645 83.4353 281.661 88.0071 278.383 91.4573C275.365 94.5622 273.208 98.53 272.087 102.67L271.569 104.654H258.027L257.509 102.843C256.905 100.773 256.129 98.7026 255.094 96.805C254.059 94.9074 252.678 93.096 251.212 91.4573C250.781 91.0258 250.435 90.5944 250.091 90.1636C247.503 86.9724 245.951 82.832 245.951 78.3465C245.951 68.2543 254.059 59.8879 264.065 59.5428C271.655 59.2839 278.383 63.5106 281.575 69.7212C282.869 72.3084 283.645 75.2408 283.645 78.3465Z" fill="#FFD56C"/>
<path d="M283.645 78.3464C283.645 83.4353 281.661 88.0071 278.383 91.4572C275.365 94.5622 273.208 98.53 272.086 102.67L271.741 104.05L271.569 104.654H259.148C258.199 101.808 256.905 99.134 255.094 96.805C255.008 96.7187 254.922 96.5461 254.835 96.4598C254.318 95.8558 253.801 95.1662 253.197 94.5622C251.903 93.2686 250.867 91.8017 250.005 90.163C248.625 87.5751 247.935 84.6427 247.935 81.4508C247.935 71.3586 256.043 62.9922 266.049 62.6471C272.001 62.3882 277.349 64.9761 280.971 69.0302C281.144 69.2891 281.403 69.4617 281.575 69.7205C282.869 72.3084 283.645 75.2408 283.645 78.3464Z" fill="#FFCA3B"/>
<path d="M283.645 78.3465C283.645 83.4354 281.661 88.0072 278.383 91.4573C275.365 94.5622 273.208 98.5301 272.087 102.67L271.741 104.05C270.879 104.223 270.016 104.395 269.153 104.654H259.148C258.199 101.808 256.906 99.1341 255.094 96.805C255.008 96.7187 254.922 96.5461 254.835 96.4599V96.3736C254.835 96.3736 265.531 99.2203 273.553 91.0258C280.798 83.6079 281.057 71.3593 280.971 69.0303C281.143 69.2891 281.402 69.4617 281.575 69.7206C282.869 72.3085 283.645 75.2409 283.645 78.3465Z" fill="#EAB021"/>
<path d="M271.569 105.431H258.027C257.681 105.431 257.423 105.172 257.25 104.827L256.732 103.016C255.611 98.7888 253.455 94.9936 250.608 91.9749C247.072 88.266 245.174 83.4353 245.174 78.3464C245.174 67.9092 253.627 59.1113 264.064 58.7662C269.498 58.5936 274.587 60.4912 278.469 64.2002C282.351 67.9091 284.507 72.998 284.507 78.3464C284.507 83.4353 282.523 88.266 278.987 91.9749C276.14 94.9936 273.984 98.7032 272.862 102.929L272.345 104.913C272.173 105.172 271.914 105.431 271.569 105.431ZM258.544 103.878H270.965L271.311 102.498C272.518 98.0992 274.761 94.1314 277.78 90.9401C281.058 87.5763 282.869 83.0908 282.869 78.3464C282.869 73.3438 280.885 68.772 277.349 65.3219C273.726 61.8718 269.068 60.0604 264.065 60.233C254.491 60.5782 246.641 68.6864 246.641 78.3471C246.641 83.0914 248.453 87.49 251.644 90.9408C254.663 94.1321 256.992 98.1862 258.2 102.672L258.544 103.878Z" fill="#E29700"/>
<path d="M262.167 104.05C261.735 104.05 261.39 103.705 261.39 103.274V89.3001C261.304 89.3001 261.131 89.3001 261.045 89.3001C257.681 89.3001 256.473 87.7476 255.956 86.8848C255.352 85.6774 255.525 84.2106 256.301 83.0895C256.992 82.1404 258.113 81.6233 259.32 81.7959C262.511 82.3136 262.943 86.1952 262.943 87.8339C263.806 87.8339 262.598 87.8339 265.099 87.8339C265.531 87.8339 265.876 88.1791 265.876 88.6105C265.876 89.0419 265.531 89.3871 265.099 89.3871C262.598 89.3871 263.806 89.3871 262.943 89.3871V103.361C262.857 103.706 262.512 104.05 262.167 104.05ZM258.803 83.2628C258.113 83.2628 257.682 83.6942 257.509 83.953C257.078 84.6433 256.992 85.5055 257.337 86.1958C257.855 87.2306 259.148 87.7483 261.046 87.8346C261.218 87.8346 261.305 87.8346 261.391 87.8346C261.391 86.4547 261.046 83.6079 259.062 83.3491C258.976 83.2628 258.889 83.2628 258.803 83.2628Z" fill="#E29700"/>
<path d="M268.032 104.05C267.601 104.05 267.256 103.705 267.256 103.274V89.3864C267.256 89.3864 267.256 89.3864 267.169 89.3864C266.911 89.3864 266.479 89.3864 265.013 89.3864C264.582 89.3864 264.236 89.0413 264.236 88.6099C264.236 88.1784 264.582 87.8333 265.013 87.8333C266.479 87.8333 266.911 87.8333 267.169 87.8333C267.169 86.2808 267.601 82.2267 270.792 81.7953C272 81.6227 273.121 82.0541 273.811 83.0889C274.587 84.1237 274.76 85.5905 274.156 86.7979C273.725 87.747 272.517 89.2132 269.067 89.3858C268.895 89.3858 268.808 89.3858 268.636 89.3858V103.359C268.809 103.706 268.464 104.05 268.032 104.05ZM271.311 83.2628C271.224 83.2628 271.138 83.2628 271.052 83.2628C269.068 83.6079 268.723 86.454 268.723 87.8346C268.809 87.8346 268.981 87.8346 269.068 87.8346C270.965 87.7483 272.345 87.1443 272.777 86.1095C273.122 85.4193 273.036 84.5571 272.604 83.9531C272.432 83.6079 272 83.2628 271.311 83.2628Z" fill="#E29700"/>
<path d="M266.394 120.698H263.03C260.269 120.698 258.027 118.455 258.027 115.696V108.278C258.027 105.517 260.27 103.275 263.03 103.275H266.394C269.154 103.275 271.396 105.518 271.396 108.278V115.696C271.483 118.455 269.24 120.698 266.394 120.698Z" fill="#4150D8"/>
<path d="M266.394 121.474H263.03C259.839 121.474 257.251 118.886 257.251 115.695V108.277C257.251 105.086 259.839 102.498 263.03 102.498H266.394C269.585 102.498 272.173 105.086 272.173 108.277V115.695C272.173 118.887 269.585 121.474 266.394 121.474ZM263.03 104.05C260.701 104.05 258.717 105.948 258.717 108.363V115.781C258.717 118.11 260.614 120.094 263.03 120.094H266.394C268.723 120.094 270.707 118.197 270.707 115.781V108.363C270.707 106.034 268.809 104.05 266.394 104.05H263.03Z" fill="#31409B"/>
<path d="M271.138 113.711H258.459C256.647 113.711 255.181 112.245 255.181 110.434V105.086C255.181 103.274 256.647 101.808 258.459 101.808H271.138C272.949 101.808 274.415 103.274 274.415 105.086V110.434C274.415 112.245 272.949 113.711 271.138 113.711Z" fill="#4150D8"/>
<path d="M271.138 114.488H258.459C256.216 114.488 254.404 112.676 254.404 110.433V105.086C254.404 102.843 256.216 101.032 258.459 101.032H271.138C273.381 101.032 275.192 102.843 275.192 105.086V110.433C275.192 112.676 273.381 114.488 271.138 114.488ZM258.372 102.584C256.992 102.584 255.784 103.705 255.784 105.172V110.52C255.784 111.9 256.905 113.108 258.372 113.108H271.051C272.431 113.108 273.639 111.987 273.639 110.52V105.172C273.639 103.792 272.518 102.584 271.051 102.584H258.372Z" fill="#31409B"/>
<path d="M274.416 106.983H255.094C254.663 106.983 254.835 106.638 254.835 106.207C254.835 105.775 254.663 105.43 255.094 105.43H274.416C274.847 105.43 274.78 105.775 274.78 106.207C274.78 106.638 274.847 106.983 274.416 106.983Z" fill="#31409B"/>
<path d="M274.416 110.088H255.094C254.663 110.088 254.835 109.743 254.835 109.312C254.835 108.88 254.663 108.535 255.094 108.535H274.416C274.847 108.535 274.776 108.88 274.776 109.312C274.776 109.743 274.847 110.088 274.416 110.088Z" fill="#31409B"/>
<path d="M265.014 53.5904C263.289 53.5904 261.995 52.2105 261.995 50.5717V39.4448C261.995 37.7198 263.375 36.4261 265.014 36.4261C266.739 36.4261 268.032 37.806 268.032 39.4448V50.5717C268.119 52.2105 266.739 53.5904 265.014 53.5904Z" fill="#FFCA3B"/>
<path d="M246.727 60.3187C245.95 60.3187 245.175 60.0598 244.571 59.4558L236.721 51.6065C235.514 50.3991 235.514 48.5015 236.721 47.2935C237.929 46.0862 239.826 46.0862 241.034 47.2935L248.884 55.1429C250.091 56.3502 250.091 58.2478 248.884 59.4558C248.28 59.9735 247.504 60.3187 246.727 60.3187Z" fill="#FFCA3B"/>
<path d="M283.386 60.3187C282.609 60.3187 281.834 60.0598 281.23 59.4558C280.022 58.2485 280.022 56.3509 281.23 55.1429L289.079 47.2935C290.286 46.0862 292.184 46.0862 293.392 47.2935C294.599 48.5008 294.599 50.3985 293.392 51.6065L285.542 59.4558C284.939 59.9735 284.163 60.3187 283.386 60.3187Z" fill="#FFCA3B"/>
<path d="M265.014 54.367C262.944 54.367 261.218 52.6419 261.218 50.5717V39.4448C261.218 37.3746 262.944 35.6496 265.014 35.6496C267.084 35.6496 268.809 37.3746 268.809 39.4448V50.5717C268.895 52.6419 267.17 54.367 265.014 54.367ZM265.014 37.1158C263.72 37.1158 262.685 38.1505 262.685 39.4448V50.5717C262.685 51.8653 263.719 52.9008 265.014 52.9008C266.307 52.9008 267.343 51.866 267.343 50.5717V39.4448C267.343 38.1505 266.307 37.1158 265.014 37.1158Z" fill="#E29700"/>
<path d="M246.727 61.0952C245.692 61.0952 244.743 60.6638 244.053 59.9742L236.204 52.1242C235.514 51.4339 235.083 50.3991 235.083 49.45C235.083 48.4152 235.515 47.4661 236.204 46.7758C237.67 45.3096 240.086 45.3096 241.638 46.7758L249.488 54.6252C250.178 55.3154 250.609 56.2639 250.609 57.2994C250.609 58.3341 250.177 59.2833 249.488 59.9735C248.711 60.6638 247.763 61.0952 246.727 61.0952ZM238.878 47.0353C238.274 47.0353 237.67 47.2942 237.239 47.7256C236.808 48.157 236.549 48.7604 236.549 49.3644C236.549 49.9684 236.808 50.5717 237.239 51.0031L245.088 58.8525C245.951 59.7153 247.504 59.7153 248.366 58.8525C248.797 58.4211 249.056 57.8177 249.056 57.2137C249.056 56.6097 248.797 56.0064 248.366 55.5749L240.517 47.7249C239.999 47.2942 239.396 47.0353 238.878 47.0353Z" fill="#E29700"/>
<path d="M283.386 61.0952C282.351 61.0952 281.402 60.6638 280.712 59.9742C280.021 59.2839 279.591 58.2491 279.591 57.3C279.591 56.3508 280.022 55.3161 280.712 54.6258L288.561 46.7764C290.027 45.3102 292.443 45.3102 293.995 46.7764C294.685 47.4667 295.116 48.4152 295.116 49.4506C295.116 50.4861 294.685 51.4345 293.995 52.1248L286.146 59.9742C285.37 60.6638 284.421 61.0952 283.386 61.0952ZM291.236 47.0353C290.632 47.0353 290.029 47.2941 289.597 47.7256L281.748 55.5749C281.316 56.0064 281.058 56.6097 281.058 57.2137C281.058 57.8177 281.316 58.421 281.748 58.8525C282.611 59.7153 284.163 59.7153 285.025 58.8525L292.875 51.0031C293.306 50.5717 293.565 49.9683 293.565 49.3643C293.565 48.7603 293.306 48.157 292.875 47.7256C292.443 47.2941 291.839 47.0353 291.236 47.0353Z" fill="#E29700"/>
<path d="M249.826 227.704C249.795 227.704 249.777 227.704 249.771 227.704C249.23 227.693 248.8 227.247 248.809 226.706C248.82 226.165 249.263 225.766 249.806 225.743C250.024 225.73 274.016 225.888 283.6 202.589C283.806 202.089 284.378 201.849 284.88 202.056C285.381 202.261 285.62 202.835 285.413 203.335C275.541 227.336 251.153 227.704 249.826 227.704Z" fill="#ACBFE5"/>
<path d="M273.1 230.908C272.697 230.908 272.32 230.658 272.177 230.257C271.995 229.748 272.261 229.186 272.77 229.004C272.862 228.971 282.026 225.597 286.46 216.127C286.69 215.637 287.274 215.424 287.764 215.655C288.255 215.885 288.466 216.468 288.236 216.958C283.445 227.192 273.835 230.707 273.428 230.851C273.32 230.89 273.209 230.908 273.1 230.908Z" fill="#ACBFE5"/>
</svg>
