<svg width="25" height="25" viewBox="0 0 25 25" fill="none" xmlns="http://www.w3.org/2000/svg">
<path d="M3.70241 15.9698C2.85248 14.8656 2.42752 14.3135 2.42752 12.6741C2.42752 11.0347 2.85248 10.4827 3.70241 9.37846C5.39948 7.17369 8.24563 4.67413 12.4275 4.67413C16.6094 4.67413 19.4555 7.17369 21.1526 9.37846C22.0025 10.4827 22.4275 11.0347 22.4275 12.6741C22.4275 14.3135 22.0025 14.8656 21.1526 15.9698C19.4555 18.1745 16.6094 20.6741 12.4275 20.6741C8.24563 20.6741 5.39948 18.1745 3.70241 15.9698Z" stroke="#1C274C" stroke-width="1.5"/>
<path d="M15.4275 12.6741C15.4275 14.331 14.0844 15.6741 12.4275 15.6741C10.7706 15.6741 9.42752 14.331 9.42752 12.6741C9.42752 11.0172 10.7706 9.67413 12.4275 9.67413C14.0844 9.67413 15.4275 11.0172 15.4275 12.6741Z" stroke="#1C274C" stroke-width="1.5"/>
</svg>
