<svg width="25" height="25" viewBox="0 0 25 25" fill="none" xmlns="http://www.w3.org/2000/svg">
<path d="M3.11689 7.3787C2.95372 6.99798 2.51281 6.82161 2.13209 6.98478C1.75137 7.14795 1.575 7.58887 1.73817 7.96959L3.11689 7.3787ZM9.46898 14.4118C9.69489 14.0647 9.59657 13.6001 9.24938 13.3742C8.90219 13.1483 8.43761 13.2466 8.2117 13.5938L9.46898 14.4118ZM6.79889 15.7651C6.57298 16.1122 6.6713 16.5768 7.01849 16.8027C7.36568 17.0286 7.83026 16.9303 8.05617 16.5831L6.79889 15.7651ZM23.1169 7.96959C23.28 7.58887 23.1037 7.14795 22.7229 6.98478C22.3422 6.82161 21.9013 6.99798 21.7381 7.3787L23.1169 7.96959ZM20.3972 13.8333C20.6901 14.1262 21.1649 14.1262 21.4578 13.8333C21.7507 13.5404 21.7507 13.0655 21.4578 12.7726L20.3972 13.8333ZM11.6775 17.1741C11.6775 17.5883 12.0133 17.9241 12.4275 17.9241C12.8417 17.9241 13.1775 17.5883 13.1775 17.1741H11.6775ZM16.7989 16.5831C17.0248 16.9303 17.4894 17.0286 17.8365 16.8027C18.1837 16.5768 18.282 16.1122 18.0561 15.7651L16.7989 16.5831ZM5.95786 12.3333C6.25075 12.0404 6.25075 11.5655 5.95786 11.2726C5.66497 10.9797 5.19009 10.9797 4.8972 11.2726L5.95786 12.3333ZM3.3972 12.7726C3.10431 13.0655 3.10431 13.5404 3.3972 13.8333C3.69009 14.1262 4.16497 14.1262 4.45786 13.8333L3.3972 12.7726ZM12.4275 13.9241C9.20364 13.9241 6.88886 12.3187 5.35213 10.6638C4.58398 9.83658 4.02078 9.00699 3.65012 8.38429C3.46522 8.07365 3.3294 7.81646 3.24093 7.63951C3.19672 7.5511 3.16442 7.48289 3.1438 7.43825C3.1335 7.41594 3.12612 7.39954 3.12164 7.38947C3.1194 7.38444 3.11768 7.38051 3.11689 7.3787C3.11687 7.37866 3.11692 7.37878 3.11689 7.3787C3.11699 7.37893 3.11689 7.3787 2.42753 7.67414C1.73817 7.96958 1.73802 7.96925 1.73817 7.96959C1.73823 7.96974 1.73867 7.97074 1.7388 7.97104C1.73905 7.97163 1.73936 7.97234 1.73971 7.97314C1.7404 7.97476 1.74129 7.9768 1.74236 7.97926C1.74451 7.98417 1.74741 7.99076 1.75106 7.99897C1.75836 8.01539 1.76868 8.03829 1.78206 8.06725C1.8088 8.12516 1.84779 8.20734 1.89929 8.31033C2.00222 8.5162 2.15547 8.80589 2.36119 9.1515C2.77178 9.8413 3.39608 10.7617 4.25293 11.6844C5.9662 13.5295 8.65142 15.4241 12.4275 15.4241V13.9241ZM15.74 13.3049C14.7696 13.6869 13.6692 13.9241 12.4275 13.9241V15.4241C13.8657 15.4241 15.1521 15.1483 16.2894 14.7007L15.74 13.3049ZM8.2117 13.5938L6.79889 15.7651L8.05617 16.5831L9.46898 14.4118L8.2117 13.5938ZM22.4275 7.67414C21.7381 7.3787 21.738 7.37884 21.7381 7.3787C21.7382 7.37854 21.7386 7.37763 21.7386 7.37774C21.7385 7.37794 21.7382 7.37866 21.7376 7.3799C21.7365 7.38237 21.7345 7.3869 21.7316 7.39339C21.7258 7.40638 21.7164 7.42723 21.7033 7.45539C21.677 7.51171 21.6361 7.59709 21.5801 7.70681C21.4681 7.92641 21.2965 8.24245 21.0629 8.61734C20.5944 9.3693 19.8838 10.3461 18.9142 11.2561L19.9408 12.3498C21.0298 11.3276 21.8192 10.24 22.336 9.4106C22.5951 8.99482 22.7875 8.64094 22.9164 8.38829C22.9808 8.26189 23.0295 8.16057 23.0628 8.08921C23.0794 8.05353 23.0922 8.02532 23.1012 8.00518C23.1057 7.99511 23.1093 7.98706 23.1119 7.9811C23.1132 7.97812 23.1142 7.97567 23.1151 7.97374C23.1155 7.97278 23.1158 7.97195 23.1161 7.97126C23.1163 7.97091 23.1168 7.96987 23.1169 7.96959C23.1169 7.96966 23.117 7.96945 23.1169 7.96959C23.117 7.96942 23.1169 7.96958 22.4275 7.67414ZM18.9142 11.2561C18.0552 12.0623 17.0014 12.8084 15.74 13.3049L16.2894 14.7007C17.763 14.1207 18.9741 13.2571 19.9408 12.3498L18.9142 11.2561ZM18.8972 12.3333L20.3972 13.8333L21.4578 12.7726L19.9578 11.2726L18.8972 12.3333ZM11.6775 14.6741V17.1741H13.1775V14.6741H11.6775ZM15.3861 14.4118L16.7989 16.5831L18.0561 15.7651L16.6433 13.5938L15.3861 14.4118ZM4.8972 11.2726L3.3972 12.7726L4.45786 13.8333L5.95786 12.3333L4.8972 11.2726Z" fill="#1C274C"/>
</svg>
