<svg width="30" height="30" viewBox="0 0 30 30" fill="none" xmlns="http://www.w3.org/2000/svg">
<path d="M29.5249 13.65H15.7699V17.745H25.5349C25.0399 23.46 20.2849 25.905 15.7849 25.905C10.0399 25.905 4.99992 21.375 4.99992 15C4.99992 8.85 9.79992 4.095 15.7999 4.095C20.4349 4.095 23.1499 7.05 23.1499 7.05L25.9999 4.08C25.9999 4.08 22.3399 0 15.6499 0C7.12992 0 0.544922 7.2 0.544922 15C0.544922 22.575 6.73992 30 15.8749 30C23.8999 30 29.7499 24.495 29.7499 16.365C29.7499 14.64 29.5249 13.65 29.5249 13.65Z" fill="#F1EDFE"/>
</svg>
